{
.appVersion = "3516";
.formatVersion = 3;
DisplayStrings = (
"/_part.stroke ŦħɨÐƗҒѢŧЄЭҞӺӾғҟӻ₣Ӻӻ",
"Ӄ"
);
axes = (
{
name = Weight;
tag = wght;
}
);
classes = (
{
code = "A Aacute Abreve Abreveacute Abrevedotbelow Abrevegrave Abrevehookabove Abrevetilde Acaron Acircumflex Acircumflexacute Acircumflexdotbelow Acircumflexgrave Acircumflexhookabove Acircumflextilde Adblgrave Adieresis Adieresismacron Adotbelow Agrave Ahookabove Ainvertedbreve Amacron Aogonek Aring Aringacute Atilde AE AEacute";
name = Adiacritics;
},
{
code = "Y Yacute Ycircumflex Ydieresis Ydotaccent Ydotbelow Ygrave Yhookabove Ymacron Ytilde ";
name = Ydiacritics;
},
{
automatic = 1;

glyphs = (
{
glyphname = A;
kernLeft = KO_A;
kernRight = KO_A;
lastChange = "2026-03-20 13:35:31 +0000";
layers = (
{
anchors = (
{
name = bottom;
pos = (346,0);
},
{
name = ogonek;
pos = (695,0);
},
{
name = top;
pos = (482,700);
}
);
background = {
anchors = (
{
name = bottom;
pos = (387,0);
},
{
name = ogonek;
pos = (696,10);
},
{
name = top;
pos = (387,700);
}
);
shapes = (
{
pos = (0,700);
ref = V;
scale = (1,-1);
}
);
};
layerId = "3917E251-E52F-4C58-ACE3-A75BE580C29C";
shapes = (
{
closed = 1;
nodes = (
(171,0,l),
(436,532,ls),
(444,549,o),
(462,550,o),
(461,532,cs),
(461,423,l),
(486,0,l),
(695,0,l),
(628,700,l),
(326,700,l),
(-38,0,l)
);
},
{
closed = 1;
nodes = (
(499,133,l),
(499,293,l),
(276,293,l),
(191,133,l)
);
}
);
width = 773;
},
{
anchors = (
{
name = bottom;
pos = (288,0);
},
{
name = ogonek;
pos = (613,0);
},
{
name = top;
pos = (437,700);
}
);
layerId = "CB50C8AE-8F70-48CF-8EC5-5F1FEE22C006";
shapes = (
{
closed = 1;
nodes = (
(82,0,l),
(420,605,ls),
(425,615,o),
(437,614,o),
(437,605,cs),
(442,491,l),
(508,0,l),
(613,0,l),
(517,700,l),
(355,700,l),
(-37,0,l)
);
},
{
closed = 1;
nodes = (
(519,181,l),
(513,272,l),
(198,272,l),
(155,181,l)
);
}
);
width = 690;
},
{
anchors = (
{
name = bottom;
pos = (255,0);
},
{
name = ogonek;
pos = (546,0);
},
{
name = top;
pos = (403,700);
}
);
layerId = "111500BD-850E-4B42-8F02-00848EDACCC3";
shapes = (
{
closed = 1;
nodes = (
(4,0,l),
(390,651,ls),
(395,660,o),
(404,661,o),
(405,651,cs),
(415,569,l),
(510,0,l),
(546,0,l),
(425,700,l),
(382,700,l),
(-35,0,l)
);
},
{
closed = 1;
nodes = (
(488,227,l),
(481,258,l),
(139,258,l),
(121,227,l)
);
}
);
width = 621;
}
);
metricRight = V;
unicode = 65;
userData = {
KernOnName = A;
com.schriftgestaltung.Glyphs.ColorIndex = 3;
com.schriftgestaltung.Glyphs.layer.rightMetricsKey = "==V";
com.schriftgestaltung.Glyphs.rightMetricsKey = V;
};
},
{
glyphname = AE;
kernLeft = KO_A;
kernRight = KO_E;
lastChange = "2026-03-20 13:35:31 +0000";
layers = (
{
anchors = (
{
name = bottom;
pos = (483,0);
},
{
name = top;
pos = (632,700);
}
);
layerId = "3917E251-E52F-4C58-ACE3-A75BE580C29C";
shapes = (
{
closed = 1;
nodes = (
(170,0,l),
(243,137,l),
(423,137,l),
(394,0,l),
(923,0,l),
(961,180,l),
(632,180,l),
(652,275,l),
(942,275,l),
(974,425,l),
(684,425,l),
(705,520,l),
(1034,520,l),
(1072,700,l),
(330,700,l),
(-38,0,l)
);
},
{
closed = 1;
nodes = (
(434,532,l),
(507,532,l),
(457,295,l),
(318,295,l)
);
}
);
width = 1033;
},
{
anchors = (
{
name = bottom;
pos = (415,0);
},
{
name = top;
pos = (564,700);
}
);
layerId = "CB50C8AE-8F70-48CF-8EC5-5F1FEE22C006";
shapes = (
{
closed = 1;
nodes = (
(72,0,l),
(175,181,l),
(401,181,l),
(362,0,l),
(836,0,l),
(857,97,l),
(481,97,l),
(525,304,l),
(883,304,l),
(903,396,l),
(544,396,l),
(588,605,l),
(964,605,l),
(985,700,l),
(367,700,l),
(-37,0,l)
);
},
{
closed = 1;
nodes = (
(417,605,l),
(490,605,l),
(420,272,l),
(224,272,l)
);
}
);
width = 954;
},
{
anchors = (
{
name = bottom;
pos = (402,0);
},
{
name = top;
pos = (550,700);
}
);
layerId = "111500BD-850E-4B42-8F02-00848EDACCC3";
shapes = (
{
closed = 1;
nodes = (
(3,0,l),
(138,227,l),
(421,227,l),
(373,0,l),
(802,0,l),
(809,32,l),
(414,32,l),
(478,334,l),
(855,334,l),
(862,366,l),
(484,366,l),
(549,668,l),
(944,668,l),
(950,700,l),
(384,700,l),
(-35,0,l)
);
},
{
closed = 1;
nodes = (
(401,669,l),
(515,668,l),
(428,258,l),
(156,258,l)
);
}
);
width = 922;
}
);
metricLeft = A;
metricRight = E;
unicode = 198;
userData = {
com.schriftgestaltung.Glyphs.leftMetricsKey = A;
com.schriftgestaltung.Glyphs.rightMetricsKey = E;
};
},
{
glyphname = B;
kernLeft = KO_H;
kernRight = KO_B;
lastChange = "2026-03-20 13:35:31 +0000";
layers = (
{
anchors = (
{
name = bottom;
pos = (277,0);
},
{
name = center;
pos = (156,221);
},
{
name = top;
pos = (426,700);
}
);
background = {
shapes = (
{
closed = 1;
nodes = (
(391,0,ls),
(541,0,o),
(653,74,o),
(680,203,cs),
(698,289,o),
(674,348,o),
(609,367,c),
(670,394,o),
(710,446,o),
(723,508,cs),
(749,631,o),
(662,700,o),
(506,700,cs),
(167,700,l),
(18,0,l)
);
}
);
};
layerId = "3917E251-E52F-4C58-ACE3-A75BE580C29C";
shapes = (
{
closed = 1;
nodes = (
(392,0,ls),
(551,0,o),
(689,92,o),
(689,235,cs),
(689,289,o),
(662,335,o),
(617,359,c),
(676,394,o),
(721,444,o),
(721,520,cs),
(721,634,o),
(614,700,o),
(492,700,cs),
(167,700,l),
(18,0,l)
);
},
{
closed = 1;
nodes = (
(278,281,l),
(437,281,ls),
(469,281,o),
(493,265,o),
(493,235,cs),
(493,188,o),
(454,160,o),
(411,160,cs),
(252,160,l)
);
},
{
closed = 1;
nodes = (
(333,540,l),
(472,540,ls),
(504,540,o),
(528,524,o),
(528,494,cs),
(528,447,o),
(489,420,o),
(446,420,cs),
(307,420,l)
);
}
);
width = 743;
},
{
anchors = (
{
name = bottom;
pos = (262,0);
},
{
name = center;
pos = (125,192);
},
{
name = top;
pos = (411,700);
}
);
layerId = "CB50C8AE-8F70-48CF-8EC5-5F1FEE22C006";
shapes = (
{
closed = 1;
nodes = (
(348,0,ls),
(490,0,o),
(615,87,o),
(615,216,cs),
(615,270,o),
(589,325,o),
(525,350,c),
(613,380,o),
(665,463,o),
(665,529,cs),
(665,635,o),
(575,700,o),
(450,700,cs),
(181,700,l),
(32,0,l)
);
},
{
closed = 1;
nodes = (
(201,307,l),
(395,307,ls),
(467,307,o),
(511,274,o),
(511,219,cs),
(511,139,o),
(438,89,o),
(348,89,cs),
(154,89,l)
);
},
{
closed = 1;
nodes = (
(265,611,l),
(450,611,ls),
(520,611,o),
(560,582,o),
(560,529,cs),
(560,470,o),
(513,395,o),
(407,395,cs),
(219,395,l)
);
}
);
width = 696;
},
{
anchors = (
{
name = bottom;
pos = (240,0);
},
{
name = center;
pos = (104,183);
},
{
name = top;
pos = (388,700);
}
);
layerId = "111500BD-850E-4B42-8F02-00848EDACCC3";
shapes = (
{
closed = 1;
nodes = (
(321,0,ls),
(458,0,o),
(578,85,o),
(578,211,cs),
(578,282,o),
(533,331,o),
(465,350,c),
(559,371,o),
(637,435,o),
(637,538,cs),
(637,645,o),
(559,700,o),
(430,700,cs),
(194,700,l),
(46,0,l)
);
},
{
closed = 1;
nodes = (
(153,336,l),
(386,336,ls),
(481,336,o),
(543,295,o),
(543,210,cs),
(543,102,o),
(438,31,o),
(321,31,cs),
(87,31,l)
);
},
{
closed = 1;
nodes = (
(224,669,l),
(430,669,ls),
(542,669,o),
(602,626,o),
(602,537,cs),
(602,442,o),
(519,367,o),
(392,367,cs),
(159,367,l)
);
}
);
width = 673;
}
);
metricLeft = H;
unicode = 66;
userData = {
KernOnName = B;
com.schriftgestaltung.Glyphs.ColorIndex = 3;
com.schriftgestaltung.Glyphs.layer.leftMetricsKey = "==H";
com.schriftgestaltung.Glyphs.leftMetricsKey = H;
};
},
{
glyphname = Bstroke;
lastChange = "2026-03-20 13:35:31 +0000";
layers = (
{
layerId = "3917E251-E52F-4C58-ACE3-A75BE580C29C";
shapes = (
{
alignment = -1;
pos = (45,0);
ref = B;
},
{
closed = 1;
nodes = (
(387,180,l),
(403,257,l),
(17,257,l),
(0,180,l)
);
}
);
width = 788;
},
{
layerId = "CB50C8AE-8F70-48CF-8EC5-5F1FEE22C006";
shapes = (
{
alignment = -1;
pos = (33,0);
ref = B;
},
{
closed = 1;
nodes = (
(302,150,l),
(320,234,l),
(13,234,l),
(-5,150,l)
);
}
);
width = 729;
},
{
layerId = "111500BD-850E-4B42-8F02-00848EDACCC3";
shapes = (
{
alignment = -1;
pos = (30,0);
ref = B;
},
{
closed = 1;
nodes = (
(260,168,l),
(266,197,l),
(6,197,l),
(0,168,l)
);
}
);
width = 702;
}
);
metricLeft = t;
metricRight = B;
unicode = 579;
},
{
glyphname = C;
kernLeft = KO_O;
kernRight = KO_C;
lastChange = "2026-03-20 13:35:31 +0000";
layers = (
{
anchors = (
{
name = bottom;
pos = (339,0);
},
{
name = center;
pos = (347,355);
},
{
name = top;
pos = (488,700);
}
);
background = {
anchors = (
{
name = bottom;
pos = (366,0);
},
{
name = center;
pos = (366,350);
},
{
name = ogonek;
pos = (448,0);
},
{
name = top;
pos = (366,675);
},
{
name = topleft;
pos = (61,700);
},
{
name = topright;
pos = (482,700);
}
);
shapes = (
{
closed = 0;
nodes = (
(634,515,l),
(720,663,l),
(671,695,o),
(607,712,o),
(531,712,cs),
(285,712,o),
(100,572,o),
(52,350,cs),
(5,128,o),
(131,-12,o),
(377,-12,cs),
(453,-12,o),
(524,5,o),
(587,37,c),
(564,185,l)
);
},
{
pos = (-3,0);
ref = O;
}
);
};
layerId = "3917E251-E52F-4C58-ACE3-A75BE580C29C";
shapes = (
{
closed = 1;
nodes = (
(435,-12,o),
(498,1,o),
(538,22,c),
(511,203,l),
(476,180,o),
(431,168,o),
(394,168,cs),
(304,168,o),
(254,213,o),
(254,303,cs),
(254,418,o),
(330,540,o),
(469,540,cs),
(515,540,o),
(555,530,o),
(581,510,c),
(671,656,l),
(631,686,o),
(565,712,o),
(489,712,cs),
(187,712,o),
(50,502,o),
(50,287,cs),
(50,100,o),
(178,-12,o),
(374,-12,cs)
);
}
);
width = 629;
},
{
anchors = (
{
name = bottom;
pos = (305,0);
},
{
name = center;
pos = (315,350);
},
{
name = top;
pos = (454,700);
}
);
layerId = "CB50C8AE-8F70-48CF-8EC5-5F1FEE22C006";
shapes = (
{
closed = 1;
nodes = (
(406,-12,o),
(459,-3,o),
(507,16,c),
(494,112,l),
(457,95,o),
(414,84,o),
(363,84,cs),
(237,84,o),
(170,167,o),
(170,281,cs),
(170,433,o),
(246,618,o),
(452,616,cs),
(508,615,o),
(553,596,o),
(586,567,c),
(636,653,l),
(591,685,o),
(535,712,o),
(452,712,cs),
(190,712,o),
(64,496,o),
(64,280,cs),
(64,101,o),
(190,-12,o),
(348,-12,cs)
);
}
);
width = 605;
},
{
anchors = (
{
name = bottom;
pos = (334,0);
},
{
name = center;
pos = (310,350);
},
{
name = top;
pos = (470,700);
}
);
layerId = "111500BD-850E-4B42-8F02-00848EDACCC3";
shapes = (
{
closed = 1;
nodes = (
(421,-12,o),
(480,2,o),
(529,27,c),
(523,60,l),
(477,35,o),
(421,20,o),
(359,20,cs),
(189,20,o),
(111,127,o),
(111,265,cs),
(111,434,o),
(192,681,o),
(476,681,cs),
(546,681,o),
(605,660,o),
(644,624,c),
(660,652,l),
(616,690,o),
(553,713,o),
(476,713,cs),
(167,713,o),
(76,446,o),
(76,264,cs),
(76,110,o),
(169,-12,o),
(357,-12,cs)
);
}
);
width = 629;
}
);
metricLeft = O;
metricRight = "=I/2";
unicode = 67;
userData = {
KernOnName = C;
com.schriftgestaltung.Glyphs.ColorIndex = 3;
com.schriftgestaltung.Glyphs.layer.leftMetricsKey = "==O";
com.schriftgestaltung.Glyphs.leftMetricsKey = O;
};
},
{
glyphname = D;
kernLeft = KO_H;
kernRight = KO_O;
lastChange = "2026-03-20 13:35:31 +0000";
layers = (
{
anchors = (
{
name = bottom;
pos = (265,0);
},
{
name = center;
pos = (220,350);
},
{
name = ogonek;
pos = (364,0);
},
{
name = top;
pos = (444,700);
},
{
name = topleft;
pos = (161,700);
},
{
name = topright;
pos = (544,700);
}
);
background = {
shapes = (
{
pos = (-14,0);
ref = O;
}
);
};
layerId = "3917E251-E52F-4C58-ACE3-A75BE580C29C";
shapes = (
{
closed = 1;
nodes = (
(364,0,ls),
(596,0,o),
(779,170,o),
(779,397,cs),
(779,586,o),
(629,700,o),
(437,700,cs),
(168,700,l),
(18,0,l)
);
},
{
closed = 1;
nodes = (
(339,520,l),
(437,520,ls),
(523,520,o),
(574,476,o),
(574,397,cs),
(574,285,o),
(497,180,o),
(364,180,cs),
(266,180,l)
);
}
);
width = 798;
},
{
anchors = (
{
name = bottom;
pos = (284,0);
},
{
name = center;
pos = (160,350);
},
{
name = ogonek;
pos = (289,0);
},
{
name = top;
pos = (404,700);
},
{
name = topleft;
pos = (86,700);
},
{
name = topright;
pos = (478,700);
}
);
layerId = "CB50C8AE-8F70-48CF-8EC5-5F1FEE22C006";
shapes = (
{
closed = 1;
nodes = (
(315,0,ls),
(560,0,o),
(717,204,o),
(717,423,cs),
(717,601,o),
(592,700,o),
(422,700,cs),
(181,700,l),
(32,0,l)
);
},
{
closed = 1;
nodes = (
(267,603,l),
(422,603,ls),
(545,603,o),
(612,535,o),
(612,424,cs),
(612,265,o),
(506,97,o),
(315,97,cs),
(159,97,l)
);
}
);
width = 743;
},
{
anchors = (
{
name = bottom;
pos = (277,0);
},
{
name = center;
pos = (138,350);
},
{
name = ogonek;
pos = (329,0);
},
{
name = top;
pos = (421,700);
},
{
name = topleft;
pos = (125,700);
},
{
name = topright;
pos = (509,700);
}
);
layerId = "111500BD-850E-4B42-8F02-00848EDACCC3";
shapes = (
{
closed = 1;
nodes = (
(281,0,ls),
(544,0,o),
(710,212,o),
(710,433,cs),
(710,598,o),
(597,700,o),
(417,700,cs),
(195,700,l),
(46,0,l)
);
},
{
closed = 1;
nodes = (
(224,668,l),
(417,668,ls),
(580,668,o),
(675,579,o),
(675,433,cs),
(675,229,o),
(523,32,o),
(281,32,cs),
(88,32,l)
);
}
);
width = 747;
}
);
metricLeft = H;
metricRight = O;
unicode = 68;
userData = {
com.schriftgestaltung.Glyphs.ColorIndex = 3;
com.schriftgestaltung.Glyphs.layer.leftMetricsKey = "==H";
com.schriftgestaltung.Glyphs.layer.rightMetricsKey = "==O";
com.schriftgestaltung.Glyphs.leftMetricsKey = H;
com.schriftgestaltung.Glyphs.rightMetricsKey = O;
};
},
{
glyphname = DZcaron;
lastChange = "2026-03-20 13:35:31 +0000";
layers = (
{
anchors = (
{
name = bottom;
pos = (1049,0);
},
{
name = center;
pos = (220,350);
},
{
name = ogonek;
pos = (364,0);
},
{
name = top;
pos = (1244,914);
},
{
name = topleft;
pos = (161,700);
},
{
name = topright;
pos = (544,700);
}
);
layerId = "3917E251-E52F-4C58-ACE3-A75BE580C29C";
shapes = (
{
closed = 1;
nodes = (
(364,0,ls),
(596,0,o),
(779,170,o),
(779,397,cs),
(779,586,o),
(629,700,o),
(437,700,cs),
(168,700,l),
(18,0,l)
);
},
{
closed = 1;
nodes = (
(339,520,l),
(437,520,ls),
(523,520,o),
(574,476,o),
(574,397,cs),
(574,285,o),
(497,180,o),
(364,180,cs),
(266,180,l)
);
},
{
closed = 1;
nodes = (
(1341,0,l),
(1379,180,l),
(1088,180,ls),
(1072,180,o),
(1070,191,o),
(1089,205,cs),
(1185,275,l),
(1456,539,l),
(1490,700,l),
(916,700,l),
(878,520,l),
(1180,520,l),
(1197,520,o),
(1199,507,o),
(1180,494,cs),
(1076,420,l),
(803,161,l),
(769,0,l)
);
},
{
closed = 1;
nodes = (
(1312,772,l),
(1431,914,l),
(1290,914,l),
(1258,876,l),
(1234,846,ls),
(1229,839,o),
(1219,838,o),
(1216,848,cs),
(1207,876,l),
(1191,914,l),
(1057,914,l),
(1116,772,l)
);
}
);
width = 1437;
},
{
anchors = (
{
name = bottom;
pos = (956,0);
},
{
name = center;
pos = (160,350);
},
{
name = ogonek;
pos = (289,0);
},
{
name = top;
pos = (1148,903);
},
{
name = topleft;
pos = (86,700);
},
{
name = topright;
pos = (478,700);
}
);
layerId = "CB50C8AE-8F70-48CF-8EC5-5F1FEE22C006";
shapes = (
{
closed = 1;
nodes = (
(315,0,ls),
(560,0,o),
(717,204,o),
(717,423,cs),
(717,601,o),
(592,700,o),
(422,700,cs),
(181,700,l),
(32,0,l)
);
},
{
closed = 1;
nodes = (
(267,603,l),
(422,603,ls),
(545,603,o),
(612,535,o),
(612,424,cs),
(612,265,o),
(506,97,o),
(315,97,cs),
(159,97,l)
);
},
{
closed = 1;
nodes = (
(1212,0,l),
(1232,97,l),
(879,97,ls),
(871,97,o),
(870,105,o),
(877,111,cs),
(947,177,l),
(1345,627,l),
(1359,700,l),
(858,700,l),
(839,603,l),
(1191,603,ls),
(1197,603,o),
(1199,595,o),
(1193,589,cs),
(1118,518,l),
(719,64,l),
(700,0,l)
);
},
{
closed = 1;
nodes = (
(1171,783,l),
(1295,925,l),
(1210,925,l),
(1158,865,l),
(1137,836,ls),
(1131,827,o),
(1125,828,o),
(1123,836,cs),
(1117,865,l),
(1091,925,l),
(1010,925,l),
(1072,783,l)
);
}
);
width = 1309;
},
{
anchors = (
{
name = bottom;
pos = (900,0);
},
{
name = center;
pos = (138,350);
},
{
name = ogonek;
pos = (329,0);
},
{
name = top;
pos = (1083,863);
},
{
name = topleft;
pos = (125,700);
},
{
name = topright;
pos = (509,700);
}
);
layerId = "111500BD-850E-4B42-8F02-00848EDACCC3";
shapes = (
{
closed = 1;
nodes = (
(281,0,ls),
(544,0,o),
(710,212,o),
(710,433,cs),
(710,598,o),
(597,700,o),
(417,700,cs),
(195,700,l),
(46,0,l)
);
},
{
closed = 1;
nodes = (
(224,668,l),
(417,668,ls),
(580,668,o),
(675,579,o),
(675,433,cs),
(675,229,o),
(523,32,o),
(281,32,cs),
(88,32,l)
);
},
{
closed = 1;
nodes = (
(1124,0,l),
(1130,32,l),
(726,32,ls),
(716,32,o),
(713,40,o),
(723,48,cs),
(760,79,l),
(1262,671,l),
(1267,700,l),
(828,700,l),
(822,668,l),
(1209,668,ls),
(1218,668,o),
(1221,660,o),
(1213,653,cs),
(1175,621,l),
(672,27,l),
(666,0,l)
);
},
{
closed = 1;
nodes = (
(1085,794,l),
(1207,936,l),
(1173,936,l),
(1097,848,l),
(1077,820,ls),
(1072,813,o),
(1065,814,o),
(1063,820,cs),
(1055,848,l),
(1017,936,l),
(987,936,l),
(1049,794,l)
);
}
);
width = 1169;
}
);
unicode = 452;
},
{
glyphname = Dzcaron;
lastChange = "2026-03-20 13:35:31 +0000";
layers = (
{
anchors = (
{
name = bottom;
pos = (1019,0);
},
{
name = center;
pos = (220,350);
},
{
name = ogonek;
pos = (364,0);
},
{
name = top;
pos = (1183,760);
},
{
name = topleft;
pos = (161,700);
},
{
name = topright;
pos = (544,700);
}
);
layerId = "3917E251-E52F-4C58-ACE3-A75BE580C29C";
shapes = (
{
closed = 1;
nodes = (
(364,0,ls),
(596,0,o),
(779,170,o),
(779,397,cs),
(779,586,o),
(629,700,o),
(437,700,cs),
(168,700,l),
(18,0,l)
);
},
{
closed = 1;
nodes = (
(339,520,l),
(437,520,ls),
(523,520,o),
(574,476,o),
(574,397,cs),
(574,285,o),
(497,180,o),
(364,180,cs),
(266,180,l)
);
},
{
closed = 1;
nodes = (
(1254,0,l),
(1287,154,l),
(1044,154,ls),
(1035,154,o),
(1034,165,o),
(1041,169,cs),
(1100,205,l),
(1342,391,l),
(1371,546,l),
(900,546,l),
(867,392,l),
(1109,392,ls),
(1118,392,o),
(1118,382,o),
(1110,377,cs),
(1053,342,l),
(814,156,l),
(783,0,l)
);
},
{
closed = 1;
nodes = (
(1251,618,l),
(1370,760,l),
(1229,760,l),
(1197,722,l),
(1173,692,ls),
(1168,685,o),
(1158,684,o),
(1155,694,cs),
(1146,722,l),
(1130,760,l),
(996,760,l),
(1055,618,l)
);
}
);
width = 1358;
},
{
anchors = (
{
name = bottom;
pos = (927,0);
},
{
name = center;
pos = (160,350);
},
{
name = ogonek;
pos = (289,0);
},
{
name = top;
pos = (1083,738);
},
{
name = topleft;
pos = (86,700);
},
{
name = topright;
pos = (478,700);
}
);
layerId = "CB50C8AE-8F70-48CF-8EC5-5F1FEE22C006";
shapes = (
{
closed = 1;
nodes = (
(315,0,ls),
(560,0,o),
(717,204,o),
(717,423,cs),
(717,601,o),
(592,700,o),
(422,700,cs),
(181,700,l),
(32,0,l)
);
},
{
closed = 1;
nodes = (
(267,603,l),
(422,603,ls),
(545,603,o),
(612,535,o),
(612,424,cs),
(612,265,o),
(506,97,o),
(315,97,cs),
(159,97,l)
);
},
{
closed = 1;
nodes = (
(1141,0,l),
(1159,85,l),
(860,85,ls),
(853,85,o),
(850,93,o),
(856,98,cs),
(908,140,l),
(1241,465,l),
(1254,535,l),
(825,535,l),
(807,450,l),
(1106,450,ls),
(1115,450,o),
(1116,444,o),
(1109,438,cs),
(1057,397,l),
(724,70,l),
(712,0,l)
);
},
{
closed = 1;
nodes = (
(1106,618,l),
(1230,760,l),
(1144,760,l),
(1093,700,l),
(1072,671,ls),
(1066,662,o),
(1060,663,o),
(1058,671,cs),
(1052,700,l),
(1026,760,l),
(945,760,l),
(1007,618,l)
);
}
);
width = 1266;
},
{
anchors = (
{
name = bottom;
pos = (914,0);
},
{
name = center;
pos = (138,350);
},
{
name = ogonek;
pos = (329,0);
},
{
name = top;
pos = (1059,687);
},
{
name = topleft;
pos = (125,700);
},
{
name = topright;
pos = (509,700);
}
);
layerId = "111500BD-850E-4B42-8F02-00848EDACCC3";
shapes = (
{
closed = 1;
nodes = (
(281,0,ls),
(544,0,o),
(710,212,o),
(710,433,cs),
(710,598,o),
(597,700,o),
(417,700,cs),
(195,700,l),
(46,0,l)
);
},
{
closed = 1;
nodes = (
(224,668,l),
(417,668,ls),
(580,668,o),
(675,579,o),
(675,433,cs),
(675,229,o),
(523,32,o),
(281,32,cs),
(88,32,l)
);
},
{
closed = 1;
nodes = (
(1117,0,l),
(1124,31,l),
(772,31,ls),
(765,31,o),
(760,36,o),
(767,42,cs),
(807,78,l),
(1225,501,l),
(1228,524,l),
(820,524,l),
(813,493,l),
(1169,493,ls),
(1177,493,o),
(1181,490,o),
(1172,483,cs),
(1125,443,l),
(710,22,l),
(709,0,l)
);
},
{
closed = 1;
nodes = (
(1060,618,l),
(1182,760,l),
(1148,760,l),
(1072,672,l),
(1053,644,ls),
(1048,637,o),
(1041,638,o),
(1039,644,cs),
(1030,672,l),
(992,760,l),
(962,760,l),
(1024,618,l)
);
}
);
width = 1230;
}
);
unicode = 453;
},
{
color = 4;
glyphname = Eth;
kernRight = KO_O;
lastChange = "2026-03-20 13:35:31 +0000";
layers = (
{
anchors = (
{
name = bottom;
pos = (267,0);
},
{
name = center;
pos = (222,350);
},
{
name = ogonek;
pos = (366,0);
},
{
name = top;
pos = (446,700);
},
{
name = topleft;
pos = (163,700);
},
{
name = topright;
pos = (546,700);
}
);
layerId = "3917E251-E52F-4C58-ACE3-A75BE580C29C";
shapes = (
{
closed = 1;
nodes = (
(366,0,ls),
(598,0,o),
(781,170,o),
(781,397,cs),
(781,586,o),
(631,700,o),
(439,700,cs),
(170,700,l),
(110,422,l),
(52,422,l),
(19,268,l),
(77,268,l),
(20,0,l)
);
},
{
closed = 1;
nodes = (
(287,268,l),
(392,268,l),
(425,422,l),
(320,422,l),
(341,520,l),
(439,520,ls),
(525,520,o),
(576,476,o),
(576,397,cs),
(576,285,o),
(499,180,o),
(366,180,cs),
(268,180,l)
);
}
);
width = 800;
},
{
anchors = (
{
name = bottom;
pos = (315,0);
},
{
name = center;
pos = (191,350);
},
{
name = ogonek;
pos = (320,0);
},
{
name = top;
pos = (435,700);
},
{
name = topleft;
pos = (117,700);
},
{
name = topright;
pos = (509,700);
}
);
layerId = "CB50C8AE-8F70-48CF-8EC5-5F1FEE22C006";
shapes = (
{
closed = 1;
nodes = (
(346,0,ls),
(591,0,o),
(748,204,o),
(748,423,cs),
(748,601,o),
(623,700,o),
(453,700,cs),
(212,700,l),
(147,392,l),
(47,392,l),
(29,308,l),
(129,308,l),
(63,0,l)
);
},
{
closed = 1;
nodes = (
(235,308,l),
(335,308,l),
(353,392,l),
(253,392,l),
(298,603,l),
(453,603,ls),
(576,603,o),
(643,535,o),
(643,424,cs),
(643,265,o),
(537,97,o),
(346,97,cs),
(190,97,l)
);
}
);
width = 774;
},
{
anchors = (
{
name = bottom;
pos = (308,0);
},
{
name = center;
pos = (169,350);
},
{
name = ogonek;
pos = (360,0);
},
{
name = top;
pos = (452,700);
},
{
name = topleft;
pos = (156,700);
},
{
name = topright;
pos = (540,700);
}
);
layerId = "111500BD-850E-4B42-8F02-00848EDACCC3";
shapes = (
{
closed = 1;
nodes = (
(312,0,ls),
(575,0,o),
(741,212,o),
(741,433,cs),
(741,598,o),
(628,700,o),
(448,700,cs),
(226,700,l),
(155,364,l),
(42,364,l),
(36,336,l),
(148,336,l),
(77,0,l)
);
},
{
closed = 1;
nodes = (
(184,336,l),
(295,336,l),
(301,364,l),
(190,364,l),
(255,668,l),
(448,668,ls),
(611,668,o),
(706,579,o),
(706,433,cs),
(706,229,o),
(554,32,o),
(312,32,cs),
(119,32,l)
);
}
);
width = 778;
}
);
metricLeft = t;
unicode = 208;
userData = {
com.schriftgestaltung.Glyphs.rightMetricsKey = O;
};
},
{
glyphname = E;
kernLeft = KO_H;
kernRight = KO_E;
lastChange = "2026-03-20 13:35:31 +0000";
layers = (
{
anchors = (
{
name = bottom;
pos = (271,0);
},
{
name = ogonek;
pos = (522,0);
},
{
name = top;
pos = (429,700);
},
{
name = topleft;
pos = (140,700);
}
);
layerId = "3917E251-E52F-4C58-ACE3-A75BE580C29C";
shapes = (
{
closed = 1;
nodes = (
(547,0,l),
(582,165,l),
(253,165,l),
(276,273,l),
(567,273,l),
(600,427,l),
(309,427,l),
(332,535,l),
(661,535,l),
(696,700,l),
(167,700,l),
(18,0,l)
);
}
);
width = 657;
},
{
anchors = (
{
name = bottom;
pos = (256,0);
},
{
name = ogonek;
pos = (472,0);
},
{
name = top;
pos = (408,700);
},
{
name = topleft;
pos = (112,700);
}
);
layerId = "CB50C8AE-8F70-48CF-8EC5-5F1FEE22C006";
shapes = (
{
closed = 1;
nodes = (
(506,0,l),
(527,97,l),
(154,97,l),
(198,304,l),
(553,304,l),
(572,396,l),
(217,396,l),
(261,603,l),
(634,603,l),
(655,700,l),
(181,700,l),
(32,0,l)
);
}
);
width = 624;
},
{
anchors = (
{
name = bottom;
pos = (252,0);
},
{
name = ogonek;
pos = (451,0);
},
{
name = top;
pos = (400,700);
},
{
name = topleft;
pos = (107,700);
}
);
layerId = "111500BD-850E-4B42-8F02-00848EDACCC3";
shapes = (
{
closed = 1;
nodes = (
(474,0,l),
(480,32,l),
(87,32,l),
(152,334,l),
(527,334,l),
(533,366,l),
(158,366,l),
(223,668,l),
(616,668,l),
(622,700,l),
(194,700,l),
(46,0,l)
);
}
);
width = 594;
}
);
metricLeft = H;
unicode = 69;
userData = {
KernOnName = E;
com.schriftgestaltung.Glyphs.ColorIndex = 3;
com.schriftgestaltung.Glyphs.layer.leftMetricsKey = "==H";
com.schriftgestaltung.Glyphs.leftMetricsKey = H;
};
},
{
glyphname = Schwa;
kernRight = KO_O;
lastChange = "2026-03-20 13:35:31 +0000";
layers = (
{
anchors = (
{
name = "abkhasian-hook.case";
pos = (662,412);
},
{
name = bottom;
pos = (311,0);
},
{
name = top;
pos = (454,700);
}
);
background = {
shapes = (
{
pos = (-24,0);
ref = O;
}
);
};
layerId = "3917E251-E52F-4C58-ACE3-A75BE580C29C";
shapes = (
{
closed = 1;
nodes = (
(596,-12,o),
(748,185,o),
(748,399,cs),
(748,593,o),
(610,712,o),
(421,712,cs),
(334,712,o),
(244,696,o),
(172,665,c),
(151,503,l),
(218,538,o),
(289,554,o),
(362,554,cs),
(488,554,o),
(554,499,o),
(554,397,cs),
(554,267,o),
(499,148,o),
(351,148,cs),
(253,148,o),
(215,195,o),
(221,258,c),
(629,258,l),
(662,412,l),
(83,412,l),
(43,304,l),
(12,160,o),
(121,-12,o),
(346,-12,cs)
);
}
);
width = 767;
},
{
anchors = (
{
name = "abkhasian-hook.case";
pos = (654,367);
},
{
name = bottom;
pos = (365,0);
},
{
name = top;
pos = (455,700);
}
);
layerId = "CB50C8AE-8F70-48CF-8EC5-5F1FEE22C006";
shapes = (
{
closed = 1;
nodes = (
(588,-12,o),
(736,208,o),
(736,419,cs),
(736,583,o),
(634,712,o),
(434,712,cs),
(347,712,o),
(255,691,o),
(178,645,c),
(190,554,l),
(261,598,o),
(343,616,o),
(405,616,cs),
(560,616,o),
(630,537,o),
(630,419,cs),
(630,251,o),
(519,84,o),
(346,84,cs),
(186,84,o),
(148,191,o),
(157,286,c),
(638,286,l),
(654,367,l),
(75,367,l),
(60,317,l),
(34,190,o),
(90,-12,o),
(345,-12,cs)
);
}
);
width = 763;
},
{
anchors = (
{
name = "abkhasian-hook.case";
pos = (689,331);
},
{
name = bottom;
pos = (325,0);
},
{
name = top;
pos = (465,700);
}
);
layerId = "111500BD-850E-4B42-8F02-00848EDACCC3";
shapes = (
{
closed = 1;
nodes = (
(605,-12,o),
(722,235,o),
(722,425,cs),
(722,580,o),
(644,712,o),
(440,712,cs),
(344,712,o),
(272,690,o),
(189,642,c),
(199,613,l),
(285,664,o),
(355,680,o),
(436,680,cs),
(619,680,o),
(687,566,o),
(687,425,cs),
(687,247,o),
(580,20,o),
(338,20,cs),
(127,20,o),
(89,193,o),
(103,301,c),
(682,301,l),
(689,331,l),
(81,331,l),
(72,305,l),
(51,183,o),
(100,-12,o),
(338,-12,cs)
);
}
);
width = 761;
}
);
metricLeft = O;
metricRight = O;
unicode = 399;
},
{
glyphname = Ezh;
lastChange = "2026-03-20 13:35:31 +0000";
layers = (
{
anchors = (
{
name = bottom;
pos = (248,0);
},
{
name = top;
pos = (397,700);
}
);
background = {
shapes = (
{
ref = three;
}
);
};
layerId = "3917E251-E52F-4C58-ACE3-A75BE580C29C";
shapes = (
{
closed = 1;
nodes = (
(417,-11,o),
(573,43,o),
(603,185,cs),
(628,298,o),
(541,418,o),
(363,424,c),
(395,377,l),
(638,559,l),
(668,700,l),
(140,700,l),
(104,530,l),
(332,530,ls),
(347,530,o),
(350,517,o),
(335,507,cs),
(294,485,l),
(198,410,l),
(173,292,l),
(280,292,ls),
(388,292,o),
(418,261,o),
(411,225,cs),
(402,183,o),
(351,161,o),
(269,161,cs),
(193,161,o),
(130,170,o),
(66,224,c),
(-22,69,l),
(41,17,o),
(130,-11,o),
(259,-11,cs)
);
}
);
width = 663;
},
{
anchors = (
{
name = bottom;
pos = (247,0);
},
{
name = top;
pos = (396,700);
}
);
layerId = "CB50C8AE-8F70-48CF-8EC5-5F1FEE22C006";
shapes = (
{
closed = 1;
nodes = (
(374,-8,o),
(520,40,o),
(550,179,cs),
(580,320,o),
(469,410,o),
(277,412,c),
(308,381,l),
(622,636,l),
(636,700,l),
(164,700,l),
(146,611,l),
(448,611,ls),
(458,611,o),
(462,606,o),
(450,599,cs),
(402,566,l),
(196,385,l),
(182,325,l),
(267,325,ls),
(403,325,o),
(460,272,o),
(444,195,cs),
(430,129,o),
(355,87,o),
(260,87,cs),
(168,87,o),
(97,111,o),
(48,153,c),
(-2,73,l),
(44,36,o),
(138,-8,o),
(244,-8,cs)
);
}
);
width = 634;
},
{
anchors = (
{
name = bottom;
pos = (251,0);
},
{
name = top;
pos = (400,700);
}
);
layerId = "111500BD-850E-4B42-8F02-00848EDACCC3";
shapes = (
{
closed = 1;
nodes = (
(388,-8,o),
(511,58,o),
(535,170,cs),
(562,299,o),
(471,398,o),
(243,393,c),
(254,380,l),
(635,685,l),
(638,700,l),
(189,700,l),
(183,669,l),
(561,669,ls),
(568,669,o),
(570,664,o),
(560,658,cs),
(510,624,l),
(212,381,l),
(209,363,l),
(253,363,ls),
(442,363,o),
(523,288,o),
(500,178,cs),
(479,83,o),
(371,24,o),
(241,24,cs),
(157,24,o),
(70,52,o),
(21,94,c),
(2,68,l),
(57,23,o),
(150,-8,o),
(235,-8,cs)
);
}
);
width = 635;
}
);
metricRight = B;
unicode = 439;
},
{
glyphname = F;
kernLeft = KO_H;
kernRight = KO_F;
lastChange = "2026-03-20 13:35:31 +0000";
layers = (
{
anchors = (
{
name = bottom;
pos = (229,0);
},
{
name = center;
pos = (172,124);
},
{
name = ogonek;
pos = (522,0);
},
{
name = top;
pos = (378,700);
},
{
name = topleft;
pos = (140,700);
}
);
layerId = "3917E251-E52F-4C58-ACE3-A75BE580C29C";
shapes = (
{
closed = 1;
nodes = (
(223,0,l),
(277,255,l),
(563,255,l),
(597,415,l),
(311,415,l),
(334,520,l),
(658,520,l),
(696,700,l),
(167,700,l),
(18,0,l)
);
}
);
width = 643;
},
{
anchors = (
{
name = bottom;
pos = (211,0);
},
{
name = center;
pos = (130,160);
},
{
name = ogonek;
pos = (472,0);
},
{
name = top;
pos = (360,700);
},
{
name = topleft;
pos = (112,700);
}
);
layerId = "CB50C8AE-8F70-48CF-8EC5-5F1FEE22C006";
shapes = (
{
closed = 1;
nodes = (
(133,0,l),
(198,304,l),
(553,304,l),
(572,396,l),
(217,396,l),
(261,603,l),
(634,603,l),
(655,700,l),
(181,700,l),
(32,0,l)
);
}
);
width = 607;
},
{
anchors = (
{
name = bottom;
pos = (204,0);
},
{
name = center;
pos = (128,176);
},
{
name = ogonek;
pos = (451,0);
},
{
name = top;
pos = (352,700);
},
{
name = topleft;
pos = (107,700);
}
);
layerId = "111500BD-850E-4B42-8F02-00848EDACCC3";
shapes = (
{
closed = 1;
nodes = (
(79,0,l),
(150,334,l),
(527,334,l),
(533,366,l),
(157,366,l),
(221,668,l),
(616,668,l),
(622,700,l),
(194,700,l),
(46,0,l)
);
}
);
width = 580;
}
);
metricLeft = H;
unicode = 70;
userData = {
KernOnName = F;
com.schriftgestaltung.Glyphs.ColorIndex = 3;
com.schriftgestaltung.Glyphs.layer.leftMetricsKey = "==H";
com.schriftgestaltung.Glyphs.leftMetricsKey = H;
};
},
{
glyphname = G;
kernLeft = KO_O;
kernRight = KO_G;
lastChange = "2026-03-20 13:35:31 +0000";
layers = (
{
anchors = (
{
name = bottom;
pos = (353,0);
},
{
name = top;
pos = (501,700);
}
);
background = {
shapes = (
{
pos = (-13,0);
ref = O;
},
{
pos = (-13,0);
ref = C;
}
);
};
layerId = "3917E251-E52F-4C58-ACE3-A75BE580C29C";
shapes = (
{
closed = 1;
nodes = (
(471,-12,o),
(567,11,o),
(652,54,c),
(732,426,l),
(445,426,l),
(411,266,l),
(517,266,l),
(495,171,l),
(471,164,o),
(445,161,o),
(421,161,cs),
(315,161,o),
(255,209,o),
(255,293,cs),
(255,418,o),
(321,540,o),
(500,540,cs),
(560,540,o),
(623,523,o),
(659,504,c),
(749,650,l),
(686,690,o),
(608,712,o),
(520,712,cs),
(178,712,o),
(51,502,o),
(51,287,cs),
(51,100,o),
(179,-12,o),
(368,-12,cs)
);
}
);
width = 765;
},
{
anchors = (
{
name = bottom;
pos = (383,0);
},
{
name = top;
pos = (470,700);
}
);
layerId = "CB50C8AE-8F70-48CF-8EC5-5F1FEE22C006";
shapes = (
{
closed = 1;
nodes = (
(448,-12,o),
(535,10,o),
(609,57,c),
(682,398,l),
(417,398,l),
(397,302,l),
(566,302,l),
(525,115,l),
(484,95,o),
(436,84,o),
(383,84,cs),
(238,84,o),
(171,171,o),
(171,289,cs),
(171,437,o),
(247,618,o),
(462,616,cs),
(551,615,o),
(609,589,o),
(651,544,c),
(700,630,l),
(644,684,o),
(578,712,o),
(473,712,cs),
(192,712,o),
(66,500,o),
(66,288,cs),
(66,104,o),
(192,-12,o),
(368,-12,cs)
);
}
);
width = 761;
},
{
anchors = (
{
name = bottom;
pos = (370,0);
},
{
name = top;
pos = (483,700);
}
);
layerId = "111500BD-850E-4B42-8F02-00848EDACCC3";
shapes = (
{
closed = 1;
nodes = (
(453,-12,o),
(534,13,o),
(604,61,c),
(669,366,l),
(398,366,l),
(392,334,l),
(629,334,l),
(573,76,l),
(517,40,o),
(447,20,o),
(362,20,cs),
(189,20,o),
(110,123,o),
(110,254,cs),
(110,428,o),
(192,681,o),
(479,681,cs),
(565,681,o),
(642,646,o),
(683,603,c),
(699,633,l),
(646,684,o),
(572,713,o),
(480,713,cs),
(166,713,o),
(75,440,o),
(75,253,cs),
(75,105,o),
(169,-12,o),
(360,-12,cs)
);
}
);
width = 742;
}
);
metricLeft = O;
unicode = 71;
userData = {
KernOnName = G;
com.schriftgestaltung.Glyphs.ColorIndex = 3;
com.schriftgestaltung.Glyphs.layer.leftMetricsKey = "==O";
com.schriftgestaltung.Glyphs.leftMetricsKey = O;
};
},
{
glyphname = Gstroke;
lastChange = "2026-03-20 13:35:31 +0000";
layers = (
{
background = {
anchors = (
{
name = bottom;
pos = (344,0);
},
{
name = top;
pos = (344,700);
}
);
shapes = (
{
ref = G;
}
);
};
layerId = "3917E251-E52F-4C58-ACE3-A75BE580C29C";
shapes = (
{
closed = 1;
nodes = (
(763,223,l),
(797,383,l),
(470,383,l),
(436,223,l)
);
},
{
closed = 1;
nodes = (
(471,-12,o),
(567,11,o),
(652,54,c),
(732,426,l),
(551,426,l),
(495,171,l),
(471,164,o),
(445,161,o),
(421,161,cs),
(315,161,o),
(255,209,o),
(255,293,cs),
(255,418,o),
(321,540,o),
(500,540,cs),
(560,540,o),
(623,523,o),
(659,504,c),
(749,650,l),
(686,690,o),
(608,712,o),
(520,712,cs),
(178,712,o),
(51,502,o),
(51,287,cs),
(51,100,o),
(179,-12,o),
(368,-12,cs)
);
}
);
width = 794;
},
{
layerId = "CB50C8AE-8F70-48CF-8EC5-5F1FEE22C006";
shapes = (
{
closed = 1;
nodes = (
(734,208,l),
(754,305,l),
(472,305,l),
(452,208,l)
);
},
{
closed = 1;
nodes = (
(448,-12,o),
(535,10,o),
(609,57,c),
(682,398,l),
(586,398,l),
(525,115,l),
(484,95,o),
(436,84,o),
(383,84,cs),
(238,84,o),
(171,171,o),
(171,289,cs),
(171,437,o),
(247,618,o),
(462,616,cs),
(551,615,o),
(609,589,o),
(651,544,c),
(700,630,l),
(644,684,o),
(578,712,o),
(473,712,cs),
(192,712,o),
(66,500,o),
(66,288,cs),
(66,104,o),
(192,-12,o),
(368,-12,cs)
);
}
);
width = 767;
},
{
layerId = "111500BD-850E-4B42-8F02-00848EDACCC3";
shapes = (
{
closed = 1;
nodes = (
(742,196,l),
(748,228,l),
(497,228,l),
(491,196,l)
);
},
{
closed = 1;
nodes = (
(453,-12,o),
(534,13,o),
(604,61,c),
(669,366,l),
(635,366,l),
(573,76,l),
(517,40,o),
(447,20,o),
(362,20,cs),
(189,20,o),
(110,123,o),
(110,254,cs),
(110,428,o),
(192,681,o),
(479,681,cs),
(565,681,o),
(642,646,o),
(683,603,c),
(699,633,l),
(646,684,o),
(572,713,o),
(480,713,cs),
(166,713,o),
(75,440,o),
(75,253,cs),
(75,105,o),
(169,-12,o),
(360,-12,cs)
);
}
);
width = 776;
}
);
unicode = 484;
},
{
glyphname = H;
kernLeft = KO_H;
kernRight = KO_H;
lastChange = "2026-03-20 13:35:31 +0000";
layers = (
{
anchors = (
{
name = bottom;
pos = (338,0);
},
{
name = bottomright;
pos = (658,0);
},
{
name = center;
pos = (454,572);
},
{
name = top;
pos = (487,700);
},
{
name = topleft;
pos = (167,700);
},
{
name = topright;
pos = (807,700);
}
);
layerId = "3917E251-E52F-4C58-ACE3-A75BE580C29C";
shapes = (
{
closed = 1;
nodes = (
(228,0,l),
(284,264,l),
(504,264,l),
(448,0,l),
(658,0,l),
(807,700,l),
(597,700,l),
(540,434,l),
(320,434,l),
(377,700,l),
(167,700,l),
(18,0,l)
);
}
);
width = 792;
},
{
anchors = (
{
name = bottom;
pos = (314,0);
},
{
name = bottomright;
pos = (595,0);
},
{
name = center;
pos = (427,551);
},
{
name = top;
pos = (462,700);
},
{
name = topleft;
pos = (112,700);
},
{
name = topright;
pos = (744,700);
}
);
layerId = "CB50C8AE-8F70-48CF-8EC5-5F1FEE22C006";
shapes = (
{
closed = 1;
nodes = (
(140,0,l),
(204,302,l),
(551,302,l),
(487,0,l),
(595,0,l),
(744,700,l),
(636,700,l),
(572,398,l),
(225,398,l),
(289,700,l),
(181,700,l),
(32,0,l)
);
}
);
width = 741;
},
{
anchors = (
{
name = bottom;
pos = (298,0);
},
{
name = bottomright;
pos = (549,0);
},
{
name = center;
pos = (411,537);
},
{
name = top;
pos = (446,700);
},
{
name = topleft;
pos = (113,700);
},
{
name = topright;
pos = (697,700);
}
);
layerId = "111500BD-850E-4B42-8F02-00848EDACCC3";
shapes = (
{
closed = 1;
nodes = (
(81,0,l),
(152,334,l),
(585,334,l),
(514,0,l),
(549,0,l),
(697,700,l),
(662,700,l),
(591,366,l),
(158,366,l),
(229,700,l),
(194,700,l),
(46,0,l)
);
}
);
width = 706;
}
);
unicode = 72;
userData = {
KernOnName = H;
com.schriftgestaltung.Glyphs.ColorIndex = 3;
};
},
{
glyphname = Hbar;
lastChange = "2026-03-20 13:35:31 +0000";
layers = (
{
background = {
shapes = (
{
closed = 1;
nodes = (
(906,492,l),
(936,636,l),
(97,636,l),
(67,492,l)
);
}
);
};
layerId = "3917E251-E52F-4C58-ACE3-A75BE580C29C";
shapes = (
{
alignment = -1;
pos = (48,0);
ref = H;
},
{
closed = 1;
nodes = (
(906,492,l),
(936,636,l),
(97,636,l),
(67,492,l)
);
}
);
width = 879;
},
{
layerId = "CB50C8AE-8F70-48CF-8EC5-5F1FEE22C006";
shapes = (
{
alignment = -1;
pos = (47,0);
ref = H;
},
{
closed = 1;
nodes = (
(853,495,l),
(871,577,l),
(86,577,l),
(68,495,l)
);
}
);
width = 824;
},
{
layerId = "111500BD-850E-4B42-8F02-00848EDACCC3";
shapes = (
{
alignment = -1;
pos = (43,0);
ref = H;
},
{
closed = 1;
nodes = (
(817,502,l),
(823,532,l),
(77,532,l),
(71,502,l)
);
}
);
width = 786;
}
);
metricLeft = t;
metricRight = "=|t";
unicode = 294;
},
{
color = 4;
glyphname = I;
kernLeft = KO_I;
kernRight = KO_I;
lastChange = "2026-03-20 13:35:31 +0000";
layers = (
{
anchors = (
{
name = bottom;
pos = (123,0);
},
{
name = ogonek;
pos = (228,0);
},
{
name = top;
pos = (272,700);
},
{
name = topleft;
pos = (111,700);
}
);
layerId = "3917E251-E52F-4C58-ACE3-A75BE580C29C";
shapes = (
{
closed = 1;
nodes = (
(228,0,l),
(377,700,l),
(167,700,l),
(18,0,l)
);
}
);
width = 362;
},
{
anchors = (
{
name = bottom;
pos = (86,0);
},
{
name = ogonek;
pos = (139,0);
},
{
name = top;
pos = (235,700);
},
{
name = topleft;
pos = (112,700);
}
);
layerId = "CB50C8AE-8F70-48CF-8EC5-5F1FEE22C006";
shapes = (
{
closed = 1;
nodes = (
(139,0,l),
(288,700,l),
(181,700,l),
(32,0,l)
);
}
);
width = 285;
},
{
anchors = (
{
name = bottom;
pos = (64,0);
},
{
name = ogonek;
pos = (81,0);
},
{
name = top;
pos = (212,700);
},
{
name = topleft;
pos = (113,700);
}
);
layerId = "111500BD-850E-4B42-8F02-00848EDACCC3";
shapes = (
{
closed = 1;
nodes = (
(81,0,l),
(229,700,l),
(194,700,l),
(46,0,l)
);
}
);
width = 237;
}
);
unicode = 73;
userData = {
KernOnName = I;
com.schriftgestaltung.Glyphs.ColorIndex = 3;
};
},
{
glyphname = Istroke;
lastChange = "2026-03-25 15:35:15 +0000";
layers = (
{
anchors = (
{
name = bottom;
pos = (203,0);
},
{
name = ogonek;
pos = (308,0);
},
{
name = top;
pos = (352,700);
},
{
name = topleft;
pos = (191,700);
}
);
layerId = "3917E251-E52F-4C58-ACE3-A75BE580C29C";
shapes = (
{
closed = 1;
nodes = (
(308,0,l),
(457,700,l),
(247,700,l),
(98,0,l)
);
},
{
closed = 1;
nodes = (
(453,294,l),
(486,448,l),
(113,448,l),
(80,294,l)
);
}
);
width = 525;
},
{
anchors = (
{
name = bottom;
pos = (179,0);
},
{
name = ogonek;
pos = (232,0);
},
{
name = top;
pos = (328,700);
},
{
name = topleft;
pos = (205,700);
}
);
layerId = "CB50C8AE-8F70-48CF-8EC5-5F1FEE22C006";
shapes = (
{
closed = 1;
nodes = (
(232,0,l),
(381,700,l),
(274,700,l),
(125,0,l)
);
},
{
closed = 1;
nodes = (
(406,318,l),
(424,402,l),
(117,402,l),
(99,318,l)
);
}
);
width = 485;
},
{
anchors = (
{
name = bottom;
pos = (157,0);
},
{
name = ogonek;
pos = (174,0);
},
{
name = top;
pos = (305,700);
},
{
name = topleft;
pos = (206,700);
}
);
layerId = "111500BD-850E-4B42-8F02-00848EDACCC3";
shapes = (
{
closed = 1;
nodes = (
(174,0,l),
(322,700,l),
(287,700,l),
(139,0,l)
);
},
{
closed = 1;
nodes = (
(364,334,l),
(370,363,l),
(110,363,l),
(104,334,l)
);
}
);
width = 462;
}
);
metricLeft = I;
metricRight = I;
unicode = 407;
},
{
glyphname = J;
kernLeft = KO_J;
kernRight = KO_J;
lastChange = "2026-03-20 13:35:31 +0000";
layers = (
{
anchors = (
{
name = bottom;
pos = (156,0);
},
{
name = top;
pos = (438,700);
}
);
layerId = "3917E251-E52F-4C58-ACE3-A75BE580C29C";
shapes = (
{
closed = 1;
nodes = (
(313,-12,o),
(414,69,o),
(448,225,cs),
(549,700,l),
(339,700,l),
(242,259,ls),
(229,201,o),
(197,171,o),
(146,171,cs),
(112,171,o),
(84,175,o),
(55,194,c),
(-41,33,l),
(2,5,o),
(72,-12,o),
(138,-12,cs)
);
}
);
width = 534;
},
{
anchors = (
{
name = bottom;
pos = (157,0);
},
{
name = top;
pos = (415,700);
}
);
layerId = "CB50C8AE-8F70-48CF-8EC5-5F1FEE22C006";
shapes = (
{
closed = 1;
nodes = (
(253,-12,o),
(331,57,o),
(356,172,cs),
(469,700,l),
(362,700,l),
(255,194,ls),
(238,117,o),
(193,85,o),
(131,85,cs),
(84,85,o),
(36,102,o),
(12,127,c),
(-34,50,l),
(0,14,o),
(59,-12,o),
(131,-12,cs)
);
}
);
width = 466;
},
{
anchors = (
{
name = bottom;
pos = (159,0);
},
{
name = top;
pos = (396,700);
}
);
layerId = "111500BD-850E-4B42-8F02-00848EDACCC3";
shapes = (
{
closed = 1;
nodes = (
(195,-12,o),
(274,39,o),
(295,140,cs),
(414,700,l),
(379,700,l),
(261,148,ls),
(242,60,o),
(177,20,o),
(103,20,cs),
(46,20,o),
(-2,45,o),
(-18,68,c),
(-33,41,l),
(-15,17,o),
(36,-12,o),
(103,-12,cs)
);
}
);
width = 422;
}
);
metricRight = H;
unicode = 74;
userData = {
KernOnName = J;
com.schriftgestaltung.Glyphs.ColorIndex = 3;
com.schriftgestaltung.Glyphs.layer.rightMetricsKey = "==H";
com.schriftgestaltung.Glyphs.rightMetricsKey = H;
com.typemytype.robofont.layerData = {
background = {
anchors = (
);
components = (
);
contours = (
{
points = (
{
segmentType = line;
smooth = 0;
x = 455;
y = 700;
},
{
segmentType = line;
smooth = 0;
x = 313;
y = 700;
},
{
segmentType = line;
smooth = 0;
x = 313;
y = 190;
},
{
smooth = 0;
x = 313;
y = 157;
},
{
smooth = 0;
x = 305;
y = 116;
},
{
segmentType = curve;
smooth = 1;
x = 254;
y = 116;
},
{
smooth = 0;
x = 209;
y = 116;
},
{
smooth = 0;
x = 185;
y = 123;
},
{
segmentType = curve;
smooth = 0;
x = 153;
y = 139;
},
{
segmentType = line;
smooth = 0;
x = 127;
y = 19;
},
{
smooth = 0;
x = 162;
y = -1;
},
{
smooth = 0;
x = 210;
y = -12;
},
{
segmentType = curve;
smooth = 1;
x = 254;
y = -12;
},
{
smooth = 0;
x = 425;
y = -12;
},
{
smooth = 0;
x = 455;
y = 97;
},
{
segmentType = curve;
smooth = 0;
x = 455;
y = 190;
}
);
}
);
lib = {
};
name = J;
unicodes = (
);
width = 447;
};
};
};
},
{
glyphname = K;
kernLeft = KO_H;
kernRight = KO_K;
lastChange = "2026-03-20 13:35:31 +0000";
layers = (
{
anchors = (
{
name = bottom;
pos = (327,0);
},
{
name = bottomright;
pos = (607,0);
},
{
name = center;
pos = (238,586);
},
{
name = top;
pos = (476,700);
},
{
name = topleft;
pos = (167,700);
}
);
background = {
shapes = (
{
ref = H;
}
);
};
layerId = "3917E251-E52F-4C58-ACE3-A75BE580C29C";
shapes = (
{
closed = 1;
nodes = (
(228,0,l),
(285,270,l),
(487,270,l),
(810,700,l),
(576,700,l),
(375,430,l),
(319,430,l),
(377,700,l),
(167,700,l),
(18,0,l)
);
},
{
closed = 1;
nodes = (
(667,0,l),
(532,412,l),
(363,284,l),
(451,0,l)
);
}
);
width = 746;
},
{
anchors = (
{
name = bottom;
pos = (273,0);
},
{
name = bottomright;
pos = (517,0);
},
{
name = center;
pos = (206,572);
},
{
name = top;
pos = (422,700);
},
{
name = topleft;
pos = (181,700);
}
);
layerId = "CB50C8AE-8F70-48CF-8EC5-5F1FEE22C006";
shapes = (
{
closed = 1;
nodes = (
(139,0,l),
(204,305,l),
(332,305,l),
(704,700,l),
(582,700,l),
(298,396,l),
(224,396,l),
(288,700,l),
(181,700,l),
(32,0,l)
);
},
{
closed = 1;
nodes = (
(583,0,l),
(375,384,l),
(300,316,l),
(470,0,l)
);
}
);
width = 668;
},
{
anchors = (
{
name = bottom;
pos = (249,0);
},
{
name = bottomright;
pos = (500,0);
},
{
name = center;
pos = (180,547);
},
{
name = top;
pos = (397,700);
},
{
name = topleft;
pos = (194,700);
}
);
layerId = "111500BD-850E-4B42-8F02-00848EDACCC3";
shapes = (
{
closed = 1;
nodes = (
(80,0,l),
(151,334,l),
(282,334,l),
(644,700,l),
(601,700,l),
(271,366,l),
(158,366,l),
(229,700,l),
(194,700,l),
(46,0,l)
);
},
{
closed = 1;
nodes = (
(522,0,l),
(295,364,l),
(271,340,l),
(483,0,l)
);
}
);
width = 609;
}
);
metricLeft = H;
unicode = 75;
userData = {
com.schriftgestaltung.Glyphs.ColorIndex = 3;
com.schriftgestaltung.Glyphs.layer.leftMetricsKey = "==H";
com.schriftgestaltung.Glyphs.leftMetricsKey = H;
};
},
{
glyphname = L;
kernLeft = KO_H;
kernRight = KO_L;
lastChange = "2026-03-20 13:35:31 +0000";
layers = (
{
anchors = (
{
name = bottom;
pos = (274,0);
},
{
name = center;
pos = (212,416);
},
{
name = top;
pos = (273,700);
},
{
name = topright;
pos = (512,700);
}
);
layerId = "3917E251-E52F-4C58-ACE3-A75BE580C29C";
shapes = (
{
closed = 1;
nodes = (
(536,0,l),
(574,180,l),
(268,180,l),
(379,700,l),
(167,700,l),
(18,0,l)
);
}
);
width = 604;
},
{
anchors = (
{
name = bottom;
pos = (276,0);
},
{
name = center;
pos = (162,355);
},
{
name = top;
pos = (236,700);
},
{
name = topright;
pos = (489,700);
}
);
layerId = "CB50C8AE-8F70-48CF-8EC5-5F1FEE22C006";
shapes = (
{
closed = 1;
nodes = (
(505,0,l),
(525,97,l),
(162,97,l),
(290,700,l),
(181,700,l),
(32,0,l)
);
}
);
width = 568;
},
{
anchors = (
{
name = bottom;
pos = (264,0);
},
{
name = center;
pos = (150,408);
},
{
name = top;
pos = (212,700);
},
{
name = topright;
pos = (487,700);
}
);
layerId = "111500BD-850E-4B42-8F02-00848EDACCC3";
shapes = (
{
closed = 1;
nodes = (
(479,0,l),
(485,32,l),
(89,32,l),
(230,700,l),
(194,700,l),
(46,0,l)
);
}
);
width = 540;
}
);
metricLeft = H;
metricRight = T;
unicode = 76;
userData = {
KernOnName = L;
com.schriftgestaltung.Glyphs.ColorIndex = 3;
com.schriftgestaltung.Glyphs.layer.leftMetricsKey = "==H";
com.schriftgestaltung.Glyphs.leftMetricsKey = H;
};
},
{
glyphname = Lj;
lastChange = "2026-03-20 13:35:31 +0000";
layers = (
{
anchors = (
{
name = bottom;
pos = (668,-265);
},
{
name = center;
pos = (212,416);
},
{
name = top;
pos = (882,753);
},
{
name = topright;
pos = (512,700);
}
);
layerId = "3917E251-E52F-4C58-ACE3-A75BE580C29C";
shapes = (
{
closed = 1;
nodes = (
(536,0,l),
(574,180,l),
(268,180,l),
(379,700,l),
(167,700,l),
(18,0,l)
);
},
{
closed = 1;
nodes = (
(648,-238,o),
(796,-172,o),
(831,-10,cs),
(950,546,l),
(669,546,l),
(635,386,l),
(723,386,l),
(644,15,ls),
(633,-34,o),
(581,-62,o),
(513,-62,c),
(528,-235,l)
);
},
{
closed = 1;
nodes = (
(962,618,l),
(990,750,l),
(773,750,l),
(745,618,l)
);
}
);
width = 959;
},
{
anchors = (
{
name = bottom;
pos = (579,-265);
},
{
name = center;
pos = (162,355);
},
{
name = top;
pos = (804,746);
},
{
name = topright;
pos = (489,700);
}
);
layerId = "CB50C8AE-8F70-48CF-8EC5-5F1FEE22C006";
shapes = (
{
closed = 1;
nodes = (
(505,0,l),
(525,97,l),
(162,97,l),
(290,700,l),
(181,700,l),
(32,0,l)
);
},
{
closed = 1;
nodes = (
(578,-209,o),
(673,-141,o),
(705,3,cs),
(821,535,l),
(628,535,l),
(611,449,l),
(700,449,l),
(603,6,ls),
(585,-78,o),
(528,-126,o),
(438,-147,c),
(455,-236,l)
);
},
{
closed = 1;
nodes = (
(831,632,l),
(856,750,l),
(754,750,l),
(729,632,l)
);
}
);
width = 838;
},
{
anchors = (
{
name = bottom;
pos = (493,-265);
},
{
name = center;
pos = (150,408);
},
{
name = top;
pos = (718,709);
},
{
name = topright;
pos = (487,700);
}
);
layerId = "111500BD-850E-4B42-8F02-00848EDACCC3";
shapes = (
{
closed = 1;
nodes = (
(479,0,l),
(485,32,l),
(89,32,l),
(230,700,l),
(194,700,l),
(46,0,l)
);
},
{
closed = 1;
nodes = (
(491,-192,o),
(556,-130,o),
(582,-13,cs),
(700,524,l),
(589,524,l),
(583,493,l),
(658,493,l),
(549,-10,ls),
(529,-108,o),
(475,-167,o),
(354,-207,c),
(365,-233,l)
);
},
{
closed = 1;
nodes = (
(719,632,l),
(744,750,l),
(710,750,l),
(685,632,l)
);
}
);
width = 735;
}
);
unicode = 456;
},
{
color = 9;
glyphname = Lj.ss01;
lastChange = "2026-03-20 13:35:31 +0000";
layers = (
{
anchors = (
{
name = bottom;
pos = (668,-265);
},
{
name = center;
pos = (212,416);
},
{
name = top;
pos = (882,753);
},
{
name = topright;
pos = (512,700);
}
);
layerId = "3917E251-E52F-4C58-ACE3-A75BE580C29C";
shapes = (
{
closed = 1;
nodes = (
(536,0,l),
(574,180,l),
(268,180,l),
(379,700,l),
(167,700,l),
(18,0,l)
);
},
{
closed = 1;
nodes = (
(648,-238,o),
(796,-172,o),
(831,-10,cs),
(950,546,l),
(669,546,l),
(635,386,l),
(723,386,l),
(644,15,ls),
(633,-34,o),
(581,-62,o),
(513,-62,c),
(528,-235,l)
);
},
{
closed = 1;
nodes = (
(962,618,l),
(990,750,l),
(773,750,l),
(745,618,l)
);
}
);
width = 959;
},
{
anchors = (
{
name = bottom;
pos = (579,-265);
},
{
name = center;
pos = (162,355);
},
{
name = top;
pos = (804,746);
},
{
name = topright;
pos = (489,700);
}
);
layerId = "CB50C8AE-8F70-48CF-8EC5-5F1FEE22C006";
shapes = (
{
closed = 1;
nodes = (
(505,0,l),
(525,97,l),
(162,97,l),
(290,700,l),
(181,700,l),
(32,0,l)
);
},
{
closed = 1;
nodes = (
(578,-209,o),
(673,-141,o),
(705,3,cs),
(821,535,l),
(628,535,l),
(611,449,l),
(700,449,l),
(603,6,ls),
(585,-78,o),
(528,-126,o),
(438,-147,c),
(455,-236,l)
);
},
{
closed = 1;
nodes = (
(831,632,l),
(856,750,l),
(754,750,l),
(729,632,l)
);
}
);
width = 838;
},
{
anchors = (
{
name = bottom;
pos = (493,-265);
},
{
name = center;
pos = (150,408);
},
{
name = top;
pos = (718,709);
},
{
name = topright;
pos = (487,700);
}
);
layerId = "111500BD-850E-4B42-8F02-00848EDACCC3";
shapes = (
{
closed = 1;
nodes = (
(479,0,l),
(485,32,l),
(89,32,l),
(230,700,l),
(194,700,l),
(46,0,l)
);
},
{
closed = 1;
nodes = (
(491,-192,o),
(556,-130,o),
(582,-13,cs),
(700,524,l),
(589,524,l),
(583,493,l),
(658,493,l),
(549,-10,ls),
(529,-108,o),
(475,-167,o),
(354,-207,c),
(365,-233,l)
);
},
{
closed = 1;
nodes = (
(719,632,l),
(744,750,l),
(710,750,l),
(685,632,l)
);
}
);
width = 735;
}
);
},
{
color = 4;
glyphname = Lslash;
lastChange = "2026-03-20 13:35:31 +0000";
layers = (
{
background = {
shapes = (
{
pos = (9,0);
ref = L;
}
);
};
layerId = "3917E251-E52F-4C58-ACE3-A75BE580C29C";
shapes = (
{
closed = 1;
nodes = (
(75,225,l),
(27,0,l),
(545,0,l),
(583,180,l),
(277,180,l),
(318,373,l),
(495,480,l),
(534,662,l),
(357,555,l),
(388,700,l),
(176,700,l),
(114,408,l),
(39,363,l),
(0,180,l)
);
}
);
width = 613;
},
{
layerId = "CB50C8AE-8F70-48CF-8EC5-5F1FEE22C006";
shapes = (
{
closed = 1;
nodes = (
(104,289,l),
(42,0,l),
(514,0,l),
(535,97,l),
(172,97,l),
(229,364,l),
(447,496,l),
(468,590,l),
(249,459,l),
(300,700,l),
(191,700,l),
(124,383,l),
(33,329,l),
(13,235,l)
);
}
);
width = 578;
},
{
layerId = "111500BD-850E-4B42-8F02-00848EDACCC3";
shapes = (
{
closed = 1;
nodes = (
(122,332,l),
(52,0,l),
(485,0,l),
(491,32,l),
(94,32,l),
(163,357,l),
(415,508,l),
(422,542,l),
(170,391,l),
(236,700,l),
(200,700,l),
(129,366,l),
(30,307,l),
(23,273,l)
);
}
);
width = 545;
}
);
metricLeft = t;
metricRight = L;
unicode = 321;
},
{
glyphname = M;
kernLeft = KO_H;
kernRight = KO_H;
lastChange = "2026-03-20 13:35:31 +0000";
layers = (
{
anchors = (
{
name = bottom;
pos = (417,0);
},
{
name = bottomright;
pos = (815,0);
},
{
name = top;
pos = (556,700);
}
);
layerId = "3917E251-E52F-4C58-ACE3-A75BE580C29C";
shapes = (
{
closed = 1;
nodes = (
(217,0,l),
(283,309,l),
(277,410,ls),
(277,424,o),
(289,427,o),
(295,416,cs),
(428,161,l),
(491,161,l),
(711,418,ls),
(720,428,o),
(734,421,o),
(729,410,cs),
(682,309,l),
(616,0,l),
(815,0,l),
(964,700,l),
(729,700,l),
(518,444,ls),
(508,432,o),
(496,435,o),
(490,448,cs),
(368,700,l),
(167,700,l),
(18,0,l)
);
}
);
width = 949;
},
{
anchors = (
{
name = bottom;
pos = (384,0);
},
{
name = bottomright;
pos = (734,0);
},
{
name = top;
pos = (533,700);
}
);
layerId = "CB50C8AE-8F70-48CF-8EC5-5F1FEE22C006";
shapes = (
{
closed = 1;
nodes = (
(135,0,l),
(217,381,l),
(229,502,ls),
(230,512,o),
(242,515,o),
(247,506,cs),
(399,201,l),
(452,201,l),
(734,506,ls),
(742,514,o),
(753,513,o),
(750,502,cs),
(712,381,l),
(631,0,l),
(734,0,l),
(883,700,l),
(785,700,l),
(458,343,ls),
(449,334,o),
(441,335,o),
(438,343,cs),
(262,700,l),
(181,700,l),
(32,0,l)
);
}
);
width = 880;
},
{
anchors = (
{
name = bottom;
pos = (359,0);
},
{
name = bottomright;
pos = (672,0);
},
{
name = top;
pos = (507,700);
}
);
layerId = "111500BD-850E-4B42-8F02-00848EDACCC3";
shapes = (
{
closed = 1;
nodes = (
(81,0,l),
(192,519,l),
(209,621,ls),
(211,634,o),
(219,635,o),
(223,625,cs),
(393,247,l),
(421,247,l),
(759,625,ls),
(766,633,o),
(775,633,o),
(773,621,cs),
(747,519,l),
(636,0,l),
(672,0,l),
(820,700,l),
(785,700,l),
(423,295,ls),
(415,286,o),
(408,289,o),
(406,295,cs),
(222,700,l),
(194,700,l),
(46,0,l)
);
}
);
width = 828;
}
);
metricLeft = H;
metricRight = H;
unicode = 77;
userData = {
com.schriftgestaltung.Glyphs.ColorIndex = 3;
com.schriftgestaltung.Glyphs.layer.leftMetricsKey = "==H";
com.schriftgestaltung.Glyphs.layer.rightMetricsKey = "==H";
com.schriftgestaltung.Glyphs.leftMetricsKey = H;
com.schriftgestaltung.Glyphs.rightMetricsKey = H;
};
},
{
glyphname = N;
kernLeft = KO_H;
kernRight = KO_H;
lastChange = "2026-03-20 13:35:31 +0000";
layers = (
{
anchors = (
{
name = bottom;
pos = (387,0);
},
{
name = part.hook;
pos = (18,0);
},
{
name = top;
pos = (507,700);
}
);
background = {
shapes = (
{
pos = (-14,0);
ref = H;
}
);
};
layerId = "3917E251-E52F-4C58-ACE3-A75BE580C29C";
shapes = (
{
closed = 1;
nodes = (
(228,0,l),
(277,231,l),
(287,361,ls),
(288,379,o),
(302,384,o),
(310,369,cs),
(513,0,l),
(699,0,l),
(848,700,l),
(638,700,l),
(589,470,l),
(581,337,ls),
(579,316,o),
(565,312,o),
(555,331,cs),
(365,700,l),
(167,700,l),
(18,0,l)
);
}
);
width = 833;
},
{
anchors = (
{
name = bottom;
pos = (331,0);
},
{
name = part.hook;
pos = (38,0);
},
{
name = top;
pos = (463,700);
}
);
layerId = "CB50C8AE-8F70-48CF-8EC5-5F1FEE22C006";
shapes = (
{
closed = 1;
nodes = (
(134,0,l),
(220,401,l),
(234,524,ls),
(236,536,o),
(247,536,o),
(251,528,cs),
(513,0,l),
(604,0,l),
(753,700,l),
(651,700,l),
(565,300,l),
(551,176,ls),
(549,164,o),
(539,164,o),
(535,172,cs),
(272,700,l),
(181,700,l),
(32,0,l)
);
}
);
width = 750;
},
{
anchors = (
{
name = bottom;
pos = (308,0);
},
{
name = part.hook;
pos = (47,0);
},
{
name = top;
pos = (451,700);
}
);
layerId = "111500BD-850E-4B42-8F02-00848EDACCC3";
shapes = (
{
closed = 1;
nodes = (
(80,0,l),
(195,539,l),
(212,639,ls),
(213,646,o),
(220,651,o),
(224,643,cs),
(523,0,l),
(556,0,l),
(708,700,l),
(674,700,l),
(557,169,l),
(542,63,ls),
(541,55,o),
(533,53,o),
(530,60,cs),
(232,700,l),
(194,700,l),
(46,0,l)
);
}
);
width = 716;
}
);
metricLeft = H;
metricRight = H;
unicode = 78;
userData = {
com.schriftgestaltung.Glyphs.ColorIndex = 3;
com.schriftgestaltung.Glyphs.layer.leftMetricsKey = "==H";
com.schriftgestaltung.Glyphs.layer.rightMetricsKey = "==H";
com.schriftgestaltung.Glyphs.leftMetricsKey = H;
com.schriftgestaltung.Glyphs.rightMetricsKey = H;
};
},
{
glyphname = Nj;
lastChange = "2026-03-20 13:35:31 +0000";
layers = (
{
anchors = (
{
name = bottom;
pos = (908,-265);
},
{
name = part.hook;
pos = (18,0);
},
{
name = top;
pos = (1122,753);
}
);
layerId = "3917E251-E52F-4C58-ACE3-A75BE580C29C";
shapes = (
{
closed = 1;
nodes = (
(228,0,l),
(277,231,l),
(287,361,ls),
(288,379,o),
(302,384,o),
(310,369,cs),
(513,0,l),
(699,0,l),
(848,700,l),
(638,700,l),
(589,470,l),
(581,337,ls),
(579,316,o),
(565,312,o),
(555,331,cs),
(365,700,l),
(167,700,l),
(18,0,l)
);
},
{
closed = 1;
nodes = (
(888,-238,o),
(1036,-172,o),
(1071,-10,cs),
(1190,546,l),
(909,546,l),
(875,386,l),
(963,386,l),
(884,15,ls),
(873,-34,o),
(821,-62,o),
(753,-62,c),
(768,-235,l)
);
},
{
closed = 1;
nodes = (
(1202,618,l),
(1230,750,l),
(1013,750,l),
(985,618,l)
);
}
);
width = 1199;
},
{
anchors = (
{
name = bottom;
pos = (788,-265);
},
{
name = part.hook;
pos = (38,0);
},
{
name = top;
pos = (1013,746);
}
);
layerId = "CB50C8AE-8F70-48CF-8EC5-5F1FEE22C006";
shapes = (
{
closed = 1;
nodes = (
(134,0,l),
(220,401,l),
(234,524,ls),
(236,536,o),
(247,536,o),
(251,528,cs),
(513,0,l),
(604,0,l),
(753,700,l),
(651,700,l),
(565,300,l),
(551,176,ls),
(549,164,o),
(539,164,o),
(535,172,cs),
(272,700,l),
(181,700,l),
(32,0,l)
);
},
{
closed = 1;
nodes = (
(786,-209,o),
(882,-139,o),
(913,3,cs),
(1029,535,l),
(837,535,l),
(820,449,l),
(909,449,l),
(812,6,ls),
(793,-80,o),
(736,-126,o),
(647,-147,c),
(663,-236,l)
);
},
{
closed = 1;
nodes = (
(1039,632,l),
(1064,750,l),
(962,750,l),
(937,632,l)
);
}
);
width = 1047;
},
{
anchors = (
{
name = bottom;
pos = (708,-265);
},
{
name = part.hook;
pos = (47,0);
},
{
name = top;
pos = (933,709);
}
);
layerId = "111500BD-850E-4B42-8F02-00848EDACCC3";
shapes = (
{
closed = 1;
nodes = (
(80,0,l),
(195,539,l),
(212,639,ls),
(213,646,o),
(220,651,o),
(224,643,cs),
(523,0,l),
(556,0,l),
(708,700,l),
(674,700,l),
(557,169,l),
(542,63,ls),
(541,55,o),
(533,53,o),
(530,60,cs),
(232,700,l),
(194,700,l),
(46,0,l)
);
},
{
closed = 1;
nodes = (
(705,-192,o),
(770,-130,o),
(796,-13,cs),
(914,524,l),
(803,524,l),
(797,493,l),
(872,493,l),
(764,-10,ls),
(743,-109,o),
(689,-167,o),
(568,-207,c),
(579,-233,l)
);
},
{
closed = 1;
nodes = (
(934,632,l),
(959,750,l),
(924,750,l),
(899,632,l)
);
}
);
width = 949;
}
);
unicode = 459;
},
{
color = 9;
glyphname = Nj.ss01;
lastChange = "2026-03-20 13:35:31 +0000";
layers = (
{
anchors = (
{
name = bottom;
pos = (908,-265);
},
{
name = part.hook;
pos = (18,0);
},
{
name = top;
pos = (1122,753);
}
);
layerId = "3917E251-E52F-4C58-ACE3-A75BE580C29C";
shapes = (
{
closed = 1;
nodes = (
(228,0,l),
(277,231,l),
(287,361,ls),
(288,379,o),
(302,384,o),
(310,369,cs),
(513,0,l),
(699,0,l),
(848,700,l),
(638,700,l),
(589,470,l),
(581,337,ls),
(579,316,o),
(565,312,o),
(555,331,cs),
(365,700,l),
(167,700,l),
(18,0,l)
);
},
{
closed = 1;
nodes = (
(888,-238,o),
(1036,-172,o),
(1071,-10,cs),
(1190,546,l),
(909,546,l),
(875,386,l),
(963,386,l),
(884,15,ls),
(873,-34,o),
(821,-62,o),
(753,-62,c),
(768,-235,l)
);
},
{
closed = 1;
nodes = (
(1202,618,l),
(1230,750,l),
(1013,750,l),
(985,618,l)
);
}
);
width = 1199;
},
{
anchors = (
{
name = bottom;
pos = (788,-265);
},
{
name = part.hook;
pos = (38,0);
},
{
name = top;
pos = (1013,746);
}
);
layerId = "CB50C8AE-8F70-48CF-8EC5-5F1FEE22C006";
shapes = (
{
closed = 1;
nodes = (
(134,0,l),
(220,401,l),
(234,524,ls),
(236,536,o),
(247,536,o),
(251,528,cs),
(513,0,l),
(604,0,l),
(753,700,l),
(651,700,l),
(565,300,l),
(551,176,ls),
(549,164,o),
(539,164,o),
(535,172,cs),
(272,700,l),
(181,700,l),
(32,0,l)
);
},
{
closed = 1;
nodes = (
(786,-209,o),
(882,-139,o),
(913,3,cs),
(1029,535,l),
(837,535,l),
(820,449,l),
(909,449,l),
(812,6,ls),
(793,-80,o),
(736,-126,o),
(647,-147,c),
(663,-236,l)
);
},
{
closed = 1;
nodes = (
(1039,632,l),
(1064,750,l),
(962,750,l),
(937,632,l)
);
}
);
width = 1047;
},
{
anchors = (
{
name = bottom;
pos = (708,-265);
},
{
name = part.hook;
pos = (47,0);
},
{
name = top;
pos = (933,709);
}
);
layerId = "111500BD-850E-4B42-8F02-00848EDACCC3";
shapes = (
{
closed = 1;
nodes = (
(80,0,l),
(195,539,l),
(212,639,ls),
(213,646,o),
(220,651,o),
(224,643,cs),
(523,0,l),
(556,0,l),
(708,700,l),
(674,700,l),
(557,169,l),
(542,63,ls),
(541,55,o),
(533,53,o),
(530,60,cs),
(232,700,l),
(194,700,l),
(46,0,l)
);
},
{
closed = 1;
nodes = (
(705,-192,o),
(770,-130,o),
(796,-13,cs),
(914,524,l),
(803,524,l),
(797,493,l),
(872,493,l),
(764,-10,ls),
(743,-109,o),
(689,-167,o),
(568,-207,c),
(579,-233,l)
);
},
{
closed = 1;
nodes = (
(934,632,l),
(959,750,l),
(924,750,l),
(899,632,l)
);
}
);
width = 949;
}
);
},
{
glyphname = Eng;
kernLeft = KO_H;
kernRight = KO_H;
lastChange = "2026-03-20 13:35:31 +0000";
layers = (
{
anchors = (
{
name = bottom;
pos = (359,0);
},
{
name = part.hook;
pos = (18,0);
},
{
name = top;
pos = (508,700);
}
);
background = {
shapes = (
{
ref = N;
}
);
};
layerId = "3917E251-E52F-4C58-ACE3-A75BE580C29C";
shapes = (
{
closed = 1;
nodes = (
(228,0,l),
(277,231,l),
(287,361,ls),
(288,379,o),
(302,384,o),
(310,369,cs),
(491,39,l),
(489,31,ls),
(481,3,o),
(452,-29,o),
(401,-29,cs),
(367,-29,o),
(339,-25,o),
(310,-6,c),
(214,-167,l),
(257,-195,o),
(327,-212,o),
(393,-212,cs),
(529,-212,o),
(666,-157,o),
(699,0,cs),
(848,700,l),
(638,700,l),
(589,470,l),
(581,337,ls),
(579,316,o),
(565,312,o),
(555,331,cs),
(365,700,l),
(167,700,l),
(18,0,l)
);
}
);
width = 833;
},
{
anchors = (
{
name = bottom;
pos = (320,0);
},
{
name = part.hook;
pos = (32,0);
},
{
name = top;
pos = (469,700);
}
);
layerId = "CB50C8AE-8F70-48CF-8EC5-5F1FEE22C006";
shapes = (
{
closed = 1;
nodes = (
(134,0,l),
(220,401,l),
(234,524,ls),
(236,536,o),
(247,536,o),
(251,528,cs),
(502,22,l),
(494,-12,ls),
(479,-83,o),
(434,-115,o),
(373,-115,cs),
(326,-115,o),
(278,-98,o),
(254,-73,c),
(208,-150,l),
(242,-186,o),
(300,-212,o),
(373,-212,cs),
(494,-212,o),
(574,-145,o),
(598,-28,cs),
(753,700,l),
(651,700,l),
(565,300,l),
(551,176,ls),
(549,164,o),
(539,164,o),
(535,172,cs),
(272,700,l),
(181,700,l),
(32,0,l)
);
}
);
width = 750;
},
{
anchors = (
{
name = bottom;
pos = (304,0);
},
{
name = part.hook;
pos = (46,0);
},
{
name = top;
pos = (452,700);
}
);
layerId = "111500BD-850E-4B42-8F02-00848EDACCC3";
shapes = (
{
closed = 1;
nodes = (
(80,0,l),
(195,539,l),
(212,639,ls),
(213,646,o),
(220,651,o),
(224,643,cs),
(521,5,l),
(509,-53,ls),
(490,-139,o),
(425,-180,o),
(351,-180,cs),
(294,-180,o),
(246,-155,o),
(230,-132,c),
(215,-159,l),
(233,-183,o),
(284,-212,o),
(351,-212,cs),
(443,-212,o),
(522,-160,o),
(543,-60,cs),
(708,700,l),
(674,700,l),
(557,169,l),
(542,63,ls),
(541,55,o),
(533,53,o),
(530,60,cs),
(232,700,l),
(194,700,l),
(46,0,l)
);
}
);
width = 716;
}
);
metricLeft = N;
metricRight = N;
unicode = 330;
},
{
glyphname = O;
kernLeft = KO_O;
kernRight = KO_O;
lastChange = "2026-03-20 13:35:31 +0000";
layers = (
{
anchors = (
{
name = bottom;
pos = (338,0);
},
{
name = center;
pos = (412,350);
},
{
name = ogonek;
pos = (547,26);
},
{
name = top;
pos = (467,700);
},
{
name = topleft;
pos = (111,700);
},
{
name = topright;
pos = (620,700);
}
);
background = {
shapes = (
{
pos = (13,3);
ref = o;
scale = (1.222,1.2705);
}
);
};
layerId = "3917E251-E52F-4C58-ACE3-A75BE580C29C";
shapes = (
{
closed = 1;
nodes = (
(620,-12,o),
(772,185,o),
(772,399,cs),
(772,593,o),
(634,712,o),
(455,712,cs),
(199,712,o),
(40,500,o),
(52,276,cs),
(61,108,o),
(186,-12,o),
(370,-12,cs)
);
},
{
closed = 1;
nodes = (
(307,168,o),
(255,214,o),
(255,297,cs),
(255,395,o),
(309,532,o),
(439,532,cs),
(523,532,o),
(568,485,o),
(568,397,cs),
(568,305,o),
(519,168,o),
(386,168,cs)
);
}
);
width = 791;
},
{
anchors = (
{
name = bottom;
pos = (326,0);
},
{
name = center;
pos = (400,350);
},
{
name = ogonek;
pos = (550,47);
},
{
name = top;
pos = (475,700);
},
{
name = topleft;
pos = (112,700);
},
{
name = topright;
pos = (580,700);
}
);
layerId = "CB50C8AE-8F70-48CF-8EC5-5F1FEE22C006";
shapes = (
{
closed = 1;
nodes = (
(591,-12,o),
(739,208,o),
(739,419,cs),
(739,583,o),
(640,712,o),
(446,712,cs),
(209,712,o),
(63,493,o),
(63,283,cs),
(63,118,o),
(160,-12,o),
(349,-12,cs)
);
},
{
closed = 1;
nodes = (
(226,84,o),
(169,164,o),
(169,283,cs),
(169,450,o),
(277,616,o),
(446,616,cs),
(575,616,o),
(634,537,o),
(634,419,cs),
(634,251,o),
(522,84,o),
(349,84,cs)
);
}
);
width = 766;
},
{
anchors = (
{
name = bottom;
pos = (331,0);
},
{
name = center;
pos = (405,350);
},
{
name = ogonek;
pos = (538,39);
},
{
name = top;
pos = (479,700);
},
{
name = topleft;
pos = (114,700);
},
{
name = topright;
pos = (577,700);
}
);
layerId = "111500BD-850E-4B42-8F02-00848EDACCC3";
shapes = (
{
closed = 1;
nodes = (
(615,-12,o),
(732,235,o),
(732,425,cs),
(732,580,o),
(654,712,o),
(460,712,cs),
(193,712,o),
(77,466,o),
(77,276,cs),
(77,121,o),
(155,-12,o),
(348,-12,cs)
);
},
{
closed = 1;
nodes = (
(178,20,o),
(112,134,o),
(112,276,cs),
(112,454,o),
(218,680,o),
(460,680,cs),
(630,680,o),
(697,567,o),
(697,425,cs),
(697,247,o),
(590,20,o),
(348,20,cs)
);
}
);
width = 771;
}
);
unicode = 79;
userData = {
KernOnName = O;
com.schriftgestaltung.Glyphs.ColorIndex = 3;
};
},
{
glyphname = Ohorn;
kernLeft = KO_O;
kernRight = KO_O;
lastChange = "2026-03-20 13:35:31 +0000";
layers = (
{
anchors = (
{
name = bottom;
pos = (338,0);
},
{
name = center;
pos = (412,350);
},
{
name = ogonek;
pos = (547,26);
},
{
name = top;
pos = (467,700);
},
{
name = topleft;
pos = (111,700);
},
{
name = topright;
pos = (772,794);
}
);
layerId = "3917E251-E52F-4C58-ACE3-A75BE580C29C";
shapes = (
{
closed = 1;
nodes = (
(620,-12,o),
(772,185,o),
(772,399,cs),
(772,593,o),
(634,712,o),
(455,712,cs),
(199,712,o),
(40,500,o),
(52,276,cs),
(61,108,o),
(186,-12,o),
(370,-12,cs)
);
},
{
closed = 1;
nodes = (
(307,168,o),
(255,214,o),
(255,297,cs),
(255,395,o),
(309,532,o),
(439,532,cs),
(523,532,o),
(568,485,o),
(568,397,cs),
(568,305,o),
(519,168,o),
(386,168,cs)
);
},
{
closed = 1;
nodes = (
(698,612,o),
(783,652,o),
(792,794,c),
(691,794,l),
(686,713,o),
(661,700,o),
(620,700,cs),
(540,700,l),
(521,612,l),
(621,612,l)
);
}
);
width = 791;
},
{
anchors = (
{
name = bottom;
pos = (326,0);
},
{
name = center;
pos = (400,350);
},
{
name = ogonek;
pos = (550,47);
},
{
name = top;
pos = (475,700);
},
{
name = topleft;
pos = (112,700);
},
{
name = topright;
pos = (723,790);
}
);
layerId = "CB50C8AE-8F70-48CF-8EC5-5F1FEE22C006";
shapes = (
{
closed = 1;
nodes = (
(591,-12,o),
(739,208,o),
(739,419,cs),
(739,583,o),
(640,712,o),
(446,712,cs),
(209,712,o),
(63,493,o),
(63,283,cs),
(63,118,o),
(160,-12,o),
(349,-12,cs)
);
},
{
closed = 1;
nodes = (
(226,84,o),
(169,164,o),
(169,283,cs),
(169,450,o),
(277,616,o),
(446,616,cs),
(575,616,o),
(634,537,o),
(634,419,cs),
(634,251,o),
(522,84,o),
(349,84,cs)
);
},
{
closed = 1;
nodes = (
(629,643,o),
(699,677,o),
(723,790,c),
(652,790,l),
(636,714,o),
(609,700,o),
(580,700,c),
(534,700,l),
(521,643,l),
(567,643,l)
);
}
);
width = 766;
},
{
anchors = (
{
name = bottom;
pos = (331,0);
},
{
name = center;
pos = (405,350);
},
{
name = ogonek;
pos = (538,39);
},
{
name = top;
pos = (479,700);
},
{
name = topleft;
pos = (114,700);
},
{
name = topright;
pos = (688,785);
}
);
layerId = "111500BD-850E-4B42-8F02-00848EDACCC3";
shapes = (
{
closed = 1;
nodes = (
(615,-12,o),
(732,235,o),
(732,425,cs),
(732,580,o),
(654,712,o),
(460,712,cs),
(193,712,o),
(77,466,o),
(77,276,cs),
(77,121,o),
(155,-12,o),
(348,-12,cs)
);
},
{
closed = 1;
nodes = (
(178,20,o),
(112,134,o),
(112,276,cs),
(112,454,o),
(218,680,o),
(460,680,cs),
(630,680,o),
(697,567,o),
(697,425,cs),
(697,247,o),
(590,20,o),
(348,20,cs)
);
},
{
closed = 1;
nodes = (
(618,675,o),
(671,706,o),
(688,785,c),
(659,785,l),
(646,722,o),
(612,700,o),
(577,700,c),
(553,700,l),
(548,675,l),
(571,675,l)
);
}
);
width = 771;
}
);
unicode = 416;
},
{
glyphname = Ohornacute;
kernLeft = KO_O;
lastChange = "2026-03-20 13:35:31 +0000";
layers = (
{
anchors = (
{
name = bottom;
pos = (338,0);
},
{
name = center;
pos = (412,350);
},
{
name = ogonek;
pos = (547,26);
},
{
name = top;
pos = (310,819);
},
{
name = topleft;
pos = (111,700);
},
{
name = topright;
pos = (772,794);
}
);
layerId = "3917E251-E52F-4C58-ACE3-A75BE580C29C";
shapes = (
{
closed = 1;
nodes = (
(620,-12,o),
(772,185,o),
(772,399,cs),
(772,593,o),
(634,712,o),
(455,712,cs),
(199,712,o),
(40,500,o),
(52,276,cs),
(61,108,o),
(186,-12,o),
(370,-12,cs)
);
},
{
closed = 1;
nodes = (
(307,168,o),
(255,214,o),
(255,297,cs),
(255,395,o),
(309,532,o),
(439,532,cs),
(523,532,o),
(568,485,o),
(568,397,cs),
(568,305,o),
(519,168,o),
(386,168,cs)
);
},
{
closed = 1;
nodes = (
(698,612,o),
(783,652,o),
(792,794,c),
(691,794,l),
(686,713,o),
(661,700,o),
(620,700,cs),
(540,700,l),
(521,612,l),
(621,612,l)
);
},
{
closed = 1;
nodes = (
(558,772,l),
(689,914,l),
(490,914,l),
(390,772,l)
);
}
);
width = 791;
},
{
anchors = (
{
name = bottom;
pos = (326,0);
},
{
name = center;
pos = (400,350);
},
{
name = ogonek;
pos = (550,47);
},
{
name = top;
pos = (406,808);
},
{
name = topleft;
pos = (112,700);
},
{
name = topright;
pos = (723,790);
}
);
layerId = "CB50C8AE-8F70-48CF-8EC5-5F1FEE22C006";
shapes = (
{
closed = 1;
nodes = (
(591,-12,o),
(739,208,o),
(739,419,cs),
(739,583,o),
(640,712,o),
(446,712,cs),
(209,712,o),
(63,493,o),
(63,283,cs),
(63,118,o),
(160,-12,o),
(349,-12,cs)
);
},
{
closed = 1;
nodes = (
(226,84,o),
(169,164,o),
(169,283,cs),
(169,450,o),
(277,616,o),
(446,616,cs),
(575,616,o),
(634,537,o),
(634,419,cs),
(634,251,o),
(522,84,o),
(349,84,cs)
);
},
{
closed = 1;
nodes = (
(629,643,o),
(699,677,o),
(723,790,c),
(652,790,l),
(636,714,o),
(609,700,o),
(580,700,c),
(534,700,l),
(521,643,l),
(567,643,l)
);
},
{
closed = 1;
nodes = (
(533,783,l),
(661,925,l),
(548,925,l),
(447,783,l)
);
}
);
width = 766;
},
{
anchors = (
{
name = bottom;
pos = (331,0);
},
{
name = center;
pos = (405,350);
},
{
name = ogonek;
pos = (538,39);
},
{
name = top;
pos = (502,869);
},
{
name = topleft;
pos = (114,700);
},
{
name = topright;
pos = (688,785);
}
);
layerId = "111500BD-850E-4B42-8F02-00848EDACCC3";
shapes = (
{
closed = 1;
nodes = (
(615,-12,o),
(732,235,o),
(732,425,cs),
(732,580,o),
(654,712,o),
(460,712,cs),
(193,712,o),
(77,466,o),
(77,276,cs),
(77,121,o),
(155,-12,o),
(348,-12,cs)
);
},
{
closed = 1;
nodes = (
(178,20,o),
(112,134,o),
(112,276,cs),
(112,454,o),
(218,680,o),
(460,680,cs),
(630,680,o),
(697,567,o),
(697,425,cs),
(697,247,o),
(590,20,o),
(348,20,cs)
);
},
{
closed = 1;
nodes = (
(618,675,o),
(671,706,o),
(688,785,c),
(659,785,l),
(646,722,o),
(612,700,o),
(577,700,c),
(553,700,l),
(548,675,l),
(571,675,l)
);
},
{
closed = 1;
nodes = (
(515,794,l),
(646,936,l),
(605,936,l),
(484,794,l)
);
}
);
width = 771;
}
);
unicode = 7898;
},
{
glyphname = Oslash;
lastChange = "2026-03-20 13:35:31 +0000";
layers = (
{
anchors = (
{
name = bottom;
pos = (338,0);
},
{
name = top;
pos = (487,700);
}
);
background = {
shapes = (
{
ref = O;
}
);
};
layerId = "3917E251-E52F-4C58-ACE3-A75BE580C29C";
shapes = (
{
closed = 1;
nodes = (
(620,-12,o),
(772,185,o),
(772,399,cs),
(772,593,o),
(634,712,o),
(455,712,cs),
(199,712,o),
(40,500,o),
(52,276,cs),
(61,108,o),
(186,-12,o),
(370,-12,cs)
);
},
{
closed = 1;
nodes = (
(247,0,l),
(779,700,l),
(599,700,l),
(67,0,l)
);
},
{
closed = 1;
nodes = (
(271,136,o),
(220,192,o),
(220,297,cs),
(220,406,o),
(290,558,o),
(458,558,cs),
(552,558,o),
(603,502,o),
(603,397,cs),
(603,288,o),
(533,136,o),
(365,136,cs)
);
}
);
width = 791;
},
{
anchors = (
{
name = bottom;
pos = (326,0);
},
{
name = top;
pos = (475,700);
}
);
layerId = "CB50C8AE-8F70-48CF-8EC5-5F1FEE22C006";
shapes = (
{
closed = 1;
nodes = (
(591,-12,o),
(739,208,o),
(739,419,cs),
(739,583,o),
(640,712,o),
(446,712,cs),
(209,712,o),
(63,493,o),
(63,283,cs),
(63,118,o),
(160,-12,o),
(349,-12,cs)
);
},
{
closed = 1;
nodes = (
(190,0,l),
(713,700,l),
(601,700,l),
(77,0,l)
);
},
{
closed = 1;
nodes = (
(226,84,o),
(169,164,o),
(169,283,cs),
(169,450,o),
(277,616,o),
(446,616,cs),
(575,616,o),
(634,537,o),
(634,419,cs),
(634,251,o),
(522,84,o),
(349,84,cs)
);
}
);
width = 766;
},
{
anchors = (
{
name = bottom;
pos = (331,0);
},
{
name = top;
pos = (479,700);
}
);
layerId = "111500BD-850E-4B42-8F02-00848EDACCC3";
shapes = (
{
closed = 1;
nodes = (
(615,-12,o),
(732,235,o),
(732,425,cs),
(732,580,o),
(654,713,o),
(460,713,cs),
(193,713,o),
(77,466,o),
(77,276,cs),
(77,121,o),
(155,-12,o),
(348,-12,cs)
);
},
{
closed = 1;
nodes = (
(142,0,l),
(706,700,l),
(668,700,l),
(103,0,l)
);
},
{
closed = 1;
nodes = (
(178,20,o),
(112,134,o),
(112,276,cs),
(112,454,o),
(218,681,o),
(460,681,cs),
(630,681,o),
(697,567,o),
(697,425,cs),
(697,247,o),
(590,20,o),
(348,20,cs)
);
}
);
width = 771;
}
);
metricLeft = O;
metricRight = O;
unicode = 216;
},
{
glyphname = OE;
kernLeft = KO_O;
kernRight = KO_E;
lastChange = "2026-03-20 13:35:31 +0000";
layers = (
{
anchors = (
{
name = bottom;
pos = (512,0);
},
{
name = top;
pos = (661,700);
}
);
background = {
anchors = (
{
name = bottom;
pos = (325,0);
},
{
name = center;
pos = (419,350);
},
{
name = ogonek;
pos = (576,0);
},
{
name = top;
pos = (325,700);
},
{
name = topleft;
pos = (45,700);
},
{
name = topright;
pos = (841,700);
}
);
};
layerId = "3917E251-E52F-4C58-ACE3-A75BE580C29C";
shapes = (
{
closed = 1;
nodes = (
(394,-12,o),
(443,6,o),
(485,38,cs),
(499,50,o),
(509,45,o),
(505,26,cs),
(500,0,l),
(1029,0,l),
(1064,165,l),
(735,165,l),
(758,273,l),
(1049,273,l),
(1082,427,l),
(791,427,l),
(814,535,l),
(1143,535,l),
(1178,700,l),
(649,700,l),
(645,679,ls),
(642,664,o),
(632,661,o),
(619,670,cs),
(580,697,o),
(522,712,o),
(455,712,cs),
(199,712,o),
(40,500,o),
(52,276,cs),
(61,108,o),
(186,-12,o),
(338,-12,cs)
);
},
{
closed = 1;
nodes = (
(307,168,o),
(255,214,o),
(255,297,cs),
(255,395,o),
(309,532,o),
(439,532,cs),
(523,532,o),
(568,485,o),
(568,397,cs),
(568,305,o),
(519,168,o),
(386,168,cs)
);
}
);
width = 1139;
},
{
anchors = (
{
name = bottom;
pos = (521,0);
},
{
name = top;
pos = (670,700);
}
);
layerId = "CB50C8AE-8F70-48CF-8EC5-5F1FEE22C006";
shapes = (
{
closed = 1;
nodes = (
(434,-12,o),
(506,23,o),
(562,77,cs),
(571,86,o),
(580,83,o),
(577,68,cs),
(562,0,l),
(1036,0,l),
(1057,97,l),
(684,97,l),
(728,304,l),
(1083,304,l),
(1102,396,l),
(748,396,l),
(791,603,l),
(1164,603,l),
(1185,700,l),
(711,700,l),
(691,608,ls),
(688,595,o),
(680,595,o),
(673,604,cs),
(632,669,o),
(556,712,o),
(446,712,cs),
(209,712,o),
(63,493,o),
(63,283,cs),
(63,118,o),
(160,-12,o),
(349,-12,cs)
);
},
{
closed = 1;
nodes = (
(226,84,o),
(169,164,o),
(169,283,cs),
(169,450,o),
(277,616,o),
(446,616,cs),
(575,616,o),
(634,537,o),
(634,419,cs),
(634,251,o),
(522,84,o),
(349,84,cs)
);
}
);
width = 1154;
},
{
anchors = (
{
name = bottom;
pos = (529,0);
},
{
name = top;
pos = (677,700);
}
);
layerId = "111500BD-850E-4B42-8F02-00848EDACCC3";
shapes = (
{
closed = 1;
nodes = (
(483,-12,o),
(583,55,o),
(640,150,cs),
(646,159,o),
(653,155,o),
(651,145,cs),
(619,0,l),
(1047,0,l),
(1054,32,l),
(661,32,l),
(725,334,l),
(1100,334,l),
(1106,366,l),
(732,366,l),
(796,668,l),
(1189,668,l),
(1195,700,l),
(767,700,l),
(727,509,ls),
(725,500,o),
(718,498,o),
(716,508,cs),
(699,624,o),
(613,713,o),
(460,713,cs),
(193,713,o),
(77,466,o),
(77,276,cs),
(77,121,o),
(155,-12,o),
(348,-12,cs)
);
},
{
closed = 1;
nodes = (
(178,20,o),
(112,134,o),
(112,276,cs),
(112,454,o),
(218,681,o),
(460,681,cs),
(630,681,o),
(697,567,o),
(697,425,cs),
(697,247,o),
(590,20,o),
(348,20,cs)
);
}
);
width = 1167;
}
);
metricLeft = O;
metricRight = E;
unicode = 338;
userData = {
com.schriftgestaltung.Glyphs.leftMetricsKey = O;
com.schriftgestaltung.Glyphs.rightMetricsKey = E;
};
},
{
glyphname = P;
kernLeft = KO_H;
kernRight = KO_P;
lastChange = "2026-03-20 13:35:31 +0000";
layers = (
{
anchors = (
{
name = bottom;
pos = (259,0);
},
{
name = top;
pos = (408,700);
}
);
layerId = "3917E251-E52F-4C58-ACE3-A75BE580C29C";
shapes = (
{
closed = 1;
nodes = (
(228,0,l),
(264,169,l),
(409,169,ls),
(594,169,o),
(752,285,o),
(752,461,cs),
(752,602,o),
(640,700,o),
(460,700,cs),
(167,700,l),
(18,0,l)
);
},
{
closed = 1;
nodes = (
(341,530,l),
(450,530,ls),
(512,530,o),
(548,502,o),
(548,450,cs),
(548,383,o),
(484,339,o),
(409,339,cs),
(300,339,l)
);
}
);
width = 756;
},
{
anchors = (
{
name = bottom;
pos = (242,0);
},
{
name = top;
pos = (391,700);
}
);
layerId = "CB50C8AE-8F70-48CF-8EC5-5F1FEE22C006";
shapes = (
{
closed = 1;
nodes = (
(138,0,l),
(182,211,l),
(347,211,ls),
(537,211,o),
(672,333,o),
(672,489,cs),
(672,622,o),
(569,700,o),
(434,700,cs),
(181,700,l),
(32,0,l)
);
},
{
closed = 1;
nodes = (
(268,611,l),
(425,611,ls),
(508,611,o),
(571,574,o),
(571,493,cs),
(571,394,o),
(493,300,o),
(359,300,cs),
(201,300,l)
);
}
);
width = 676;
},
{
anchors = (
{
name = bottom;
pos = (214,0);
},
{
name = top;
pos = (362,700);
}
);
layerId = "111500BD-850E-4B42-8F02-00848EDACCC3";
shapes = (
{
closed = 1;
nodes = (
(81,0,l),
(134,248,l),
(334,248,ls),
(510,248,o),
(644,360,o),
(644,516,cs),
(644,626,o),
(559,700,o),
(418,700,cs),
(194,700,l),
(46,0,l)
);
},
{
closed = 1;
nodes = (
(223,669,l),
(416,669,ls),
(536,669,o),
(609,611,o),
(609,516,cs),
(609,374,o),
(489,279,o),
(334,279,cs),
(140,279,l)
);
}
);
width = 646;
}
);
metricLeft = H;
unicode = 80;
userData = {
KernOnName = P;
com.schriftgestaltung.Glyphs.ColorIndex = 3;
com.schriftgestaltung.Glyphs.layer.leftMetricsKey = "==H";
com.schriftgestaltung.Glyphs.leftMetricsKey = H;
};
},
{
glyphname = Thorn;
kernLeft = KO_H;
lastChange = "2026-03-20 13:35:31 +0000";
layers = (
{
anchors = (
{
name = bottom;
pos = (320,0);
},
{
name = top;
pos = (469,700);
}
);
background = {
anchors = (
{
name = bottom;
pos = (298,0);
},
{
name = top;
pos = (298,700);
}
);
};
layerId = "3917E251-E52F-4C58-ACE3-A75BE580C29C";
shapes = (
{
closed = 1;
nodes = (
(228,0,l),
(247,89,l),
(429,89,ls),
(614,89,o),
(772,205,o),
(772,381,cs),
(772,522,o),
(660,620,o),
(480,620,cs),
(360,620,l),
(377,700,l),
(167,700,l),
(18,0,l)
);
},
{
closed = 1;
nodes = (
(324,450,l),
(470,450,ls),
(532,450,o),
(568,422,o),
(568,370,cs),
(568,303,o),
(504,259,o),
(429,259,cs),
(283,259,l)
);
}
);
width = 793;
},
{
anchors = (
{
name = bottom;
pos = (282,0);
},
{
name = top;
pos = (431,700);
}
);
layerId = "CB50C8AE-8F70-48CF-8EC5-5F1FEE22C006";
shapes = (
{
closed = 1;
nodes = (
(138,0,l),
(161,109,l),
(343,109,ls),
(532,109,o),
(668,231,o),
(668,387,cs),
(668,521,o),
(565,598,o),
(429,598,cs),
(265,598,l),
(287,700,l),
(181,700,l),
(32,0,l)
);
},
{
closed = 1;
nodes = (
(246,509,l),
(421,510,ls),
(503,510,o),
(566,472,o),
(566,391,cs),
(566,292,o),
(488,198,o),
(354,198,cs),
(180,198,l)
);
}
);
width = 693;
},
{
anchors = (
{
name = bottom;
pos = (268,0);
},
{
name = top;
pos = (416,700);
}
);
layerId = "111500BD-850E-4B42-8F02-00848EDACCC3";
shapes = (
{
closed = 1;
nodes = (
(81,0,l),
(108,129,l),
(316,129,ls),
(492,129,o),
(626,241,o),
(626,397,cs),
(626,506,o),
(541,581,o),
(401,581,cs),
(204,581,l),
(229,700,l),
(194,700,l),
(46,0,l)
);
},
{
closed = 1;
nodes = (
(198,550,l),
(398,550,ls),
(518,550,o),
(591,492,o),
(591,396,cs),
(591,255,o),
(471,160,o),
(316,160,cs),
(114,160,l)
);
}
);
width = 654;
}
);
metricLeft = I;
metricRight = "=I/2";
unicode = 222;
userData = {
com.schriftgestaltung.Glyphs.leftMetricsKey = H;
};
},
{
glyphname = Q;
kernLeft = KO_O;
kernRight = KO_O;
lastChange = "2026-03-20 13:35:31 +0000";
layers = (
{
anchors = (
{
name = bottom;
pos = (338,0);
},
{
name = top;
pos = (487,700);
}
);
background = {
shapes = (
{
pos = (38,0);
ref = O;
}
);
};
layerId = "3917E251-E52F-4C58-ACE3-A75BE580C29C";
shapes = (
{
closed = 1;
nodes = (
(626,-34,l),
(588,49,l),
(705,123,o),
(772,257,o),
(772,399,cs),
(772,593,o),
(634,712,o),
(455,712,cs),
(199,712,o),
(40,500,o),
(52,276,cs),
(61,108,o),
(186,-12,o),
(370,-12,cs),
(391,-12,o),
(412,-11,o),
(432,-8,c),
(473,-104,l)
);
},
{
closed = 1;
nodes = (
(303,138,o),
(255,194,o),
(255,297,cs),
(255,395,o),
(309,532,o),
(439,532,cs),
(523,532,o),
(568,485,o),
(568,397,cs),
(568,334,o),
(554,255,o),
(520,195,c),
(472,312,l),
(326,243,l),
(352,180,l),
(381,151,ls),
(385,147,o),
(385,138,o),
(376,138,cs),
(374,138,o),
(372,138,o),
(370,138,cs)
);
}
);
width = 791;
},
{
anchors = (
{
name = bottom;
pos = (326,0);
},
{
name = top;
pos = (475,700);
}
);
layerId = "CB50C8AE-8F70-48CF-8EC5-5F1FEE22C006";
shapes = (
{
closed = 1;
nodes = (
(556,-53,l),
(516,28,l),
(658,101,o),
(739,263,o),
(739,419,cs),
(739,583,o),
(640,712,o),
(446,712,cs),
(209,712,o),
(63,493,o),
(63,283,cs),
(63,118,o),
(160,-12,o),
(349,-12,cs),
(378,-12,o),
(406,-9,o),
(432,-2,c),
(475,-89,l)
);
},
{
closed = 1;
nodes = (
(225,79,o),
(169,161,o),
(169,283,cs),
(169,450,o),
(277,616,o),
(446,616,cs),
(575,616,o),
(634,537,o),
(634,419,cs),
(634,294,o),
(574,168,o),
(475,112,c),
(399,270,l),
(317,233,l),
(371,124,l),
(394,96,ls),
(400,90,o),
(398,83,o),
(391,82,cs),
(378,79,o),
(367,79,o),
(347,79,cs)
);
}
);
width = 766;
},
{
anchors = (
{
name = bottom;
pos = (331,0);
},
{
name = top;
pos = (479,700);
}
);
layerId = "111500BD-850E-4B42-8F02-00848EDACCC3";
shapes = (
{
closed = 1;
nodes = (
(541,-68,l),
(498,19,l),
(660,90,o),
(732,276,o),
(732,425,cs),
(732,580,o),
(654,713,o),
(460,713,cs),
(193,713,o),
(77,466,o),
(77,276,cs),
(77,121,o),
(155,-12,o),
(348,-12,cs),
(393,-12,o),
(433,-5,o),
(468,8,c),
(515,-80,l)
);
},
{
closed = 1;
nodes = (
(178,19,o),
(112,133,o),
(112,276,cs),
(112,454,o),
(218,681,o),
(460,681,cs),
(630,681,o),
(697,567,o),
(697,425,cs),
(697,283,o),
(630,109,o),
(485,44,c),
(383,238,l),
(354,225,l),
(438,67,l),
(452,46,ls),
(458,37,o),
(456,33,o),
(446,30,cs),
(417,21,o),
(384,19,o),
(348,19,cs)
);
}
);
width = 771;
}
);
metricLeft = O;
metricRight = O;
unicode = 81;
userData = {
KernOnName = Q;
com.schriftgestaltung.Glyphs.ColorIndex = 3;
com.schriftgestaltung.Glyphs.layer.leftMetricsKey = "==O";
com.schriftgestaltung.Glyphs.layer.rightMetricsKey = "==O";
com.schriftgestaltung.Glyphs.leftMetricsKey = O;
com.schriftgestaltung.Glyphs.rightMetricsKey = O;
};
},
{
glyphname = R;
kernLeft = KO_H;
kernRight = KO_R;
lastChange = "2026-03-20 13:35:31 +0000";
layers = (
{
anchors = (
{
name = bottom;
pos = (345,0);
},
{
name = top;
pos = (430,700);
}
);
background = {
shapes = (
{
closed = 1;
nodes = (
(341,530,l),
(460,530,ls),
(517,530,o),
(543,500,o),
(543,466,cs),
(543,423,o),
(500,373,o),
(426,373,cs),
(307,373,l)
);
},
{
closed = 1;
nodes = (
(426,203,ls),
(602,203,o),
(749,321,o),
(749,466,cs),
(749,602,o),
(620,700,o),
(460,700,cs),
(169,700,l),
(61,203,l)
);
}
);
};
layerId = "3917E251-E52F-4C58-ACE3-A75BE580C29C";
shapes = (
{
closed = 1;
nodes = (
(228,0,l),
(275,219,l),
(381,219,l),
(444,0,l),
(659,0,l),
(608,152,l),
(565,221,ls),
(560,229,o),
(561,242,o),
(573,246,cs),
(686,281,o),
(749,375,o),
(749,466,cs),
(749,584,o),
(659,700,o),
(451,700,cs),
(167,700,l),
(18,0,l)
);
},
{
closed = 1;
nodes = (
(341,530,l),
(460,530,ls),
(517,530,o),
(543,500,o),
(543,466,cs),
(543,420,o),
(505,373,o),
(426,373,cs),
(307,373,l)
);
}
);
width = 757;
},
{
anchors = (
{
name = bottom;
pos = (298,0);
},
{
name = top;
pos = (409,700);
}
);
layerId = "CB50C8AE-8F70-48CF-8EC5-5F1FEE22C006";
shapes = (
{
closed = 1;
nodes = (
(138,0,l),
(193,262,l),
(371,262,l),
(464,0,l),
(576,0,l),
(502,205,l),
(470,253,ls),
(464,262,o),
(468,270,o),
(481,273,cs),
(616,307,o),
(685,407,o),
(685,503,cs),
(685,606,o),
(605,700,o),
(446,700,cs),
(181,700,l),
(32,0,l)
);
},
{
closed = 1;
nodes = (
(268,611,l),
(446,611,ls),
(538,611,o),
(584,560,o),
(584,501,cs),
(584,417,o),
(500,352,o),
(392,352,cs),
(212,352,l)
);
}
);
width = 693;
},
{
anchors = (
{
name = bottom;
pos = (278,0);
},
{
name = top;
pos = (390,700);
}
);
layerId = "111500BD-850E-4B42-8F02-00848EDACCC3";
shapes = (
{
closed = 1;
nodes = (
(81,0,l),
(143,294,l),
(393,294,l),
(486,0,l),
(522,0,l),
(449,231,l),
(424,280,ls),
(419,290,o),
(427,297,o),
(437,298,cs),
(574,318,o),
(658,413,o),
(658,519,cs),
(658,629,o),
(583,700,o),
(450,700,cs),
(194,700,l),
(46,0,l)
);
},
{
closed = 1;
nodes = (
(223,669,l),
(445,669,ls),
(564,669,o),
(625,614,o),
(625,519,cs),
(625,421,o),
(538,325,o),
(389,325,cs),
(150,325,l)
);
}
);
width = 667;
}
);
metricLeft = H;
unicode = 82;
userData = {
KernOnName = R;
com.schriftgestaltung.Glyphs.ColorIndex = 3;
com.schriftgestaltung.Glyphs.layer.leftMetricsKey = "==H";
com.schriftgestaltung.Glyphs.leftMetricsKey = H;
};
},
{
glyphname = S;
kernLeft = KO_S;
kernRight = KO_S;
lastChange = "2026-03-20 13:35:31 +0000";
layers = (
{
anchors = (
{
name = bottom;
pos = (287,0);
},
{
name = top;
pos = (426,700);
}
);
background = {
anchors = (
{
name = bottom;
pos = (271,0);
},
{
name = top;
pos = (420,700);
}
);
shapes = (
{
attr = {
strokeHeight = 175;
strokeWidth = 205;
};
closed = 0;
nodes = (
(646,573,l),
(593,603,o),
(513,624,o),
(419,624,cs),
(298,624,o),
(183,570,o),
(183,474,cs),
(183,404,o),
(217,376,o),
(348,355,cs),
(367,352,ls),
(507,330,o),
(517,289,o),
(517,231,cs),
(517,113,o),
(381,76,o),
(270,76,cs),
(175,76,o),
(96,106,o),
(31,140,cs)
);
}
);
};
layerId = "3917E251-E52F-4C58-ACE3-A75BE580C29C";
shapes = (
{
closed = 1;
nodes = (
(497,-10,o),
(622,96,o),
(622,243,cs),
(621,360,o),
(532,421,o),
(410,439,cs),
(336,450,ls),
(298,456,o),
(286,466,o),
(286,483,cs),
(286,521,o),
(359,537,o),
(422,537,cs),
(501,537,o),
(551,521,o),
(603,494,c),
(696,649,l),
(642,682,o),
(528,712,o),
(418,712,cs),
(235,712,o),
(81,615,o),
(81,463,cs),
(81,357,o),
(171,290,o),
(294,272,cs),
(355,263,ls),
(401,256,o),
(417,242,o),
(417,222,cs),
(417,183,o),
(349,166,o),
(285,166,cs),
(221,166,o),
(142,183,o),
(73,220,c),
(-9,59,l),
(53,22,o),
(164,-10,o),
(260,-10,cs)
);
}
);
width = 670;
},
{
anchors = (
{
name = bottom;
pos = (263,0);
},
{
name = top;
pos = (412,700);
}
);
layerId = "CB50C8AE-8F70-48CF-8EC5-5F1FEE22C006";
shapes = (
{
closed = 1;
nodes = (
(420,-10,o),
(554,69,o),
(554,217,cs),
(554,315,o),
(489,373,o),
(352,410,cs),
(312,421,ls),
(243,441,o),
(208,463,o),
(208,511,cs),
(208,559,o),
(246,617,o),
(386,617,cs),
(462,617,o),
(536,595,o),
(583,560,c),
(631,644,l),
(573,682,o),
(500,711,o),
(398,711,cs),
(198,711,o),
(104,612,o),
(104,503,cs),
(104,405,o),
(178,356,o),
(287,327,cs),
(327,316,ls),
(419,291,o),
(448,260,o),
(449,206,cs),
(449,125,o),
(369,85,o),
(267,85,cs),
(189,85,o),
(116,106,o),
(61,147,c),
(11,57,l),
(71,13,o),
(158,-10,o),
(254,-10,cs)
);
}
);
width = 619;
},
{
anchors = (
{
name = bottom;
pos = (247,0);
},
{
name = top;
pos = (396,700);
}
);
layerId = "111500BD-850E-4B42-8F02-00848EDACCC3";
shapes = (
{
closed = 1;
nodes = (
(404,-12,o),
(524,62,o),
(524,204,cs),
(524,287,o),
(469,344,o),
(356,375,cs),
(294,392,ls),
(207,416,o),
(159,447,o),
(159,516,cs),
(159,593,o),
(224,677,o),
(379,677,cs),
(467,677,o),
(529,650,o),
(580,605,c),
(595,633,l),
(546,678,o),
(478,708,o),
(383,708,cs),
(203,708,o),
(124,609,o),
(124,515,cs),
(124,425,o),
(188,386,o),
(286,359,cs),
(349,342,ls),
(446,316,o),
(489,266,o),
(489,201,cs),
(489,78,o),
(379,20,o),
(258,20,cs),
(174,20,o),
(90,47,o),
(36,100,c),
(21,73,l),
(74,19,o),
(161,-12,o),
(254,-12,cs)
);
}
);
width = 602;
}
);
unicode = 83;
userData = {
KernOnName = S;
com.schriftgestaltung.Glyphs.ColorIndex = 3;
com.typemytype.robofont.layerData = {
background = {
anchors = (
);
components = (
);
contours = (
{
points = (
{
smooth = 0;
x = 389;
y = 562;
},
{
smooth = 0;
x = 346;
y = 574;
},
{
segmentType = curve;
smooth = 1;
x = 290;
y = 574;
},
{
smooth = 0;
x = 204;
y = 574;
},
{
smooth = 0;
x = 174;
y = 537;
},
{
segmentType = curve;
smooth = 1;
x = 174;
y = 499;
},
{
smooth = 0;
x = 174;
y = 463;
},
{
smooth = 0;
x = 196;
y = 444;
},
{
segmentType = curve;
smooth = 1;
x = 238;
y = 441;
},
{
segmentType = line;
smooth = 1;
x = 311;
y = 435;
},
{
smooth = 0;
x = 434;
y = 425;
},
{
smooth = 0;
x = 509;
y = 341;
},
{
segmentType = curve;
smooth = 1;
x = 509;
y = 224;
},
{
smooth = 0;
x = 509;
y = 82;
},
{
smooth = 0;
x = 419;
y = -10;
},
{
segmentType = curve;
smooth = 1;
x = 249;
y = -10;
},
{
smooth = 0;
x = 154;
y = -10;
},
{
smooth = 0;
x = 93;
y = 11;
},
{
segmentType = curve;
smooth = 0;
x = 23;
y = 64;
},
{
segmentType = line;
smooth = 0;
x = 69;
y = 190;
},
{
smooth = 0;
x = 135;
y = 143;
},
{
smooth = 0;
x = 175;
y = 128;
},
{
segmentType = curve;
smooth = 1;
x = 245;
y = 128;
},
{
smooth = 0;
x = 318;
y = 128;
},
{
smooth = 0;
x = 359;
y = 160;
},
{
segmentType = curve;
smooth = 1;
x = 359;
y = 218;
},
{
smooth = 0;
x = 359;
y = 259;
},
{
smooth = 0;
x = 335;
y = 287;
},
{
segmentType = curve;
smooth = 1;
x = 280;
y = 292;
},
{
segmentType = line;
smooth = 1;
x = 210;
y = 298;
},
{
smooth = 0;
x = 103;
y = 307;
},
{
smooth = 0;
x = 24;
y = 377;
},
{
segmentType = curve;
smooth = 1;
x = 24;
y = 489;
},
{
smooth = 0;
x = 24;
y = 615;
},
{
smooth = 0;
x = 112;
y = 712;
},
{
segmentType = curve;
smooth = 1;
x = 285;
y = 712;
},
{
smooth = 0;
x = 378;
y = 712;
},
{
smooth = 0;
x = 435;
y = 686;
},
{
segmentType = curve;
smooth = 0;
x = 483;
y = 655;
},
{
segmentType = line;
smooth = 0;
x = 439;
y = 537;
}
);
}
);
lib = {
};
name = S;
unicodes = (
);
width = 503;
};
};
};
},
{
glyphname = Germandbls;
lastChange = "2026-03-20 13:35:31 +0000";
layers = (
{
anchors = (
{
name = bottom;
pos = (402,0);
},
{
name = top;
pos = (551,700);
}
);
background = {
shapes = (
{
closed = 1;
nodes = (
(231,0,l),
(380,700,l),
(170,700,l),
(21,0,l)
);
},
{
closed = 1;
nodes = (
(618,-11,o),
(796,63,o),
(829,218,cs),
(852,327,o),
(766,414,o),
(607,420,c),
(608,377,l),
(860,559,l),
(890,700,l),
(277,700,l),
(241,530,l),
(589,530,ls),
(603,530,o),
(608,516,o),
(592,507,cs),
(553,485,l),
(432,410,l),
(408,302,l),
(513,302,ls),
(610,302,o),
(657,276,o),
(648,234,cs),
(638,187,o),
(583,164,o),
(498,164,cs),
(453,164,o),
(415,170,o),
(374,193,c),
(279,27,l),
(334,-4,o),
(400,-11,o),
(479,-11,cs)
);
}
);
};
layerId = "3917E251-E52F-4C58-ACE3-A75BE580C29C";
shapes = (
{
closed = 1;
nodes = (
(664,-11,o),
(822,91,o),
(822,245,cs),
(822,331,o),
(764,396,o),
(667,415,c),
(860,559,l),
(890,700,l),
(170,700,l),
(21,0,l),
(231,0,l),
(344,530,l),
(561,530,ls),
(575,530,o),
(580,516,o),
(564,507,cs),
(525,485,l),
(432,410,l),
(408,302,l),
(520,302,ls),
(586,302,o),
(624,282,o),
(624,245,cs),
(624,196,o),
(566,164,o),
(498,164,cs),
(453,164,o),
(415,170,o),
(374,193,c),
(279,27,l),
(334,-4,o),
(400,-11,o),
(479,-11,cs)
);
}
);
width = 869;
},
{
anchors = (
{
name = bottom;
pos = (381,0);
},
{
name = top;
pos = (530,700);
}
);
layerId = "CB50C8AE-8F70-48CF-8EC5-5F1FEE22C006";
shapes = (
{
closed = 1;
nodes = (
(620,-8,o),
(748,93,o),
(748,219,cs),
(748,330,o),
(665,395,o),
(548,409,c),
(813,636,l),
(827,700,l),
(202,700,l),
(53,0,l),
(160,0,l),
(290,611,l),
(644,611,ls),
(653,611,o),
(657,606,o),
(646,599,cs),
(598,566,l),
(391,385,l),
(378,325,l),
(492,325,ls),
(581,325,o),
(647,289,o),
(647,219,cs),
(647,150,o),
(577,87,o),
(456,87,cs),
(397,87,o),
(347,102,o),
(310,133,c),
(256,46,l),
(303,14,o),
(363,-8,o),
(440,-8,cs)
);
}
);
width = 813;
},
{
anchors = (
{
name = bottom;
pos = (362,0);
},
{
name = top;
pos = (510,700);
}
);
layerId = "111500BD-850E-4B42-8F02-00848EDACCC3";
shapes = (
{
closed = 1;
nodes = (
(530,-8,o),
(646,84,o),
(646,212,cs),
(646,322,o),
(565,387,o),
(404,393,c),
(764,685,l),
(767,700,l),
(229,700,l),
(81,0,l),
(113,0,l),
(255,669,l),
(690,669,ls),
(696,669,o),
(700,665,o),
(690,658,cs),
(641,624,l),
(349,381,l),
(345,363,l),
(389,363,ls),
(538,363,o),
(612,306,o),
(612,211,cs),
(612,98,o),
(510,24,o),
(384,24,cs),
(325,24,o),
(273,39,o),
(242,66,c),
(221,38,l),
(259,10,o),
(313,-8,o),
(378,-8,cs)
);
}
);
width = 738;
}
);
metricLeft = I;
metricRight = B;
unicode = 7838;
},
{
glyphname = T;
kernLeft = KO_T;
kernRight = KO_T;
lastChange = "2026-03-20 13:35:31 +0000";
layers = (
{
anchors = (
{
name = bottom;
pos = (271,0);
},
{
name = bottomright;
pos = (376,0);
},
{
name = center;
pos = (345,350);
},
{
name = top;
pos = (420,700);
}
);
layerId = "3917E251-E52F-4C58-ACE3-A75BE580C29C";
shapes = (
{
closed = 1;
nodes = (
(376,0,l),
(487,520,l),
(700,520,l),
(738,700,l),
(101,700,l),
(63,520,l),
(276,520,l),
(165,0,l)
);
}
);
width = 657;
},
{
anchors = (
{
name = bottom;
pos = (243,0);
},
{
name = bottomright;
pos = (299,0);
},
{
name = center;
pos = (318,350);
},
{
name = top;
pos = (393,700);
}
);
layerId = "CB50C8AE-8F70-48CF-8EC5-5F1FEE22C006";
shapes = (
{
closed = 1;
nodes = (
(299,0,l),
(427,603,l),
(668,603,l),
(688,700,l),
(99,700,l),
(78,603,l),
(318,603,l),
(190,0,l)
);
}
);
width = 603;
},
{
anchors = (
{
name = bottom;
pos = (215,0);
},
{
name = bottomright;
pos = (234,0);
},
{
name = center;
pos = (290,350);
},
{
name = top;
pos = (364,700);
}
);
layerId = "111500BD-850E-4B42-8F02-00848EDACCC3";
shapes = (
{
closed = 1;
nodes = (
(234,0,l),
(375,668,l),
(623,668,l),
(629,700,l),
(98,700,l),
(92,668,l),
(339,668,l),
(198,0,l)
);
}
);
width = 542;
}
);
unicode = 84;
userData = {
KernOnName = T;
com.schriftgestaltung.Glyphs.ColorIndex = 3;
};
},
{
color = 4;
glyphname = Tbar;
lastChange = "2026-03-25 15:35:15 +0000";
layers = (
{
anchors = (
{
name = bottom;
pos = (271,0);
},
{
name = bottomright;
pos = (376,0);
},
{
name = center;
pos = (345,350);
},
{
name = top;
pos = (420,700);
}
);
layerId = "3917E251-E52F-4C58-ACE3-A75BE580C29C";
shapes = (
{
closed = 1;
nodes = (
(376,0,l),
(487,520,l),
(700,520,l),
(738,700,l),
(101,700,l),
(63,520,l),
(276,520,l),
(165,0,l)
);
},
{
closed = 1;
nodes = (
(515,268,l),
(548,422,l),
(175,422,l),
(142,268,l)
);
}
);
width = 657;
},
{
anchors = (
{
name = bottom;
pos = (243,0);
},
{
name = bottomright;
pos = (299,0);
},
{
name = center;
pos = (318,350);
},
{
name = top;
pos = (393,700);
}
);
layerId = "CB50C8AE-8F70-48CF-8EC5-5F1FEE22C006";
shapes = (
{
closed = 1;
nodes = (
(299,0,l),
(427,603,l),
(668,603,l),
(688,700,l),
(99,700,l),
(78,603,l),
(318,603,l),
(190,0,l)
);
},
{
closed = 1;
nodes = (
(462,308,l),
(480,392,l),
(173,392,l),
(155,308,l)
);
}
);
width = 603;
},
{
anchors = (
{
name = bottom;
pos = (215,0);
},
{
name = bottomright;
pos = (234,0);
},
{
name = center;
pos = (290,350);
},
{
name = top;
pos = (364,700);
}
);
layerId = "111500BD-850E-4B42-8F02-00848EDACCC3";
shapes = (
{
closed = 1;
nodes = (
(234,0,l),
(375,668,l),
(623,668,l),
(629,700,l),
(98,700,l),
(92,668,l),
(339,668,l),
(198,0,l)
);
},
{
closed = 1;
nodes = (
(416,335,l),
(422,364,l),
(162,364,l),
(156,335,l)
);
}
);
width = 542;
}
);
unicode = 358;
},
{
glyphname = U;
kernLeft = KO_U;
kernRight = KO_U;
lastChange = "2026-03-20 13:35:31 +0000";
layers = (
{
anchors = (
{
name = bottom;
pos = (336,0);
},
{
name = ogonek;
pos = (521,30);
},
{
name = top;
pos = (467,700);
},
{
name = topright;
pos = (783,700);
}
);
layerId = "3917E251-E52F-4C58-ACE3-A75BE580C29C";
shapes = (
{
closed = 1;
nodes = (
(490,-12,o),
(641,70,o),
(676,226,cs),
(783,700,l),
(573,700,l),
(479,262,ls),
(467,201,o),
(416,170,o),
(369,170,cs),
(319,170,o),
(273,207,o),
(289,281,cs),
(377,700,l),
(167,700,l),
(84,311,ls),
(38,94,o),
(188,-12,o),
(349,-12,cs)
);
}
);
width = 768;
},
{
anchors = (
{
name = bottom;
pos = (308,0);
},
{
name = ogonek;
pos = (483,30);
},
{
name = top;
pos = (436,700);
},
{
name = topright;
pos = (714,700);
}
);
layerId = "CB50C8AE-8F70-48CF-8EC5-5F1FEE22C006";
shapes = (
{
closed = 1;
nodes = (
(471,-11,o),
(580,72,o),
(610,215,cs),
(714,700,l),
(607,700,l),
(506,228,ls),
(491,157,o),
(432,85,o),
(329,85,cs),
(226,85,o),
(173,160,o),
(193,253,cs),
(289,700,l),
(181,700,l),
(89,267,ls),
(53,103,o),
(157,-11,o),
(316,-11,cs)
);
}
);
width = 711;
},
{
anchors = (
{
name = bottom;
pos = (297,0);
},
{
name = ogonek;
pos = (457,31);
},
{
name = top;
pos = (424,700);
},
{
name = topright;
pos = (686,700);
}
);
layerId = "111500BD-850E-4B42-8F02-00848EDACCC3";
shapes = (
{
closed = 1;
nodes = (
(450,-10,o),
(556,87,o),
(582,210,cs),
(686,700,l),
(649,700,l),
(547,212,ls),
(525,108,o),
(430,22,o),
(314,22,cs),
(177,22,o),
(104,112,o),
(134,252,cs),
(230,700,l),
(194,700,l),
(99,254,ls),
(64,92,o),
(162,-10,o),
(308,-10,cs)
);
}
);
width = 695;
}
);
metricLeft = H;
metricRight = H;
unicode = 85;
userData = {
com.schriftgestaltung.Glyphs.ColorIndex = 3;
};
},
{
glyphname = Uhorn;
kernLeft = KO_U;
lastChange = "2026-03-20 13:35:31 +0000";
layers = (
{
anchors = (
{
name = bottom;
pos = (336,0);
},
{
name = ogonek;
pos = (521,30);
},
{
name = top;
pos = (467,700);
},
{
name = topright;
pos = (935,794);
}
);
layerId = "3917E251-E52F-4C58-ACE3-A75BE580C29C";
shapes = (
{
closed = 1;
nodes = (
(490,-12,o),
(641,70,o),
(676,226,cs),
(783,700,l),
(573,700,l),
(479,262,ls),
(467,201,o),
(416,170,o),
(369,170,cs),
(319,170,o),
(273,207,o),
(289,281,cs),
(377,700,l),
(167,700,l),
(84,311,ls),
(38,94,o),
(188,-12,o),
(349,-12,cs)
);
},
{
closed = 1;
nodes = (
(861,612,o),
(946,652,o),
(955,794,c),
(854,794,l),
(849,713,o),
(824,700,o),
(783,700,cs),
(703,700,l),
(684,612,l),
(784,612,l)
);
}
);
width = 768;
},
{
anchors = (
{
name = bottom;
pos = (308,0);
},
{
name = ogonek;
pos = (483,30);
},
{
name = top;
pos = (436,700);
},
{
name = topright;
pos = (857,790);
}
);
layerId = "CB50C8AE-8F70-48CF-8EC5-5F1FEE22C006";
shapes = (
{
closed = 1;
nodes = (
(471,-11,o),
(580,72,o),
(610,215,cs),
(714,700,l),
(607,700,l),
(506,228,ls),
(491,157,o),
(432,85,o),
(329,85,cs),
(226,85,o),
(173,160,o),
(193,253,cs),
(289,700,l),
(181,700,l),
(89,267,ls),
(53,103,o),
(157,-11,o),
(316,-11,cs)
);
},
{
closed = 1;
nodes = (
(764,643,o),
(833,677,o),
(857,790,c),
(786,790,l),
(770,714,o),
(744,700,o),
(714,700,c),
(668,700,l),
(656,643,l),
(702,643,l)
);
}
);
width = 711;
},
{
anchors = (
{
name = bottom;
pos = (297,0);
},
{
name = ogonek;
pos = (457,31);
},
{
name = top;
pos = (424,700);
},
{
name = topright;
pos = (797,785);
}
);
layerId = "111500BD-850E-4B42-8F02-00848EDACCC3";
shapes = (
{
closed = 1;
nodes = (
(450,-10,o),
(556,87,o),
(582,210,cs),
(686,700,l),
(649,700,l),
(547,212,ls),
(525,108,o),
(430,22,o),
(314,22,cs),
(177,22,o),
(104,112,o),
(134,252,cs),
(230,700,l),
(194,700,l),
(99,254,ls),
(64,92,o),
(162,-10,o),
(308,-10,cs)
);
},
{
closed = 1;
nodes = (
(727,675,o),
(780,706,o),
(797,785,c),
(768,785,l),
(755,722,o),
(721,700,o),
(686,700,c),
(662,700,l),
(657,675,l),
(680,675,l)
);
}
);
width = 695;
}
);
unicode = 431;
},
{
glyphname = V;
kernLeft = KO_V;
kernRight = KO_V;
lastChange = "2026-03-20 13:35:31 +0000";
layers = (
{
anchors = (
{
name = bottom;
pos = (320,0);
},
{
name = top;
pos = (469,700);
}
);
layerId = "3917E251-E52F-4C58-ACE3-A75BE580C29C";
shapes = (
{
closed = 1;
nodes = (
(460,0,l),
(821,700,l),
(588,700,l),
(357,177,ls),
(351,163,o),
(334,165,o),
(335,180,cs),
(340,294,l),
(318,700,l),
(111,700,l),
(178,0,l)
);
}
);
width = 750;
},
{
anchors = (
{
name = bottom;
pos = (283,0);
},
{
name = top;
pos = (432,700);
}
);
layerId = "CB50C8AE-8F70-48CF-8EC5-5F1FEE22C006";
shapes = (
{
closed = 1;
nodes = (
(360,0,l),
(752,700,l),
(629,700,l),
(301,95,ls),
(296,86,o),
(284,86,o),
(284,95,cs),
(281,209,l),
(217,700,l),
(112,700,l),
(206,0,l)
);
}
);
width = 680;
},
{
anchors = (
{
name = bottom;
pos = (255,0);
},
{
name = top;
pos = (404,700);
}
);
layerId = "111500BD-850E-4B42-8F02-00848EDACCC3";
shapes = (
{
closed = 1;
nodes = (
(278,0,l),
(692,700,l),
(651,700,l),
(270,49,ls),
(265,40,o),
(257,39,o),
(255,49,cs),
(246,131,l),
(148,700,l),
(113,700,l),
(233,0,l)
);
}
);
width = 620;
}
);
unicode = 86;
userData = {
KernOnName = V;
com.schriftgestaltung.Glyphs.ColorIndex = 3;
};
},
{
glyphname = W;
kernLeft = KO_W;
kernRight = KO_W;
lastChange = "2026-03-20 13:35:31 +0000";
layers = (
{
anchors = (
{
name = bottom;
pos = (415,0);
},
{
name = top;
pos = (574,700);
}
);
layerId = "3917E251-E52F-4C58-ACE3-A75BE580C29C";
shapes = (
{
closed = 1;
nodes = (
(333,0,l),
(507,415,ls),
(514,431,o),
(528,431,o),
(528,415,cs),
(533,0,l),
(767,0,l),
(1053,700,l),
(852,700,l),
(697,263,ls),
(693,250,o),
(677,251,o),
(677,266,cs),
(669,700,l),
(480,700,l),
(288,262,ls),
(283,251,o),
(267,254,o),
(269,268,cs),
(288,380,l),
(297,700,l),
(111,700,l),
(99,0,l)
);
}
);
width = 946;
},
{
anchors = (
{
name = bottom;
pos = (424,0);
},
{
name = top;
pos = (573,700);
}
);
layerId = "CB50C8AE-8F70-48CF-8EC5-5F1FEE22C006";
shapes = (
{
closed = 1;
nodes = (
(281,0,l),
(518,499,ls),
(525,514,o),
(538,514,o),
(539,499,cs),
(566,0,l),
(683,0,l),
(1021,700,l),
(911,700,l),
(658,150,ls),
(652,137,o),
(636,138,o),
(636,149,cs),
(619,700,l),
(516,700,l),
(265,149,ls),
(260,137,o),
(245,137,o),
(245,150,cs),
(249,273,l),
(228,700,l),
(124,700,l),
(166,0,l)
);
}
);
width = 961;
},
{
anchors = (
{
name = bottom;
pos = (398,0);
},
{
name = top;
pos = (546,700);
}
);
layerId = "111500BD-850E-4B42-8F02-00848EDACCC3";
shapes = (
{
closed = 1;
nodes = (
(208,0,l),
(520,622,ls),
(529,640,o),
(537,640,o),
(538,622,cs),
(584,0,l),
(629,0,l),
(977,700,l),
(940,700,l),
(627,68,ls),
(620,54,o),
(609,51,o),
(608,67,cs),
(563,700,l),
(525,700,l),
(209,67,ls),
(201,52,o),
(191,53,o),
(191,68,cs),
(192,122,l),
(148,700,l),
(115,700,l),
(168,0,l)
);
}
);
width = 906;
}
);
unicode = 87;
userData = {
com.schriftgestaltung.Glyphs.ColorIndex = 3;
};
},
{
glyphname = X;
kernLeft = KO_X;
kernRight = KO_X;
lastChange = "2026-03-20 13:35:31 +0000";
layers = (
{
anchors = (
{
name = bottom;
pos = (343,0);
},
{
name = bottomright;
pos = (666,0);
},
{
name = center;
pos = (421,354);
},
{
name = top;
pos = (492,700);
}
);
layerId = "3917E251-E52F-4C58-ACE3-A75BE580C29C";
shapes = (
{
closed = 1;
nodes = (
(206,0,l),
(407,263,ls),
(417,276,o),
(429,274,o),
(431,260,cs),
(445,169,l),
(514,0,l),
(719,0,l),
(575,351,l),
(870,700,l),
(625,700,l),
(425,436,ls),
(414,422,o),
(402,425,o),
(400,440,cs),
(387,533,l),
(319,700,l),
(113,700,l),
(258,351,l),
(-38,0,l)
);
}
);
width = 799;
},
{
anchors = (
{
name = bottom;
pos = (297,0);
},
{
name = bottomright;
pos = (589,0);
},
{
name = center;
pos = (372,350);
},
{
name = top;
pos = (446,700);
}
);
layerId = "CB50C8AE-8F70-48CF-8EC5-5F1FEE22C006";
shapes = (
{
closed = 1;
nodes = (
(98,0,l),
(365,299,ls),
(375,310,o),
(383,308,o),
(386,297,cs),
(406,223,l),
(521,0,l),
(629,0,l),
(446,357,l),
(778,700,l),
(643,700,l),
(372,401,ls),
(363,391,o),
(354,392,o),
(351,405,cs),
(331,481,l),
(220,700,l),
(112,700,l),
(292,345,l),
(-37,0,l)
);
}
);
width = 706;
},
{
anchors = (
{
name = bottom;
pos = (261,0);
},
{
name = bottomright;
pos = (541,0);
},
{
name = center;
pos = (335,350);
},
{
name = top;
pos = (409,700);
}
);
layerId = "111500BD-850E-4B42-8F02-00848EDACCC3";
shapes = (
{
closed = 1;
nodes = (
(12,0,l),
(328,324,ls),
(336,332,o),
(341,329,o),
(343,324,cs),
(363,270,l),
(518,0,l),
(556,0,l),
(355,350,l),
(705,700,l),
(657,700,l),
(342,377,ls),
(335,369,o),
(327,368,o),
(324,377,cs),
(303,433,l),
(151,700,l),
(113,700,l),
(313,349,l),
(-35,0,l)
);
}
);
width = 632;
}
);
metricLeft = V;
metricRight = V;
unicode = 88;
userData = {
KernOnName = X;
com.schriftgestaltung.Glyphs.ColorIndex = 3;
com.schriftgestaltung.Glyphs.layer.leftMetricsKey = "==V";
com.schriftgestaltung.Glyphs.layer.rightMetricsKey = "==V";
com.schriftgestaltung.Glyphs.leftMetricsKey = T;
com.schriftgestaltung.Glyphs.rightMetricsKey = T;
};
},
{
glyphname = Y;
kernLeft = KO_Y;
kernRight = KO_Y;
lastChange = "2026-03-20 13:35:31 +0000";
layers = (
{
anchors = (
{
name = bottom;
pos = (302,0);
},
{
name = top;
pos = (451,700);
},
{
name = topleft;
pos = (111,700);
}
);
background = {
shapes = (
{
closed = 1;
nodes = (
(467,0,l),
(467,222,l),
(706,700,l),
(484,700,l),
(367,424,l),
(357,424,l),
(239,700,l),
(16,700,l),
(257,222,l),
(257,0,l)
);
}
);
};
layerId = "3917E251-E52F-4C58-ACE3-A75BE580C29C";
shapes = (
{
closed = 1;
nodes = (
(407,0,l),
(449,197,l),
(791,700,l),
(567,700,l),
(420,471,l),
(381,387,ls),
(375,372,o),
(359,376,o),
(360,391,cs),
(356,475,l),
(318,700,l),
(111,700,l),
(239,197,l),
(197,0,l)
);
}
);
width = 720;
},
{
anchors = (
{
name = bottom;
pos = (302,0);
},
{
name = top;
pos = (451,700);
},
{
name = topleft;
pos = (135,700);
}
);
layerId = "CB50C8AE-8F70-48CF-8EC5-5F1FEE22C006";
shapes = (
{
closed = 1;
nodes = (
(357,0,l),
(410,250,l),
(789,700,l),
(656,700,l),
(425,420,l),
(377,346,ls),
(371,337,o),
(358,337,o),
(356,346,cs),
(341,420,l),
(222,700,l),
(112,700,l),
(300,250,l),
(247,0,l)
);
}
);
width = 717;
},
{
anchors = (
{
name = bottom;
pos = (276,0);
},
{
name = top;
pos = (425,700);
},
{
name = topleft;
pos = (127,700);
}
);
layerId = "111500BD-850E-4B42-8F02-00848EDACCC3";
shapes = (
{
closed = 1;
nodes = (
(294,0,l),
(347,253,l),
(734,700,l),
(690,700,l),
(390,348,l),
(343,290,ls),
(335,280,o),
(325,280,o),
(322,290,cs),
(306,345,l),
(149,700,l),
(113,700,l),
(311,253,l),
(258,0,l)
);
}
);
width = 661;
}
);
unicode = 89;
userData = {
KernOnName = Y;
com.schriftgestaltung.Glyphs.ColorIndex = 3;
};
},
{
glyphname = Z;
kernLeft = KO_Z;
kernRight = KO_Z;
lastChange = "2026-03-20 13:35:31 +0000";
layers = (
{
anchors = (
{
name = bottom;
pos = (262,0);
},
{
name = top;
pos = (411,700);
}
);
layerId = "3917E251-E52F-4C58-ACE3-A75BE580C29C";
shapes = (
{
closed = 1;
nodes = (
(554,0,l),
(592,180,l),
(301,180,ls),
(285,180,o),
(283,191,o),
(302,205,cs),
(398,275,l),
(669,539,l),
(703,700,l),
(129,700,l),
(91,520,l),
(393,520,l),
(410,520,o),
(412,507,o),
(393,494,cs),
(289,420,l),
(16,161,l),
(-18,0,l)
);
}
);
width = 650;
},
{
anchors = (
{
name = bottom;
pos = (244,0);
},
{
name = top;
pos = (393,700);
}
);
layerId = "CB50C8AE-8F70-48CF-8EC5-5F1FEE22C006";
shapes = (
{
closed = 1;
nodes = (
(500,0,l),
(520,97,l),
(167,97,ls),
(159,97,o),
(158,105,o),
(165,111,cs),
(235,177,l),
(633,627,l),
(647,700,l),
(146,700,l),
(127,603,l),
(479,603,ls),
(485,603,o),
(487,595,o),
(481,589,cs),
(406,518,l),
(7,64,l),
(-12,0,l)
);
}
);
width = 602;
},
{
anchors = (
{
name = bottom;
pos = (229,0);
},
{
name = top;
pos = (377,700);
}
);
layerId = "111500BD-850E-4B42-8F02-00848EDACCC3";
shapes = (
{
closed = 1;
nodes = (
(453,0,l),
(460,32,l),
(55,32,ls),
(46,32,o),
(43,40,o),
(53,48,cs),
(90,79,l),
(592,671,l),
(597,700,l),
(157,700,l),
(151,668,l),
(539,668,ls),
(547,668,o),
(550,660,o),
(542,653,cs),
(505,621,l),
(2,27,l),
(-4,0,l)
);
}
);
width = 560;
}
);
metricLeft = "=I/2";
metricRight = "=I/2";
unicode = 90;
userData = {
com.schriftgestaltung.Glyphs.ColorIndex = 3;
com.schriftgestaltung.Glyphs.layer.leftMetricsKey = "==H/2";
com.schriftgestaltung.Glyphs.layer.rightMetricsKey = "==H/2";
};
},
{
glyphname = Saltillo;
lastChange = "2026-03-20 13:35:31 +0000";
layers = (
{
layerId = "3917E251-E52F-4C58-ACE3-A75BE580C29C";
shapes = (
{
closed = 1;
nodes = (
(201,257,l),
(295,700,l),
(141,700,l),
(47,257,l)
);
}
);
width = 254;
},
{
layerId = "CB50C8AE-8F70-48CF-8EC5-5F1FEE22C006";
shapes = (
{
closed = 1;
nodes = (
(162,316,l),
(244,700,l),
(159,700,l),
(77,316,l)
);
}
);
width = 219;
},
{
layerId = "111500BD-850E-4B42-8F02-00848EDACCC3";
shapes = (
{
closed = 1;
nodes = (
(130,363,l),
(202,700,l),
(171,700,l),
(100,363,l)
);
}
);
width = 187;
}
);
metricLeft = quotesingle;
metricRight = quotesingle;
unicode = 42891;
},
{
glyphname = I_J.loclNLD;
kernLeft = KO_I;
kernRight = KO_J;
lastChange = "2026-03-20 13:35:31 +0000";
layers = (
{
anchors = (
{
name = bottom_1;
pos = (123,0);
},
{
name = ogonek_1;
pos = (228,0);
},
{
name = top_1;
pos = (816,700);
},
{
name = topleft_1;
pos = (111,700);
}
);
layerId = "3917E251-E52F-4C58-ACE3-A75BE580C29C";
shapes = (
{
closed = 1;
nodes = (
(228,0,l),
(377,700,l),
(167,700,l),
(18,0,l)
);
},
{
closed = 1;
nodes = (
(657,-12,o),
(784,85,o),
(822,264,cs),
(915,700,l),
(705,700,l),
(612,264,ls),
(599,202,o),
(554,171,o),
(487,171,cs),
(457,171,o),
(440,176,o),
(419,182,c),
(381,3,l),
(406,-7,o),
(437,-12,o),
(482,-12,cs)
);
}
);
width = 900;
},
{
anchors = (
{
name = bottom_1;
pos = (86,0);
},
{
name = ogonek_1;
pos = (139,0);
},
{
name = top_1;
pos = (746,700);
},
{
name = topleft_1;
pos = (112,700);
}
);
layerId = "CB50C8AE-8F70-48CF-8EC5-5F1FEE22C006";
shapes = (
{
closed = 1;
nodes = (
(139,0,l),
(288,700,l),
(181,700,l),
(32,0,l)
);
},
{
closed = 1;
nodes = (
(559,-12,o),
(658,37,o),
(688,177,cs),
(799,700,l),
(693,700,l),
(586,197,ls),
(569,116,o),
(523,85,o),
(462,85,cs),
(416,85,o),
(369,99,o),
(343,121,c),
(322,22,l),
(358,-1,o),
(405,-12,o),
(457,-12,cs)
);
}
);
width = 797;
},
{
anchors = (
{
name = bottom_1;
pos = (64,0);
},
{
name = ogonek_1;
pos = (81,0);
},
{
name = top_1;
pos = (711,700);
},
{
name = topleft_1;
pos = (113,700);
}
);
layerId = "111500BD-850E-4B42-8F02-00848EDACCC3";
shapes = (
{
closed = 1;
nodes = (
(81,0,l),
(229,700,l),
(194,700,l),
(46,0,l)
);
},
{
closed = 1;
nodes = (
(508,-12,o),
(590,38,o),
(611,141,cs),
(730,700,l),
(695,700,l),
(577,149,ls),
(558,60,o),
(494,20,o),
(420,20,cs),
(362,20,o),
(314,45,o),
(298,67,c),
(290,35,l),
(308,14,o),
(356,-12,o),
(419,-12,cs)
);
}
);
width = 738;
}
);
},
{
color = 9;
glyphname = I_J.loclNLD.ss01;
kernLeft = KO_H;
lastChange = "2026-03-20 13:35:31 +0000";
layers = (
{
anchors = (
{
name = bottom_1;
pos = (123,0);
},
{
name = ogonek_1;
pos = (228,0);
},
{
name = top_1;
pos = (816,700);
},
{
name = topleft_1;
pos = (111,700);
}
);
layerId = "3917E251-E52F-4C58-ACE3-A75BE580C29C";
shapes = (
{
closed = 1;
nodes = (
(228,0,l),
(377,700,l),
(167,700,l),
(18,0,l)
);
},
{
closed = 1;
nodes = (
(657,-12,o),
(784,85,o),
(822,264,cs),
(915,700,l),
(705,700,l),
(612,264,ls),
(599,202,o),
(554,171,o),
(487,171,cs),
(457,171,o),
(440,176,o),
(419,182,c),
(381,3,l),
(406,-7,o),
(437,-12,o),
(482,-12,cs)
);
}
);
width = 900;
},
{
anchors = (
{
name = bottom_1;
pos = (86,0);
},
{
name = ogonek_1;
pos = (139,0);
},
{
name = top_1;
pos = (746,700);
},
{
name = topleft_1;
pos = (112,700);
}
);
layerId = "CB50C8AE-8F70-48CF-8EC5-5F1FEE22C006";
shapes = (
{
closed = 1;
nodes = (
(139,0,l),
(288,700,l),
(181,700,l),
(32,0,l)
);
},
{
closed = 1;
nodes = (
(559,-12,o),
(658,37,o),
(688,177,cs),
(799,700,l),
(693,700,l),
(586,197,ls),
(569,116,o),
(523,85,o),
(462,85,cs),
(416,85,o),
(369,99,o),
(343,121,c),
(322,22,l),
(358,-1,o),
(405,-12,o),
(457,-12,cs)
);
}
);
width = 797;
},
{
anchors = (
{
name = bottom_1;
pos = (64,0);
},
{
name = ogonek_1;
pos = (81,0);
},
{
name = top_1;
pos = (711,700);
},
{
name = topleft_1;
pos = (113,700);
}
);
layerId = "111500BD-850E-4B42-8F02-00848EDACCC3";
shapes = (
{
closed = 1;
nodes = (
(81,0,l),
(229,700,l),
(194,700,l),
(46,0,l)
);
},
{
closed = 1;
nodes = (
(508,-12,o),
(590,38,o),
(611,141,cs),
(730,700,l),
(695,700,l),
(577,149,ls),
(558,60,o),
(494,20,o),
(420,20,cs),
(362,20,o),
(314,45,o),
(298,67,c),
(290,35,l),
(308,14,o),
(356,-12,o),
(419,-12,cs)
);
}
);
width = 738;
}
);
},
{
glyphname = a;
kernLeft = KO_a;
kernRight = KO_a;
lastChange = "2026-03-20 13:35:31 +0000";
layers = (
{
anchors = (
{
name = bottom;
pos = (264,0);
},
{
name = ogonek;
pos = (557,10);
},
{
name = top;
pos = (380,546);
}
);
background = {
shapes = (
{
ref = o;
}
);
};
layerId = "3917E251-E52F-4C58-ACE3-A75BE580C29C";
shapes = (
{
closed = 1;
nodes = (
(321,-12,o),
(337,-10,o),
(357,-6,c),
(400,25,ls),
(410,32,o),
(416,32,o),
(424,29,cs),
(527,-12,l),
(622,160,l),
(547,187,l),
(626,558,l),
(482,534,ls),
(470,532,o),
(463,533,o),
(451,538,cs),
(410,554,l),
(390,557,o),
(374,558,o),
(357,558,cs),
(159,558,o),
(36,411,o),
(36,235,cs),
(34,80,o),
(149,-12,o),
(297,-12,cs)
);
},
{
closed = 1;
nodes = (
(254,150,o),
(223,180,o),
(224,235,cs),
(224,303,o),
(260,396,o),
(347,396,cs),
(369,396,o),
(385,392,o),
(403,383,c),
(357,162,l),
(342,154,o),
(333,150,o),
(307,150,cs)
);
}
);
width = 663;
},
{
anchors = (
{
name = bottom;
pos = (230,0);
},
{
name = ogonek;
pos = (494,10);
},
{
name = top;
pos = (344,535);
}
);
layerId = "CB50C8AE-8F70-48CF-8EC5-5F1FEE22C006";
shapes = (
{
closed = 1;
nodes = (
(267,-12,o),
(304,-7,o),
(354,24,c),
(371,39,ls),
(377,45,o),
(384,45,o),
(391,42,cs),
(502,-9,l),
(551,79,l),
(468,115,l),
(561,541,l),
(484,526,ls),
(475,524,o),
(470,524,o),
(463,527,cs),
(428,542,l),
(407,545,o),
(384,547,o),
(361,547,cs),
(165,547,o),
(45,377,o),
(45,215,cs),
(45,88,o),
(110,-12,o),
(236,-12,cs)
);
},
{
closed = 1;
nodes = (
(178,73,o),
(149,140,o),
(149,213,cs),
(149,306,o),
(211,462,o),
(361,462,cs),
(385,462,o),
(413,458,o),
(439,449,c),
(370,130,l),
(327,87,o),
(292,73,o),
(265,73,cs)
);
}
);
width = 606;
},
{
anchors = (
{
name = bottom;
pos = (221,0);
},
{
name = ogonek;
pos = (472,10);
},
{
name = top;
pos = (333,524);
}
);
layerId = "111500BD-850E-4B42-8F02-00848EDACCC3";
shapes = (
{
closed = 1;
nodes = (
(275,-12,o),
(319,3,o),
(348,23,c),
(362,37,ls),
(368,43,o),
(375,43,o),
(382,40,cs),
(493,-10,l),
(510,20,l),
(411,66,l),
(511,525,l),
(481,510,ls),
(473,507,o),
(469,509,o),
(465,511,cs),
(434,526,l),
(411,531,o),
(385,536,o),
(355,536,cs),
(148,536,o),
(56,349,o),
(56,206,cs),
(56,88,o),
(108,-12,o),
(238,-12,cs)
);
},
{
closed = 1;
nodes = (
(132,19,o),
(91,102,o),
(91,205,cs),
(91,334,o),
(170,505,o),
(355,505,cs),
(402,505,o),
(433,493,o),
(466,479,c),
(380,82,l),
(326,35,o),
(287,19,o),
(242,19,cs)
);
}
);
width = 571;
}
);
unicode = 97;
userData = {
KernOnName = a;
com.schriftgestaltung.Glyphs.ColorIndex = 3;
com.typemytype.robofont.layerData = {
background = {
anchors = (
);
components = (
{
baseGlyph = n;
transformation = (
1,
0,
0,
1,
-5,
0
);
}
);
contours = (
);
lib = {
};
name = a;
unicodes = (
);
width = 491;
};
};
};
},
{
glyphname = aogonek;
kernLeft = KO_a;
kernRight = KO_a;
lastChange = "2026-03-20 13:35:31 +0000";
layers = (
{
background = {
shapes = (
{
ref = a;
}
);
};
layerId = "3917E251-E52F-4C58-ACE3-A75BE580C29C";
shapes = (
{
closed = 1;
nodes = (
(585,-149,l),
(532,-154,o),
(504,-132,o),
(504,-92,cs),
(504,-69,o),
(515,-34,o),
(527,-12,cs),
(622,160,l),
(547,187,l),
(626,558,l),
(482,534,ls),
(470,532,o),
(463,533,o),
(451,538,cs),
(410,554,l),
(390,557,o),
(374,558,o),
(357,558,cs),
(159,558,o),
(36,411,o),
(36,235,cs),
(34,80,o),
(149,-12,o),
(297,-12,cs),
(321,-12,o),
(337,-10,o),
(357,-6,c),
(400,25,ls),
(410,32,o),
(416,33,o),
(424,29,cs),
(432,25,l),
(389,-31,o),
(372,-70,o),
(372,-122,cs),
(372,-217,o),
(455,-258,o),
(563,-254,c)
);
},
{
closed = 1;
nodes = (
(254,150,o),
(223,180,o),
(224,235,cs),
(224,303,o),
(260,396,o),
(347,396,cs),
(369,396,o),
(385,392,o),
(403,383,c),
(357,162,l),
(342,154,o),
(333,150,o),
(307,150,cs)
);
}
);
width = 666;
},
{
layerId = "CB50C8AE-8F70-48CF-8EC5-5F1FEE22C006";
shapes = (
{
closed = 1;
nodes = (
(538,-169,l),
(490,-164,o),
(463,-142,o),
(463,-105,cs),
(463,-80,o),
(470,-64,o),
(502,-9,cs),
(551,79,l),
(468,115,l),
(561,541,l),
(484,526,ls),
(475,524,o),
(470,524,o),
(463,527,cs),
(428,542,l),
(407,545,o),
(384,547,o),
(362,547,cs),
(166,547,o),
(45,377,o),
(45,215,cs),
(45,88,o),
(110,-12,o),
(236,-12,cs),
(267,-12,o),
(305,-7,o),
(355,24,c),
(371,39,ls),
(377,45,o),
(384,45,o),
(391,42,cs),
(434,22,l),
(397,-26,o),
(378,-69,o),
(378,-120,cs),
(378,-196,o),
(429,-237,o),
(512,-243,c)
);
},
{
closed = 1;
nodes = (
(178,73,o),
(149,140,o),
(149,213,cs),
(149,306,o),
(211,462,o),
(362,462,cs),
(386,462,o),
(411,459,o),
(440,449,c),
(370,130,l),
(327,87,o),
(292,73,o),
(265,73,cs)
);
}
);
width = 611;
},
{
layerId = "111500BD-850E-4B42-8F02-00848EDACCC3";
shapes = (
{
closed = 1;
nodes = (
(527,-193,l),
(486,-178,o),
(464,-147,o),
(464,-107,cs),
(464,-82,o),
(473,-51,o),
(495,-10,cs),
(511,20,l),
(413,66,l),
(513,525,l),
(482,510,ls),
(475,507,o),
(471,509,o),
(467,511,cs),
(436,526,l),
(413,531,o),
(387,536,o),
(357,536,cs),
(150,536,o),
(58,349,o),
(58,206,cs),
(58,88,o),
(110,-12,o),
(240,-12,cs),
(277,-12,o),
(319,2,o),
(350,23,c),
(364,37,ls),
(370,43,o),
(376,43,o),
(384,40,cs),
(470,1,l),
(445,-39,o),
(433,-78,o),
(433,-112,cs),
(433,-168,o),
(465,-205,o),
(512,-217,c)
);
},
{
closed = 1;
nodes = (
(134,19,o),
(93,102,o),
(93,205,cs),
(93,334,o),
(171,505,o),
(357,505,cs),
(403,505,o),
(435,493,o),
(468,479,c),
(381,82,l),
(329,36,o),
(289,19,o),
(243,19,cs)
);
}
);
width = 583;
}
);
unicode = 261;
},
{
glyphname = ae;
kernLeft = KO_ae;
kernRight = KO_e;
lastChange = "2026-03-20 13:35:31 +0000";
layers = (
{
anchors = (
{
name = bottom;
pos = (441,0);
},
{
name = top;
pos = (557,546);
}
);
background = {
shapes = (
{
pos = (300,0);
ref = e;
}
);
};
layerId = "3917E251-E52F-4C58-ACE3-A75BE580C29C";
shapes = (
{
closed = 1;
nodes = (
(750,-12,o),
(825,14,o),
(885,71,c),
(799,183,l),
(760,153,o),
(720,136,o),
(676,136,cs),
(617,136,o),
(580,169,o),
(582,216,c),
(919,216,l),
(967,277,l),
(973,301,o),
(975,325,o),
(975,348,cs),
(977,469,o),
(897,558,o),
(739,558,cs),
(666,558,o),
(597,529,o),
(553,490,cs),
(539,477,o),
(536,481,o),
(526,493,cs),
(488,537,o),
(435,559,o),
(355,559,cs),
(266,559,o),
(180,531,o),
(120,488,c),
(133,352,l),
(199,389,o),
(262,407,o),
(321,407,cs),
(397,407,o),
(418,380,o),
(411,349,cs),
(408,335,l),
(310,335,ls),
(141,335,o),
(56,276,o),
(36,184,cs),
(14,81,o),
(87,-11,o),
(224,-11,cs),
(309,-11,o),
(395,10,o),
(458,78,cs),
(469,91,o),
(480,91,o),
(486,80,cs),
(523,15,o),
(586,-12,o),
(672,-12,cs)
);
},
{
closed = 1;
nodes = (
(225,121,o),
(199,136,o),
(205,165,cs),
(211,192,o),
(240,206,o),
(282,206,cs),
(300,206,l),
(366,217,ls),
(373,218,o),
(383,217,o),
(381,207,cs),
(376,185,ls),
(369,151,o),
(323,121,o),
(265,121,cs)
);
},
{
closed = 1;
nodes = (
(619,382,o),
(661,419,o),
(725,419,cs),
(783,419,o),
(806,383,o),
(806,351,cs),
(806,345,o),
(805,339,o),
(803,333,c),
(601,333,l)
);
}
);
width = 998;
},
{
anchors = (
{
name = bottom;
pos = (406,0);
},
{
name = top;
pos = (520,535);
}
);
layerId = "CB50C8AE-8F70-48CF-8EC5-5F1FEE22C006";
shapes = (
{
closed = 1;
nodes = (
(680,-12,o),
(756,11,o),
(825,96,c),
(757,144,l),
(706,91,o),
(664,73,o),
(612,73,cs),
(534,73,o),
(480,128,o),
(496,232,c),
(839,232,l),
(873,282,l),
(881,313,o),
(885,344,o),
(885,372,cs),
(884,468,o),
(822,547,o),
(698,547,cs),
(621,547,o),
(561,514,o),
(513,460,cs),
(499,446,o),
(494,447,o),
(487,461,cs),
(462,515,o),
(402,547,o),
(322,547,cs),
(237,547,o),
(176,520,o),
(113,477,c),
(127,399,l),
(185,440,o),
(249,459,o),
(306,459,cs),
(393,459,o),
(426,415,o),
(412,349,cs),
(405,314,l),
(272,316,ls),
(137,316,o),
(53,264,o),
(33,173,cs),
(10,66,o),
(89,-10,o),
(203,-10,cs),
(286,-10,o),
(361,40,o),
(401,93,cs),
(412,107,o),
(422,106,o),
(427,91,cs),
(444,43,o),
(501,-12,o),
(612,-12,cs)
);
},
{
closed = 1;
nodes = (
(155,75,o),
(118,115,o),
(127,157,cs),
(137,206,o),
(177,232,o),
(249,232,cs),
(309,232,l),
(373,246,ls),
(386,249,o),
(389,241,o),
(387,234,cs),
(378,191,ls),
(364,125,o),
(307,75,o),
(218,75,cs)
);
},
{
closed = 1;
nodes = (
(538,390,o),
(595,462,o),
(687,462,cs),
(752,462,o),
(792,424,o),
(792,361,cs),
(792,347,o),
(789,329,o),
(785,313,c),
(513,313,l)
);
}
);
width = 926;
},
{
anchors = (
{
name = bottom;
pos = (394,0);
},
{
name = top;
pos = (504,524);
}
);
layerId = "111500BD-850E-4B42-8F02-00848EDACCC3";
shapes = (
{
closed = 1;
nodes = (
(650,-12,o),
(728,6,o),
(790,74,c),
(767,93,l),
(713,37,o),
(653,19,o),
(596,19,cs),
(452,19,o),
(433,163,o),
(448,259,c),
(823,259,l),
(843,275,l),
(850,299,o),
(853,326,o),
(853,350,cs),
(852,450,o),
(798,536,o),
(681,536,cs),
(597,536,o),
(528,499,o),
(478,421,cs),
(470,409,o),
(464,411,o),
(461,424,cs),
(450,486,o),
(389,536,o),
(304,536,cs),
(235,536,o),
(170,516,o),
(114,474,c),
(119,446,l),
(168,484,o),
(233,505,o),
(297,505,cs),
(377,505,o),
(453,458,o),
(430,353,cs),
(416,289,l),
(257,289,ls),
(131,289,o),
(48,239,o),
(31,157,cs),
(11,61,o),
(79,-9,o),
(186,-9,cs),
(291,-9,o),
(374,59,o),
(399,130,cs),
(406,149,o),
(417,144,o),
(421,128,cs),
(439,57,o),
(487,-12,o),
(596,-12,cs)
);
},
{
closed = 1;
nodes = (
(95,21,o),
(51,81,o),
(65,152,cs),
(80,223,o),
(152,259,o),
(250,259,cs),
(326,259,l),
(400,267,ls),
(407,268,o),
(411,262,o),
(410,257,cs),
(395,186,ls),
(371,75,o),
(280,21,o),
(191,21,cs)
);
},
{
closed = 1;
nodes = (
(476,398,o),
(548,505,o),
(679,505,cs),
(777,505,o),
(819,429,o),
(820,349,cs),
(821,326,o),
(817,311,o),
(811,289,c),
(453,289,l)
);
}
);
width = 906;
}
);
metricLeft = a;
metricRight = e;
unicode = 230;
userData = {
com.schriftgestaltung.Glyphs.leftMetricsKey = a;
com.schriftgestaltung.Glyphs.rightMetricsKey = e;
};
},
{
glyphname = b;
kernLeft = KO_h;
kernRight = KO_p;
lastChange = "2026-03-20 13:35:31 +0000";
layers = (
{
anchors = (
{
name = bottom;
pos = (276,0);
},
{
name = center;
pos = (266,641);
},
{
name = top;
pos = (392,546);
}
);
background = {
anchors = (
{
name = bottom;
pos = (-1160,0);
},
{
name = center;
pos = (-1122,273);
},
{
name = top;
pos = (-1084,546);
}
);
shapes = (
{
angle = 180;
pos = (640,546);
ref = a;
},
{
ref = h;
}
);
};
layerId = "3917E251-E52F-4C58-ACE3-A75BE580C29C";
shapes = (
{
closed = 1;
nodes = (
(518,-12,o),
(605,197,o),
(605,342,cs),
(605,485,o),
(498,558,o),
(417,558,cs),
(406,558,o),
(397,557,o),
(389,555,c),
(334,524,ls),
(322,517,o),
(312,524,o),
(314,535,cs),
(361,750,l),
(168,750,l),
(7,-11,l),
(151,11,ls),
(163,13,o),
(171,12,o),
(183,8,cs),
(223,-6,l),
(242,-10,o),
(258,-12,o),
(274,-12,cs)
);
},
{
closed = 1;
nodes = (
(269,150,o),
(254,155,o),
(237,163,c),
(283,385,l),
(302,393,o),
(312,396,o),
(336,396,cs),
(375,396,o),
(416,374,o),
(416,316,cs),
(416,227,o),
(371,150,o),
(294,150,cs)
);
}
);
width = 635;
},
{
anchors = (
{
name = bottom;
pos = (243,0);
},
{
name = center;
pos = (213,636);
},
{
name = top;
pos = (357,535);
}
);
layerId = "CB50C8AE-8F70-48CF-8EC5-5F1FEE22C006";
shapes = (
{
closed = 1;
nodes = (
(413,-12,o),
(533,158,o),
(533,320,cs),
(533,447,o),
(468,547,o),
(342,547,cs),
(326,547,o),
(316,546,o),
(301,542,c),
(245,503,ls),
(235,498,o),
(227,501,o),
(229,512,cs),
(280,750,l),
(180,750,l),
(17,-6,l),
(94,9,ls),
(102,11,o),
(110,11,o),
(117,8,cs),
(150,-7,l),
(171,-10,o),
(194,-12,o),
(217,-12,cs)
);
},
{
closed = 1;
nodes = (
(193,73,o),
(165,77,o),
(139,86,c),
(206,404,l),
(247,442,o),
(280,462,o),
(313,462,cs),
(400,462,o),
(429,395,o),
(429,322,cs),
(429,229,o),
(367,73,o),
(217,73,cs)
);
}
);
width = 578;
},
{
anchors = (
{
name = bottom;
pos = (234,0);
},
{
name = center;
pos = (190,633);
},
{
name = top;
pos = (346,524);
}
);
layerId = "111500BD-850E-4B42-8F02-00848EDACCC3";
shapes = (
{
closed = 1;
nodes = (
(398,-12,o),
(490,174,o),
(490,318,cs),
(490,436,o),
(438,536,o),
(308,536,cs),
(286,536,o),
(257,531,o),
(229,518,c),
(188,491,ls),
(180,487,o),
(175,490,o),
(176,497,cs),
(230,750,l),
(195,750,l),
(35,-1,l),
(66,13,ls),
(72,16,o),
(77,15,o),
(82,13,cs),
(112,-2,l),
(136,-8,o),
(161,-12,o),
(191,-12,cs)
);
},
{
closed = 1;
nodes = (
(145,19,o),
(113,31,o),
(80,45,c),
(165,441,l),
(204,475,o),
(249,505,o),
(304,505,cs),
(414,505,o),
(455,422,o),
(455,319,cs),
(455,190,o),
(377,19,o),
(191,19,cs)
);
}
);
width = 546;
}
);
metricRight = o;
unicode = 98;
userData = {
com.schriftgestaltung.Glyphs.ColorIndex = 3;
com.schriftgestaltung.Glyphs.layer.leftMetricsKey = "==h-45";
com.schriftgestaltung.Glyphs.layer.rightMetricsKey = "==o";
com.schriftgestaltung.Glyphs.leftMetricsKey = "=h-45";
com.typemytype.robofont.layerData = {
background = {
anchors = (
);
components = (
{
baseGlyph = a;
transformation = (
-1,
0,
0,
1,
491,
0
);
}
);
contours = (
);
lib = {
};
name = b;
unicodes = (
);
width = 527;
};
};
};
},
{
color = 4;
glyphname = bstroke;
lastChange = "2026-03-20 13:35:31 +0000";
layers = (
{
layerId = "3917E251-E52F-4C58-ACE3-A75BE580C29C";
shapes = (
{
closed = 1;
nodes = (
(518,-12,o),
(605,197,o),
(605,342,cs),
(605,485,o),
(498,558,o),
(417,558,cs),
(406,558,o),
(397,557,o),
(389,555,c),
(334,524,ls),
(322,517,o),
(312,524,o),
(314,535,cs),
(327,596,l),
(443,596,l),
(469,706,l),
(351,706,l),
(361,750,l),
(168,750,l),
(159,706,l),
(96,706,l),
(70,596,l),
(135,596,l),
(7,-11,l),
(151,11,ls),
(163,13,o),
(171,12,o),
(183,8,cs),
(223,-6,l),
(242,-10,o),
(258,-12,o),
(274,-12,cs)
);
},
{
closed = 1;
nodes = (
(269,150,o),
(254,155,o),
(237,163,c),
(283,385,l),
(302,393,o),
(312,396,o),
(336,396,cs),
(375,396,o),
(416,374,o),
(416,316,cs),
(416,227,o),
(371,150,o),
(294,150,cs)
);
}
);
width = 635;
},
{
layerId = "CB50C8AE-8F70-48CF-8EC5-5F1FEE22C006";
shapes = (
{
closed = 1;
nodes = (
(413,-12,o),
(533,158,o),
(533,320,cs),
(533,447,o),
(468,547,o),
(342,547,cs),
(326,547,o),
(316,546,o),
(301,542,c),
(245,503,l),
(235,498,o),
(227,501,o),
(229,512,cs),
(248,598,l),
(357,598,l),
(375,674,l),
(264,674,l),
(280,750,l),
(180,750,l),
(164,674,l),
(68,674,l),
(51,598,l),
(148,598,l),
(17,-6,l),
(94,9,ls),
(102,11,o),
(110,11,o),
(117,8,cs),
(150,-7,l),
(171,-10,o),
(194,-12,o),
(217,-12,cs)
);
},
{
closed = 1;
nodes = (
(193,73,o),
(165,77,o),
(139,86,c),
(206,404,l),
(247,442,o),
(280,462,o),
(313,462,cs),
(400,462,o),
(429,395,o),
(429,322,cs),
(429,229,o),
(367,73,o),
(217,73,cs)
);
}
);
width = 578;
},
{
layerId = "111500BD-850E-4B42-8F02-00848EDACCC3";
shapes = (
{
closed = 1;
nodes = (
(398,-12,o),
(490,174,o),
(490,318,cs),
(490,436,o),
(438,536,o),
(308,536,cs),
(286,536,o),
(257,531,o),
(229,518,c),
(188,491,l),
(180,487,o),
(175,490,o),
(176,497,cs),
(202,621,l),
(316,621,l),
(321,646,l),
(208,646,l),
(230,750,l),
(195,750,l),
(173,646,l),
(62,646,l),
(56,621,l),
(167,621,l),
(35,-1,l),
(66,13,ls),
(72,16,o),
(77,15,o),
(82,13,cs),
(112,-2,l),
(136,-8,o),
(161,-12,o),
(191,-12,cs)
);
},
{
closed = 1;
nodes = (
(145,19,o),
(113,31,o),
(80,45,c),
(165,441,l),
(204,475,o),
(249,505,o),
(304,505,cs),
(414,505,o),
(455,422,o),
(455,319,cs),
(455,190,o),
(377,19,o),
(191,19,cs)
);
}
);
width = 546;
}
);
unicode = 384;
},
{
glyphname = c;
kernLeft = KO_o;
kernRight = KO_c;
lastChange = "2026-03-20 13:35:31 +0000";
layers = (
{
anchors = (
{
name = bottom;
pos = (267,0);
},
{
name = center;
pos = (255,273);
},
{
name = top;
pos = (345,546);
}
);
background = {
anchors = (
{
name = bottom;
pos = (226,0);
},
{
name = center;
pos = (262,255);
},
{
name = ogonek;
pos = (447,10);
},
{
name = top;
pos = (298,510);
},
{
name = topright;
pos = (552,510);
}
);
shapes = (
{
ref = o;
}
);
};
layerId = "3917E251-E52F-4C58-ACE3-A75BE580C29C";
shapes = (
{
closed = 1;
nodes = (
(348,-11,o),
(396,3,o),
(434,26,c),
(401,170,l),
(379,156,o),
(346,145,o),
(313,145,cs),
(252,145,o),
(217,180,o),
(223,252,cs),
(228,316,o),
(265,401,o),
(350,401,cs),
(382,401,o),
(413,390,o),
(434,367,c),
(516,503,l),
(480,536,o),
(425,557,o),
(357,557,cs),
(159,557,o),
(36,408,o),
(36,232,cs),
(38,82,o),
(151,-11,o),
(298,-11,cs)
);
}
);
width = 499;
},
{
anchors = (
{
name = bottom;
pos = (233,0);
},
{
name = center;
pos = (241,267);
},
{
name = top;
pos = (340,535);
}
);
layerId = "CB50C8AE-8F70-48CF-8EC5-5F1FEE22C006";
shapes = (
{
closed = 1;
nodes = (
(301,-12,o),
(363,7,o),
(413,40,c),
(386,115,l),
(350,91,o),
(307,75,o),
(256,75,cs),
(181,75,o),
(137,138,o),
(142,231,cs),
(149,330,o),
(198,461,o),
(325,461,cs),
(370,461,o),
(404,444,o),
(432,419,c),
(490,488,l),
(452,524,o),
(396,546,o),
(341,546,cs),
(137,546,o),
(56,380,o),
(46,227,cs),
(38,98,o),
(98,-12,o),
(239,-12,cs)
);
}
);
width = 486;
},
{
anchors = (
{
name = bottom;
pos = (224,0);
},
{
name = center;
pos = (226,262);
},
{
name = top;
pos = (334,524);
}
);
layerId = "111500BD-850E-4B42-8F02-00848EDACCC3";
shapes = (
{
closed = 1;
nodes = (
(294,-12,o),
(340,2,o),
(380,28,c),
(374,55,l),
(340,32,o),
(296,19,o),
(241,19,cs),
(133,19,o),
(90,101,o),
(91,208,cs),
(92,338,o),
(163,505,o),
(334,505,cs),
(374,505,o),
(408,495,o),
(442,473,c),
(460,498,l),
(425,523,o),
(382,536,o),
(336,536,cs),
(140,536,o),
(59,351,o),
(57,207,cs),
(56,90,o),
(108,-12,o),
(239,-12,cs)
);
}
);
width = 455;
}
);
metricLeft = o;
unicode = 99;
userData = {
KernOnName = c;
com.schriftgestaltung.Glyphs.ColorIndex = 3;
com.schriftgestaltung.Glyphs.layer.leftMetricsKey = "==o";
com.schriftgestaltung.Glyphs.leftMetricsKey = o;
};
},
{
color = 4;
glyphname = d;
kernLeft = KO_d;
kernRight = KO_d;
lastChange = "2026-03-20 13:35:31 +0000";
layers = (
{
anchors = (
{
name = bottom;
pos = (270,0);
},
{
name = center;
pos = (483,273);
},
{
name = ogonek;
pos = (527,-12);
},
{
name = top;
pos = (386,546);
},
{
name = topright;
pos = (753,750);
}
);
background = {
shapes = (
{
ref = a;
}
);
};
guides = (
{
angle = 82;
pos = (1774,389);
},
{
angle = 82;
pos = (1982,558);
}
);
layerId = "3917E251-E52F-4C58-ACE3-A75BE580C29C";
shapes = (
{
closed = 1;
nodes = (
(317,-12,o),
(334,-9,o),
(359,-6,c),
(400,25,ls),
(409,32,o),
(416,32,o),
(424,29,cs),
(527,-12,l),
(622,160,l),
(547,187,l),
(667,750,l),
(483,750,l),
(437,544,ls),
(436,538,o),
(432,536,o),
(426,538,cs),
(376,558,l),
(367,558,o),
(361,558,o),
(352,558,cs),
(140,558,o),
(35,381,o),
(35,234,cs),
(33,65,o),
(157,-12,o),
(287,-12,cs)
);
},
{
closed = 1;
nodes = (
(254,150,o),
(223,180,o),
(224,235,cs),
(224,303,o),
(260,396,o),
(347,396,cs),
(369,396,o),
(385,392,o),
(403,383,c),
(357,162,l),
(342,154,o),
(333,150,o),
(307,150,cs)
);
}
);
width = 663;
},
{
anchors = (
{
name = bottom;
pos = (233,0);
},
{
name = center;
pos = (448,267);
},
{
name = ogonek;
pos = (503,-9);
},
{
name = top;
pos = (347,535);
},
{
name = topright;
pos = (689,750);
}
);
layerId = "CB50C8AE-8F70-48CF-8EC5-5F1FEE22C006";
shapes = (
{
closed = 1;
nodes = (
(281,-12,o),
(314,0,o),
(354,24,c),
(371,39,ls),
(377,45,o),
(384,45,o),
(391,42,cs),
(502,-9,l),
(551,79,l),
(468,115,l),
(602,750,l),
(503,750,l),
(458,546,ls),
(456,535,o),
(450,532,o),
(441,536,cs),
(428,542,l),
(407,545,o),
(384,547,o),
(361,547,cs),
(165,547,o),
(45,377,o),
(45,215,cs),
(45,88,o),
(110,-12,o),
(236,-12,cs)
);
},
{
closed = 1;
nodes = (
(178,73,o),
(149,140,o),
(149,213,cs),
(149,306,o),
(211,462,o),
(361,462,cs),
(384,462,o),
(410,459,o),
(438,449,c),
(370,130,l),
(327,87,o),
(292,73,o),
(265,73,cs)
);
}
);
width = 606;
},
{
anchors = (
{
name = bottom;
pos = (227,0);
},
{
name = center;
pos = (435,262);
},
{
name = ogonek;
pos = (499,-8);
},
{
name = top;
pos = (339,524);
},
{
name = topright;
pos = (667,750);
}
);
layerId = "111500BD-850E-4B42-8F02-00848EDACCC3";
shapes = (
{
closed = 1;
nodes = (
(278,-12,o),
(313,1,o),
(348,23,c),
(363,38,ls),
(370,44,o),
(376,43,o),
(384,39,cs),
(493,-10,l),
(510,20,l),
(411,66,l),
(557,750,l),
(523,750,l),
(473,519,ls),
(472,512,o),
(466,510,o),
(460,513,cs),
(435,526,l),
(412,531,o),
(386,536,o),
(355,536,cs),
(148,536,o),
(56,349,o),
(56,206,cs),
(56,88,o),
(108,-12,o),
(238,-12,cs)
);
},
{
closed = 1;
nodes = (
(132,19,o),
(91,102,o),
(91,205,cs),
(91,334,o),
(170,505,o),
(355,505,cs),
(401,505,o),
(431,494,o),
(465,480,c),
(380,82,l),
(331,41,o),
(294,19,o),
(242,19,cs)
);
}
);
width = 571;
}
);
metricLeft = o;
unicode = 100;
userData = {
KernOnName = d;
com.schriftgestaltung.Glyphs.ColorIndex = 3;
com.schriftgestaltung.Glyphs.layer.leftMetricsKey = "==o";
com.schriftgestaltung.Glyphs.layer.rightMetricsKey = "==i";
com.schriftgestaltung.Glyphs.rightMetricsKey = l;
};
},
{
color = 4;
glyphname = dcroat;
kernLeft = KO_d;
kernRight = KO_d;
lastChange = "2026-03-20 13:35:31 +0000";
layers = (
{
background = {
shapes = (
{
pos = (312,0);
ref = bstroke;
}
);
};
layerId = "3917E251-E52F-4C58-ACE3-A75BE580C29C";
shapes = (
{
closed = 1;
nodes = (
(317,-12,o),
(334,-9,o),
(359,-6,c),
(400,25,ls),
(409,32,o),
(416,32,o),
(424,29,cs),
(527,-12,l),
(622,160,l),
(547,187,l),
(634,596,l),
(679,596,l),
(704,706,l),
(658,706,l),
(667,750,l),
(483,750,l),
(473,706,l),
(368,706,l),
(344,596,l),
(449,596,l),
(437,544,ls),
(436,538,o),
(432,536,o),
(426,538,cs),
(376,557,l),
(368,558,o),
(360,558,o),
(352,558,cs),
(140,558,o),
(35,381,o),
(35,234,cs),
(33,65,o),
(157,-12,o),
(287,-12,cs)
);
},
{
closed = 1;
nodes = (
(254,150,o),
(223,180,o),
(224,235,cs),
(224,303,o),
(260,396,o),
(347,396,cs),
(369,396,o),
(385,392,o),
(403,383,c),
(357,162,l),
(342,154,o),
(333,150,o),
(307,150,cs)
);
}
);
width = 663;
},
{
layerId = "CB50C8AE-8F70-48CF-8EC5-5F1FEE22C006";
shapes = (
{
closed = 1;
nodes = (
(281,-12,o),
(314,0,o),
(354,24,c),
(371,39,ls),
(376,44,o),
(384,45,o),
(391,42,cs),
(502,-9,l),
(551,79,l),
(468,115,l),
(569,598,l),
(669,598,l),
(686,674,l),
(586,674,l),
(602,750,l),
(503,750,l),
(486,674,l),
(380,674,l),
(362,598,l),
(469,598,l),
(458,546,ls),
(456,535,o),
(450,532,o),
(441,536,cs),
(428,542,l),
(407,545,o),
(384,547,o),
(361,547,cs),
(165,547,o),
(45,377,o),
(45,215,cs),
(45,88,o),
(110,-12,o),
(236,-12,cs)
);
},
{
closed = 1;
nodes = (
(178,73,o),
(149,140,o),
(149,213,cs),
(149,306,o),
(211,462,o),
(361,462,cs),
(384,462,o),
(410,459,o),
(438,449,c),
(370,130,l),
(327,87,o),
(292,73,o),
(265,73,cs)
);
}
);
width = 606;
},
{
layerId = "111500BD-850E-4B42-8F02-00848EDACCC3";
shapes = (
{
closed = 1;
nodes = (
(278,-12,o),
(313,1,o),
(348,23,c),
(363,38,ls),
(370,44,o),
(376,43,o),
(384,39,cs),
(493,-10,l),
(510,20,l),
(411,66,l),
(529,621,l),
(642,621,l),
(648,646,l),
(535,646,l),
(557,750,l),
(523,750,l),
(501,646,l),
(389,646,l),
(383,621,l),
(495,621,l),
(473,519,ls),
(472,512,o),
(466,510,o),
(460,513,cs),
(435,526,l),
(412,531,o),
(386,536,o),
(355,536,cs),
(148,536,o),
(56,349,o),
(56,206,cs),
(56,88,o),
(108,-12,o),
(238,-12,cs)
);
},
{
closed = 1;
nodes = (
(132,19,o),
(91,102,o),
(91,205,cs),
(91,334,o),
(170,505,o),
(355,505,cs),
(401,505,o),
(431,494,o),
(465,480,c),
(380,82,l),
(331,41,o),
(294,19,o),
(242,19,cs)
);
}
);
width = 571;
}
);
metricLeft = d;
unicode = 273;
},
{
glyphname = dzcaron;
lastChange = "2026-03-20 13:35:31 +0000";
layers = (
{
anchors = (
{
name = bottom;
pos = (900,0);
},
{
name = center;
pos = (483,273);
},
{
name = ogonek;
pos = (527,-12);
},
{
name = top;
pos = (1064,760);
},
{
name = topright;
pos = (753,750);
}
);
layerId = "3917E251-E52F-4C58-ACE3-A75BE580C29C";
shapes = (
{
closed = 1;
nodes = (
(317,-12,o),
(334,-9,o),
(359,-6,c),
(400,25,ls),
(409,32,o),
(416,32,o),
(424,29,cs),
(527,-12,l),
(622,160,l),
(547,187,l),
(667,750,l),
(483,750,l),
(437,544,ls),
(436,538,o),
(432,536,o),
(426,538,cs),
(376,558,l),
(367,558,o),
(361,558,o),
(352,558,cs),
(140,558,o),
(35,381,o),
(35,234,cs),
(33,65,o),
(157,-12,o),
(287,-12,cs)
);
},
{
closed = 1;
nodes = (
(254,150,o),
(223,180,o),
(224,235,cs),
(224,303,o),
(260,396,o),
(347,396,cs),
(369,396,o),
(385,392,o),
(403,383,c),
(357,162,l),
(342,154,o),
(333,150,o),
(307,150,cs)
);
},
{
closed = 1;
nodes = (
(1135,0,l),
(1168,154,l),
(925,154,ls),
(916,154,o),
(915,165,o),
(922,169,cs),
(981,205,l),
(1223,391,l),
(1252,546,l),
(781,546,l),
(748,392,l),
(990,392,ls),
(999,392,o),
(999,382,o),
(991,377,cs),
(934,342,l),
(695,156,l),
(664,0,l)
);
},
{
closed = 1;
nodes = (
(1132,618,l),
(1251,760,l),
(1110,760,l),
(1078,722,l),
(1054,692,ls),
(1049,685,o),
(1039,684,o),
(1036,694,cs),
(1027,722,l),
(1011,760,l),
(877,760,l),
(936,618,l)
);
}
);
width = 1239;
},
{
anchors = (
{
name = bottom;
pos = (810,0);
},
{
name = center;
pos = (448,267);
},
{
name = ogonek;
pos = (503,-9);
},
{
name = top;
pos = (966,738);
},
{
name = topright;
pos = (689,750);
}
);
layerId = "CB50C8AE-8F70-48CF-8EC5-5F1FEE22C006";
shapes = (
{
closed = 1;
nodes = (
(281,-12,o),
(314,0,o),
(354,24,c),
(371,39,ls),
(377,45,o),
(384,45,o),
(391,42,cs),
(502,-9,l),
(551,79,l),
(468,115,l),
(602,750,l),
(503,750,l),
(458,546,ls),
(456,535,o),
(450,532,o),
(441,536,cs),
(428,542,l),
(407,545,o),
(384,547,o),
(361,547,cs),
(165,547,o),
(45,377,o),
(45,215,cs),
(45,88,o),
(110,-12,o),
(236,-12,cs)
);
},
{
closed = 1;
nodes = (
(178,73,o),
(149,140,o),
(149,213,cs),
(149,306,o),
(211,462,o),
(361,462,cs),
(384,462,o),
(410,459,o),
(438,449,c),
(370,130,l),
(327,87,o),
(292,73,o),
(265,73,cs)
);
},
{
closed = 1;
nodes = (
(1024,0,l),
(1042,85,l),
(743,85,ls),
(736,85,o),
(733,93,o),
(739,98,cs),
(791,140,l),
(1123,465,l),
(1137,535,l),
(707,535,l),
(690,450,l),
(989,450,ls),
(998,450,o),
(999,444,o),
(992,438,cs),
(940,397,l),
(607,70,l),
(595,0,l)
);
},
{
closed = 1;
nodes = (
(989,618,l),
(1113,760,l),
(1027,760,l),
(976,700,l),
(955,671,ls),
(949,662,o),
(943,663,o),
(941,671,cs),
(935,700,l),
(909,760,l),
(828,760,l),
(890,618,l)
);
}
);
width = 1149;
},
{
anchors = (
{
name = bottom;
pos = (764,0);
},
{
name = center;
pos = (435,262);
},
{
name = ogonek;
pos = (499,-8);
},
{
name = top;
pos = (909,687);
},
{
name = topright;
pos = (667,750);
}
);
layerId = "111500BD-850E-4B42-8F02-00848EDACCC3";
shapes = (
{
closed = 1;
nodes = (
(278,-12,o),
(313,1,o),
(348,23,c),
(363,38,ls),
(370,44,o),
(376,43,o),
(384,39,cs),
(493,-10,l),
(510,20,l),
(411,66,l),
(557,750,l),
(523,750,l),
(473,519,ls),
(472,512,o),
(466,510,o),
(460,513,cs),
(435,526,l),
(412,531,o),
(386,536,o),
(355,536,cs),
(148,536,o),
(56,349,o),
(56,206,cs),
(56,88,o),
(108,-12,o),
(238,-12,cs)
);
},
{
closed = 1;
nodes = (
(132,19,o),
(91,102,o),
(91,205,cs),
(91,334,o),
(170,505,o),
(355,505,cs),
(401,505,o),
(431,494,o),
(465,480,c),
(380,82,l),
(331,41,o),
(294,19,o),
(242,19,cs)
);
},
{
closed = 1;
nodes = (
(967,0,l),
(975,31,l),
(622,31,ls),
(615,31,o),
(610,36,o),
(617,42,cs),
(657,78,l),
(1075,501,l),
(1078,524,l),
(670,524,l),
(663,493,l),
(1019,493,ls),
(1027,493,o),
(1031,490,o),
(1022,483,cs),
(976,443,l),
(560,22,l),
(560,0,l)
);
},
{
closed = 1;
nodes = (
(910,618,l),
(1033,760,l),
(999,760,l),
(922,672,l),
(903,644,ls),
(898,637,o),
(891,638,o),
(889,644,cs),
(881,672,l),
(842,760,l),
(812,760,l),
(874,618,l)
);
}
);
width = 1080;
}
);
unicode = 454;
},
{
glyphname = eth;
lastChange = "2026-03-20 13:35:31 +0000";
layers = (
{
anchors = (
{
name = bottom;
pos = (269,0);
},
{
name = top;
pos = (428,750);
}
);
background = {
shapes = (
{
pos = (-1,0);
ref = o;
}
);
};
layerId = "3917E251-E52F-4C58-ACE3-A75BE580C29C";
shapes = (
{
closed = 1;
nodes = (
(494,-12,o),
(617,135,o),
(617,311,cs),
(618,354,o),
(609,391,o),
(594,424,cs),
(434,750,l),
(211,750,l),
(363,530,ls),
(370,520,o),
(356,506,o),
(343,511,cs),
(298,529,l),
(294,530,o),
(287,531,o),
(278,531,cs),
(144,531,o),
(35,389,o),
(35,235,cs),
(33,80,o),
(148,-12,o),
(296,-12,cs)
);
},
{
closed = 1;
nodes = (
(253,150,o),
(222,180,o),
(223,235,cs),
(223,300,o),
(259,389,o),
(346,389,cs),
(399,389,o),
(430,361,o),
(429,311,cs),
(429,243,o),
(393,150,o),
(306,150,cs)
);
},
{
closed = 1;
nodes = (
(589,654,l),
(543,750,l),
(143,670,l),
(198,573,l)
);
}
);
width = 653;
},
{
anchors = (
{
name = bottom;
pos = (247,0);
},
{
name = top;
pos = (406,750);
}
);
layerId = "CB50C8AE-8F70-48CF-8EC5-5F1FEE22C006";
shapes = (
{
closed = 1;
nodes = (
(448,-12,o),
(561,158,o),
(561,320,cs),
(561,365,o),
(558,405,o),
(511,495,cs),
(378,750,l),
(268,750,l),
(392,540,ls),
(398,530,o),
(386,523,o),
(376,528,cs),
(356,539,l),
(348,540,o),
(340,540,o),
(331,540,cs),
(160,540,o),
(45,369,o),
(45,215,cs),
(45,88,o),
(120,-12,o),
(265,-12,cs)
);
},
{
closed = 1;
nodes = (
(178,73,o),
(149,140,o),
(149,213,cs),
(149,305,o),
(205,458,o),
(341,458,cs),
(428,458,o),
(457,393,o),
(457,322,cs),
(457,229,o),
(401,73,o),
(265,73,cs)
);
},
{
closed = 1;
nodes = (
(523,692,l),
(493,746,l),
(216,635,l),
(248,578,l)
);
}
);
width = 607;
},
{
anchors = (
{
name = bottom;
pos = (231,0);
},
{
name = top;
pos = (390,750);
}
);
layerId = "111500BD-850E-4B42-8F02-00848EDACCC3";
shapes = (
{
closed = 1;
nodes = (
(430,-12,o),
(513,174,o),
(513,318,cs),
(513,373,o),
(501,420,o),
(476,469,cs),
(338,750,l),
(301,750,l),
(418,520,ls),
(422,512,o),
(416,508,o),
(410,512,cs),
(383,527,l),
(363,533,o),
(348,535,o),
(326,535,cs),
(140,535,o),
(57,348,o),
(57,206,cs),
(57,88,o),
(111,-12,o),
(243,-12,cs)
);
},
{
closed = 1;
nodes = (
(133,19,o),
(92,102,o),
(92,205,cs),
(92,334,o),
(162,505,o),
(327,505,cs),
(437,505,o),
(478,422,o),
(478,319,cs),
(478,190,o),
(408,19,o),
(243,19,cs)
);
},
{
closed = 1;
nodes = (
(501,683,l),
(490,705,l),
(240,615,l),
(253,594,l)
);
}
);
width = 570;
}
);
metricLeft = o;
metricRight = o;
unicode = 240;
userData = {
com.schriftgestaltung.Glyphs.leftMetricsKey = six;
com.schriftgestaltung.Glyphs.rightMetricsKey = six;
};
},
{
glyphname = e;
kernLeft = KO_e;
kernRight = KO_e;
lastChange = "2026-03-20 13:35:31 +0000";
layers = (
{
anchors = (
{
name = "abkhasian-hook";
pos = (152,216);
},
{
name = bottom;
pos = (284,0);
},
{
name = ogonek;
pos = (459,30);
},
{
name = top;
pos = (366,546);
}
);
background = {
shapes = (
{
ref = o;
},
{
ref = c;
}
);
};
layerId = "3917E251-E52F-4C58-ACE3-A75BE580C29C";
shapes = (
{
closed = 1;
nodes = (
(375,-12,o),
(454,14,o),
(514,71,c),
(428,183,l),
(389,153,o),
(349,136,o),
(305,136,cs),
(242,136,o),
(208,174,o),
(210,243,cs),
(210,317,o),
(254,419,o),
(354,419,cs),
(412,419,o),
(435,383,o),
(435,351,cs),
(435,345,o),
(434,339,o),
(432,333,c),
(152,333,l),
(152,216,l),
(548,216,l),
(596,277,l),
(602,301,o),
(604,325,o),
(604,348,cs),
(606,457,o),
(514,558,o),
(357,558,cs),
(159,558,o),
(36,411,o),
(36,235,cs),
(34,80,o),
(149,-12,o),
(297,-12,cs)
);
}
);
width = 627;
},
{
anchors = (
{
name = "abkhasian-hook";
pos = (128,232);
},
{
name = bottom;
pos = (248,0);
},
{
name = ogonek;
pos = (408,30);
},
{
name = top;
pos = (348,532);
}
);
layerId = "CB50C8AE-8F70-48CF-8EC5-5F1FEE22C006";
shapes = (
{
closed = 1;
nodes = (
(335,-12,o),
(410,11,o),
(479,96,c),
(411,144,l),
(359,90,o),
(319,73,o),
(266,73,cs),
(179,73,o),
(150,140,o),
(150,213,cs),
(150,306,o),
(206,462,o),
(342,462,cs),
(407,462,o),
(446,424,o),
(446,361,cs),
(446,347,o),
(444,329,o),
(440,312,c),
(128,312,l),
(128,232,l),
(493,232,l),
(528,282,l),
(536,314,o),
(539,344,o),
(539,372,cs),
(538,468,o),
(475,547,o),
(342,547,cs),
(158,547,o),
(46,377,o),
(46,215,cs),
(46,88,o),
(121,-12,o),
(266,-12,cs)
);
}
);
width = 581;
},
{
anchors = (
{
name = "abkhasian-hook";
pos = (81,250);
},
{
name = bottom;
pos = (243,0);
},
{
name = ogonek;
pos = (389,31);
},
{
name = top;
pos = (332,523);
}
);
layerId = "111500BD-850E-4B42-8F02-00848EDACCC3";
shapes = (
{
closed = 1;
nodes = (
(306,-12,o),
(372,2,o),
(438,74,c),
(415,93,l),
(357,33,o),
(309,19,o),
(243,19,cs),
(133,19,o),
(92,102,o),
(92,205,cs),
(92,334,o),
(162,505,o),
(327,505,cs),
(425,505,o),
(467,429,o),
(468,349,cs),
(469,326,o),
(465,304,o),
(459,280,c),
(81,280,l),
(81,250,l),
(471,250,l),
(491,275,l),
(498,299,o),
(501,326,o),
(501,350,cs),
(500,450,o),
(446,536,o),
(327,536,cs),
(140,536,o),
(57,349,o),
(57,206,cs),
(57,88,o),
(111,-12,o),
(243,-12,cs)
);
}
);
width = 554;
}
);
metricLeft = o;
unicode = 101;
userData = {
com.schriftgestaltung.Glyphs.ColorIndex = 3;
com.schriftgestaltung.Glyphs.layer.leftMetricsKey = "==o";
com.schriftgestaltung.Glyphs.leftMetricsKey = o;
};
},
{
glyphname = ezh;
lastChange = "2026-03-20 13:35:31 +0000";
layers = (
{
anchors = (
{
name = bottom;
pos = (215,0);
},
{
name = top;
pos = (324,546);
}
);
background = {
shapes = (
{
pos = (2,0);
ref = g;
}
);
};
layerId = "3917E251-E52F-4C58-ACE3-A75BE580C29C";
shapes = (
{
closed = 1;
nodes = (
(245,-234,o),
(402,-196,o),
(439,-27,cs),
(472,124,o),
(363,235,o),
(222,235,c),
(238,183,l),
(497,414,l),
(523,546,l),
(88,546,l),
(53,386,l),
(263,386,ls),
(273,386,o),
(275,376,o),
(265,369,cs),
(197,321,l),
(92,217,l),
(68,97,l),
(146,97,ls),
(218,97,o),
(267,55,o),
(256,1,cs),
(245,-51,o),
(195,-77,o),
(128,-77,cs),
(77,-77,o),
(35,-68,o),
(-9,-39,c),
(-76,-171,l),
(-24,-215,o),
(47,-234,o),
(118,-234,cs)
);
}
);
width = 511;
},
{
anchors = (
{
name = bottom;
pos = (176,0);
},
{
name = top;
pos = (283,535);
}
);
layerId = "CB50C8AE-8F70-48CF-8EC5-5F1FEE22C006";
shapes = (
{
closed = 1;
nodes = (
(248,-209,o),
(357,-126,o),
(380,-11,cs),
(407,124,o),
(298,223,o),
(153,216,c),
(181,183,l),
(465,463,l),
(478,535,l),
(78,535,l),
(59,448,l),
(326,448,ls),
(336,448,o),
(338,437,o),
(328,432,cs),
(279,397,l),
(75,190,l),
(61,124,l),
(148,124,ls),
(248,124,o),
(292,76,o),
(280,6,cs),
(267,-63,o),
(203,-124,o),
(109,-124,cs),
(50,-124,o),
(1,-109,o),
(-38,-82,c),
(-74,-162,l),
(-32,-195,o),
(34,-209,o),
(103,-209,cs)
);
}
);
width = 463;
},
{
anchors = (
{
name = bottom;
pos = (156,0);
},
{
name = top;
pos = (261,524);
}
);
layerId = "111500BD-850E-4B42-8F02-00848EDACCC3";
shapes = (
{
closed = 1;
nodes = (
(240,-206,o),
(338,-134,o),
(349,-13,cs),
(360,115,o),
(266,185,o),
(114,179,c),
(118,167,l),
(449,500,l),
(455,524,l),
(83,524,l),
(76,493,l),
(390,493,ls),
(398,493,o),
(399,485,o),
(393,480,cs),
(352,447,l),
(81,171,l),
(77,148,l),
(129,148,ls),
(250,148,o),
(327,97,o),
(316,-10,cs),
(306,-100,o),
(240,-175,o),
(113,-175,cs),
(63,-175,o),
(9,-163,o),
(-29,-131,c),
(-42,-160,l),
(-12,-188,o),
(51,-206,o),
(109,-206,cs)
);
}
);
width = 442;
}
);
unicode = 658;
},
{
glyphname = f;
kernLeft = KO_f;
kernRight = KO_f;
lastChange = "2026-03-20 13:35:31 +0000";
layers = (
{
anchors = (
{
name = bottom;
pos = (173,0);
},
{
name = top;
pos = (282,517);
}
);
layerId = "3917E251-E52F-4C58-ACE3-A75BE580C29C";
shapes = (
{
closed = 1;
nodes = (
(257,0,l),
(339,386,l),
(445,386,l),
(479,546,l),
(373,546,l),
(376,558,ls),
(385,597,o),
(421,614,o),
(460,614,cs),
(482,614,o),
(497,611,o),
(512,606,c),
(542,750,l),
(515,758,o),
(484,762,o),
(434,762,cs),
(322,762,o),
(209,707,o),
(181,574,cs),
(175,546,l),
(78,546,l),
(44,386,l),
(141,386,l),
(59,0,l)
);
}
);
width = 441;
},
{
anchors = (
{
name = bottom;
pos = (132,0);
},
{
name = top;
pos = (239,503);
}
);
layerId = "CB50C8AE-8F70-48CF-8EC5-5F1FEE22C006";
shapes = (
{
closed = 1;
nodes = (
(164,0,l),
(260,448,l),
(373,448,l),
(391,535,l),
(278,535,l),
(293,608,ls),
(303,658,o),
(340,680,o),
(380,680,cs),
(404,680,o),
(425,676,o),
(439,670,c),
(457,750,l),
(434,759,o),
(410,763,o),
(381,763,cs),
(291,763,o),
(217,719,o),
(193,607,cs),
(178,535,l),
(77,535,l),
(59,448,l),
(160,448,l),
(64,0,l)
);
}
);
width = 355;
},
{
anchors = (
{
name = bottom;
pos = (104,0);
},
{
name = top;
pos = (209,494);
}
);
layerId = "111500BD-850E-4B42-8F02-00848EDACCC3";
shapes = (
{
closed = 1;
nodes = (
(108,0,l),
(213,493,l),
(360,493,l),
(367,524,l),
(220,524,l),
(240,622,ls),
(254,690,o),
(306,732,o),
(364,732,cs),
(390,732,o),
(409,728,o),
(428,720,c),
(435,750,l),
(416,758,o),
(393,762,o),
(365,762,cs),
(285,759,o),
(225,712,o),
(206,622,cs),
(186,524,l),
(76,524,l),
(69,493,l),
(179,493,l),
(74,0,l)
);
}
);
width = 331;
}
);
metricLeft = "=t";
unicode = 102;
userData = {
KernOnName = f;
com.schriftgestaltung.Glyphs.ColorIndex = 3;
};
},
{
glyphname = g;
kernLeft = KO_d;
kernRight = KO_g;
lastChange = "2026-03-20 13:35:31 +0000";
layers = (
{
anchors = (
{
name = bottom;
pos = (234,-250);
},
{
name = top;
pos = (403,546);
}
);
background = {
shapes = (
{
ref = a;
}
);
};
layerId = "3917E251-E52F-4C58-ACE3-A75BE580C29C";
shapes = (
{
closed = 1;
nodes = (
(312,-234,o),
(471,-195,o),
(507,-27,cs),
(632,559,l),
(488,535,ls),
(476,533,o),
(469,535,o),
(457,539,cs),
(417,553,l),
(393,557,o),
(372,558,o),
(352,558,cs),
(140,558,o),
(35,381,o),
(35,234,cs),
(35,53,o),
(142,-12,o),
(220,-12,c),
(227,-12,o),
(232,-11,o),
(237,-9,c),
(303,22,ls),
(316,28,o),
(325,22,o),
(323,11,cs),
(320,-6,ls),
(311,-52,o),
(261,-77,o),
(196,-77,cs),
(145,-77,o),
(103,-68,o),
(59,-39,c),
(-8,-171,l),
(44,-215,o),
(114,-234,o),
(185,-234,cs)
);
},
{
closed = 1;
nodes = (
(254,150,o),
(223,180,o),
(224,235,cs),
(224,303,o),
(260,396,o),
(347,396,cs),
(369,396,o),
(385,392,o),
(403,383,c),
(357,162,l),
(342,154,o),
(333,150,o),
(307,150,cs)
);
}
);
width = 638;
},
{
anchors = (
{
name = bottom;
pos = (187,-250);
},
{
name = top;
pos = (354,535);
}
);
layerId = "CB50C8AE-8F70-48CF-8EC5-5F1FEE22C006";
shapes = (
{
closed = 1;
nodes = (
(299,-209,o),
(411,-144,o),
(443,2,cs),
(561,541,l),
(484,526,ls),
(475,524,o),
(470,524,o),
(463,527,cs),
(428,542,l),
(407,545,o),
(384,547,o),
(361,547,cs),
(165,547,o),
(45,377,o),
(45,215,cs),
(45,88,o),
(110,-12,o),
(236,-12,cs),
(256,-12,o),
(268,-9,o),
(285,-4,c),
(330,23,ls),
(342,30,o),
(349,24,o),
(346,15,cs),
(342,2,ls),
(317,-76,o),
(258,-124,o),
(172,-124,cs),
(113,-124,o),
(63,-109,o),
(24,-82,c),
(-12,-162,l),
(32,-196,o),
(97,-209,o),
(165,-209,cs)
);
},
{
closed = 1;
nodes = (
(178,73,o),
(149,140,o),
(149,213,cs),
(149,306,o),
(211,462,o),
(361,462,cs),
(385,462,o),
(413,458,o),
(439,449,c),
(370,130,l),
(335,98,o),
(305,73,o),
(265,73,cs)
);
}
);
width = 578;
},
{
anchors = (
{
name = bottom;
pos = (165,-250);
},
{
name = top;
pos = (329,524);
}
);
layerId = "111500BD-850E-4B42-8F02-00848EDACCC3";
shapes = (
{
closed = 1;
nodes = (
(275,-206,o),
(370,-138,o),
(399,0,cs),
(511,525,l),
(481,510,ls),
(473,507,o),
(469,509,o),
(465,511,cs),
(434,526,l),
(411,531,o),
(385,536,o),
(355,536,cs),
(148,536,o),
(56,349,o),
(56,206,cs),
(56,88,o),
(108,-12,o),
(238,-12,cs),
(273,-12,o),
(313,3,o),
(339,19,c),
(355,33,ls),
(364,41,o),
(371,34,o),
(369,26,cs),
(364,0,ls),
(337,-118,o),
(258,-175,o),
(157,-175,cs),
(108,-175,o),
(52,-162,o),
(15,-131,c),
(3,-160,l),
(33,-188,o),
(95,-206,o),
(154,-206,cs)
);
},
{
closed = 1;
nodes = (
(132,19,o),
(91,102,o),
(91,205,cs),
(91,334,o),
(170,505,o),
(355,505,cs),
(402,505,o),
(433,493,o),
(466,479,c),
(380,82,l),
(329,38,o),
(289,19,o),
(242,19,cs)
);
}
);
width = 546;
}
);
unicode = 103;
},
{
glyphname = gstroke;
lastChange = "2026-03-20 13:35:31 +0000";
layers = (
{
layerId = "3917E251-E52F-4C58-ACE3-A75BE580C29C";
shapes = (
{
closed = 1;
nodes = (
(312,-234,o),
(473,-197,o),
(507,-37,cs),
(632,559,l),
(488,535,ls),
(476,533,o),
(469,535,o),
(457,539,cs),
(417,553,l),
(393,557,o),
(372,558,o),
(352,558,cs),
(152,558,o),
(53,402,o),
(53,273,cs),
(53,125,o),
(145,74,o),
(239,74,c),
(246,74,o),
(251,75,o),
(256,77,c),
(322,108,ls),
(335,114,o),
(344,108,o),
(342,97,cs),
(312,-45,ls),
(306,-73,o),
(257,-87,o),
(196,-87,cs),
(145,-87,o),
(103,-78,o),
(59,-49,c),
(-8,-171,l),
(44,-215,o),
(114,-234,o),
(185,-234,cs)
);
},
{
closed = 1;
nodes = (
(272,236,o),
(241,261,o),
(242,307,cs),
(242,345,o),
(273,396,o),
(347,396,cs),
(369,396,o),
(385,392,o),
(403,383,c),
(376,248,l),
(361,240,o),
(352,236,o),
(326,236,cs)
);
},
{
closed = 1;
nodes = (
(563,-45,l),
(585,45,l),
(187,45,l),
(165,-45,l)
);
}
);
width = 638;
},
{
layerId = "CB50C8AE-8F70-48CF-8EC5-5F1FEE22C006";
shapes = (
{
closed = 1;
nodes = (
(299,-209,o),
(402,-165,o),
(423,-71,cs),
(557,541,l),
(479,526,ls),
(470,524,o),
(465,524,o),
(459,527,cs),
(423,542,l),
(403,545,o),
(379,547,o),
(357,547,cs),
(167,547,o),
(52,391,o),
(52,244,cs),
(52,127,o),
(117,37,o),
(244,37,cs),
(263,37,o),
(275,40,o),
(292,45,c),
(338,72,ls),
(348,78,o),
(357,74,o),
(354,64,cs),
(319,-69,ls),
(310,-104,o),
(257,-124,o),
(176,-124,cs),
(113,-124,o),
(62,-109,o),
(20,-82,c),
(-16,-162,l),
(28,-195,o),
(98,-209,o),
(170,-209,cs)
);
},
{
closed = 1;
nodes = (
(185,122,o),
(156,180,o),
(156,244,cs),
(156,325,o),
(214,462,o),
(357,462,cs),
(381,462,o),
(408,458,o),
(435,449,c),
(377,179,l),
(342,147,o),
(313,122,o),
(272,122,cs)
);
},
{
closed = 1;
nodes = (
(488,-74,l),
(505,3,l),
(189,3,l),
(172,-74,l)
);
}
);
width = 573;
},
{
layerId = "111500BD-850E-4B42-8F02-00848EDACCC3";
shapes = (
{
closed = 1;
nodes = (
(225,-206,o),
(313,-150,o),
(335,-48,cs),
(457,525,l),
(426,510,ls),
(419,507,o),
(415,509,o),
(411,511,cs),
(380,526,l),
(357,531,o),
(331,536,o),
(301,536,cs),
(94,536,o),
(4,351,o),
(4,209,cs),
(4,93,o),
(56,-5,o),
(185,-5,cs),
(221,-5,o),
(261,10,o),
(286,26,c),
(303,40,ls),
(310,47,o),
(319,41,o),
(317,33,cs),
(299,-46,ls),
(280,-134,o),
(203,-175,o),
(104,-175,cs),
(54,-175,o),
(-2,-162,o),
(-39,-131,c),
(-51,-160,l),
(-21,-188,o),
(42,-206,o),
(101,-206,cs)
);
},
{
closed = 1;
nodes = (
(80,25,o),
(38,107,o),
(38,209,cs),
(38,336,o),
(116,505,o),
(301,505,cs),
(347,505,o),
(379,493,o),
(412,479,c),
(327,88,l),
(275,43,o),
(236,25,o),
(189,25,cs)
);
},
{
closed = 1;
nodes = (
(400,-90,l),
(406,-62,l),
(130,-62,l),
(124,-90,l)
);
}
);
width = 492;
}
);
unicode = 485;
},
{
glyphname = h;
kernLeft = KO_h;
kernRight = KO_n;
lastChange = "2026-03-20 13:35:31 +0000";
layers = (
{
anchors = (
{
name = bottom;
pos = (284,0);
},
{
name = bottomright;
pos = (541,0);
},
{
name = center;
pos = (266,641);
},
{
name = top;
pos = (481,728);
}
);
background = {
shapes = (
{
pos = (-34,0);
ref = n;
}
);
};
layerId = "3917E251-E52F-4C58-ACE3-A75BE580C29C";
shapes = (
{
closed = 1;
nodes = (
(205,0,l),
(283,362,l),
(313,387,o),
(340,397,o),
(369,397,cs),
(407,397,o),
(429,369,o),
(421,329,cs),
(351,0,l),
(547,0,l),
(615,318,ls),
(648,474,o),
(536,558,o),
(443,558,cs),
(432,558,o),
(422,557,o),
(414,556,c),
(338,524,ls),
(324,518,o),
(315,524,o),
(317,535,cs),
(361,750,l),
(168,750,l),
(9,0,l)
);
}
);
width = 663;
},
{
anchors = (
{
name = bottom;
pos = (239,0);
},
{
name = bottomright;
pos = (436,0);
},
{
name = center;
pos = (213,636);
},
{
name = top;
pos = (423,717);
}
);
layerId = "CB50C8AE-8F70-48CF-8EC5-5F1FEE22C006";
shapes = (
{
closed = 1;
nodes = (
(119,0,l),
(204,402,l),
(253,447,o),
(286,462,o),
(330,462,cs),
(389,462,o),
(422,420,o),
(409,358,cs),
(333,0,l),
(435,0,l),
(508,343,ls),
(532,458,o),
(476,546,o),
(359,546,cs),
(332,546,o),
(318,543,o),
(300,540,c),
(246,502,ls),
(235,497,o),
(229,501,o),
(231,511,cs),
(281,750,l),
(182,750,l),
(18,0,l)
);
}
);
width = 570;
},
{
anchors = (
{
name = bottom;
pos = (223,0);
},
{
name = bottomright;
pos = (395,0);
},
{
name = center;
pos = (190,633);
},
{
name = top;
pos = (401,706);
}
);
layerId = "111500BD-850E-4B42-8F02-00848EDACCC3";
shapes = (
{
closed = 1;
nodes = (
(70,0,l),
(163,442,l),
(220,478,o),
(278,505,o),
(326,505,cs),
(426,505,o),
(451,429,o),
(433,342,cs),
(360,0,l),
(394,0,l),
(467,337,ls),
(488,436,o),
(461,536,o),
(332,536,cs),
(296,536,o),
(265,526,o),
(227,510,c),
(185,482,ls),
(178,478,o),
(171,481,o),
(173,489,cs),
(229,750,l),
(195,750,l),
(35,0,l)
);
}
);
width = 538;
}
);
metricRight = n;
unicode = 104;
userData = {
KernOnName = h;
com.schriftgestaltung.Glyphs.ColorIndex = 3;
com.schriftgestaltung.Glyphs.layer.leftMetricsKey = "==n";
com.schriftgestaltung.Glyphs.layer.rightMetricsKey = "==n";
com.schriftgestaltung.Glyphs.leftMetricsKey = n;
com.schriftgestaltung.Glyphs.rightMetricsKey = n;
};
},
{
glyphname = hbar;
kernRight = KO_hbar;
lastChange = "2026-03-25 15:35:15 +0000";
layers = (
{
anchors = (
{
name = bottom;
pos = (284,0);
},
{
name = bottomright;
pos = (541,0);
},
{
name = center;
pos = (266,641);
},
{
name = top;
pos = (481,728);
}
);
background = {
shapes = (
{
closed = 1;
nodes = (
(4780,571,l),
(4780,705,l),
(4407,705,l),
(4407,571,l)
);
},
{
closed = 1;
nodes = (
(4682,0,l),
(4682,320,ls),
(4682,366,o),
(4721,389,o),
(4758,389,cs),
(4798,389,o),
(4839,367,o),
(4839,320,cs),
(4839,0,l),
(5035,0,l),
(5035,361,ls),
(5035,496,o),
(4933,558,o),
(4836,558,cs),
(4755,558,o),
(4731,529,o),
(4698,494,cs),
(4692,488,o),
(4682,492,o),
(4682,500,cs),
(4682,546,l),
(4486,546,l),
(4486,0,l)
);
},
{
closed = 1;
nodes = (
(4682,546,l),
(4682,750,l),
(4486,750,l),
(4486,546,l)
);
}
);
};
layerId = "3917E251-E52F-4C58-ACE3-A75BE580C29C";
shapes = (
{
closed = 1;
nodes = (
(205,0,l),
(283,362,l),
(313,387,o),
(340,397,o),
(369,397,cs),
(407,397,o),
(429,369,o),
(421,329,cs),
(351,0,l),
(547,0,l),
(615,318,ls),
(648,474,o),
(536,558,o),
(443,558,cs),
(432,558,o),
(422,557,o),
(414,556,c),
(338,524,ls),
(324,518,o),
(315,524,o),
(317,535,cs),
(361,750,l),
(168,750,l),
(9,0,l)
);
},
{
closed = 1;
nodes = (
(436,559,l),
(469,713,l),
(96,713,l),
(63,559,l)
);
}
);
width = 663;
},
{
anchors = (
{
name = bottom;
pos = (239,0);
},
{
name = bottomright;
pos = (436,0);
},
{
name = center;
pos = (213,636);
},
{
name = top;
pos = (423,717);
}
);
layerId = "CB50C8AE-8F70-48CF-8EC5-5F1FEE22C006";
shapes = (
{
closed = 1;
nodes = (
(119,0,l),
(204,402,l),
(253,447,o),
(286,462,o),
(330,462,cs),
(389,462,o),
(422,420,o),
(409,358,cs),
(333,0,l),
(435,0,l),
(508,343,ls),
(532,458,o),
(476,546,o),
(359,546,cs),
(332,546,o),
(318,543,o),
(300,540,c),
(246,502,ls),
(235,497,o),
(229,501,o),
(231,511,cs),
(281,750,l),
(182,750,l),
(18,0,l)
);
},
{
closed = 1;
nodes = (
(357,594,l),
(375,678,l),
(68,678,l),
(50,594,l)
);
}
);
width = 570;
},
{
anchors = (
{
name = bottom;
pos = (223,0);
},
{
name = bottomright;
pos = (395,0);
},
{
name = center;
pos = (190,633);
},
{
name = top;
pos = (401,706);
}
);
layerId = "111500BD-850E-4B42-8F02-00848EDACCC3";
shapes = (
{
closed = 1;
nodes = (
(70,0,l),
(163,442,l),
(220,478,o),
(278,505,o),
(326,505,cs),
(426,505,o),
(451,429,o),
(433,342,cs),
(360,0,l),
(394,0,l),
(467,337,ls),
(488,436,o),
(461,536,o),
(332,536,cs),
(296,536,o),
(265,526,o),
(227,510,c),
(185,482,ls),
(178,478,o),
(171,481,o),
(173,489,cs),
(229,750,l),
(195,750,l),
(35,0,l)
);
},
{
closed = 1;
nodes = (
(316,618,l),
(322,647,l),
(62,647,l),
(56,618,l)
);
}
);
width = 538;
}
);
metricLeft = t;
metricRight = h;
unicode = 295;
},
{
glyphname = hbar.001;
kernRight = KO_hbar;
lastChange = "2026-03-20 13:35:31 +0000";
layers = (
{
anchors = (
{
name = bottom;
pos = (284,0);
},
{
name = bottomright;
pos = (547,0);
},
{
name = center;
pos = (266,641);
},
{
name = top;
pos = (481,728);
}
);
background = {
shapes = (
{
closed = 1;
nodes = (
(4780,571,l),
(4780,705,l),
(4407,705,l),
(4407,571,l)
);
},
{
closed = 1;
nodes = (
(4682,0,l),
(4682,320,ls),
(4682,366,o),
(4721,389,o),
(4758,389,cs),
(4798,389,o),
(4839,367,o),
(4839,320,cs),
(4839,0,l),
(5035,0,l),
(5035,361,ls),
(5035,496,o),
(4933,558,o),
(4836,558,cs),
(4755,558,o),
(4731,529,o),
(4698,494,cs),
(4692,488,o),
(4682,492,o),
(4682,500,cs),
(4682,546,l),
(4486,546,l),
(4486,0,l)
);
},
{
closed = 1;
nodes = (
(4682,546,l),
(4682,750,l),
(4486,750,l),
(4486,546,l)
);
}
);
};
layerId = "3917E251-E52F-4C58-ACE3-A75BE580C29C";
shapes = (
{
closed = 1;
nodes = (
(205,0,l),
(283,362,l),
(313,387,o),
(340,397,o),
(369,397,cs),
(407,397,o),
(429,369,o),
(421,329,cs),
(351,0,l),
(547,0,l),
(615,318,ls),
(648,474,o),
(536,558,o),
(443,558,cs),
(432,558,o),
(422,557,o),
(414,556,c),
(338,524,ls),
(324,518,o),
(315,524,o),
(317,535,cs),
(324,567,l),
(436,567,l),
(469,706,l),
(352,706,l),
(361,750,l),
(168,750,l),
(159,706,l),
(96,706,l),
(63,567,l),
(129,567,l),
(9,0,l)
);
}
);
width = 663;
},
{
anchors = (
{
name = bottom;
pos = (239,0);
},
{
name = bottomright;
pos = (436,0);
},
{
name = center;
pos = (213,636);
},
{
name = top;
pos = (423,717);
}
);
layerId = "CB50C8AE-8F70-48CF-8EC5-5F1FEE22C006";
shapes = (
{
closed = 1;
nodes = (
(119,0,l),
(204,402,l),
(253,447,o),
(286,462,o),
(330,462,cs),
(389,462,o),
(422,420,o),
(409,358,cs),
(333,0,l),
(435,0,l),
(508,343,ls),
(532,458,o),
(476,546,o),
(359,546,cs),
(332,546,o),
(318,543,o),
(300,540,c),
(246,502,ls),
(235,497,o),
(229,501,o),
(231,511,cs),
(248,593,l),
(357,593,l),
(375,678,l),
(266,678,l),
(281,750,l),
(182,750,l),
(167,678,l),
(68,678,l),
(51,593,l),
(148,593,l),
(18,0,l)
);
}
);
width = 570;
},
{
anchors = (
{
name = bottom;
pos = (223,0);
},
{
name = bottomright;
pos = (395,0);
},
{
name = center;
pos = (190,633);
},
{
name = top;
pos = (401,706);
}
);
layerId = "111500BD-850E-4B42-8F02-00848EDACCC3";
shapes = (
{
closed = 1;
nodes = (
(70,0,l),
(163,442,l),
(220,478,o),
(278,505,o),
(326,505,cs),
(426,505,o),
(451,429,o),
(433,342,cs),
(360,0,l),
(394,0,l),
(467,337,ls),
(488,436,o),
(461,536,o),
(332,536,cs),
(296,536,o),
(265,526,o),
(227,510,c),
(185,482,ls),
(178,478,o),
(171,481,o),
(173,489,cs),
(201,619,l),
(316,619,l),
(321,648,l),
(207,648,l),
(229,750,l),
(195,750,l),
(173,648,l),
(62,648,l),
(56,619,l),
(167,619,l),
(35,0,l)
);
}
);
width = 538;
}
);
metricLeft = t;
metricRight = h;
},
{
glyphname = i;
kernLeft = KO_i;
kernRight = KO_i;
lastChange = "2026-03-20 13:35:31 +0000";
layers = (
{
anchors = (
{
name = bottom;
pos = (131,0);
},
{
name = center;
pos = (203,268);
},
{
name = ogonek;
pos = (243,0);
},
{
name = top;
pos = (294,753);
}
);
layerId = "3917E251-E52F-4C58-ACE3-A75BE580C29C";
shapes = (
{
closed = 1;
nodes = (
(243,0,l),
(359,546,l),
(78,546,l),
(44,386,l),
(132,386,l),
(50,0,l)
);
},
{
closed = 1;
nodes = (
(374,618,l),
(402,750,l),
(185,750,l),
(157,618,l)
);
}
);
width = 368;
},
{
anchors = (
{
name = bottom;
pos = (92,0);
},
{
name = center;
pos = (159,267);
},
{
name = ogonek;
pos = (154,0);
},
{
name = top;
pos = (262,746);
}
);
layerId = "CB50C8AE-8F70-48CF-8EC5-5F1FEE22C006";
shapes = (
{
closed = 1;
nodes = (
(154,0,l),
(272,535,l),
(77,535,l),
(59,448,l),
(150,448,l),
(52,0,l)
);
},
{
closed = 1;
nodes = (
(289,632,l),
(314,750,l),
(212,750,l),
(187,632,l)
);
}
);
width = 289;
},
{
anchors = (
{
name = bottom;
pos = (53,0);
},
{
name = center;
pos = (112,262);
},
{
name = ogonek;
pos = (72,0);
},
{
name = top;
pos = (208,709);
}
);
layerId = "111500BD-850E-4B42-8F02-00848EDACCC3";
shapes = (
{
closed = 1;
nodes = (
(72,0,l),
(184,524,l),
(76,524,l),
(69,493,l),
(143,493,l),
(37,0,l)
);
},
{
closed = 1;
nodes = (
(209,632,l),
(234,750,l),
(199,750,l),
(174,632,l)
);
}
);
width = 219;
}
);
unicode = 105;
userData = {
KernOnName = i;
com.schriftgestaltung.Glyphs.ColorIndex = 3;
};
},
{
glyphname = idotless;
kernLeft = KO_i;
kernRight = "KO_en-cy";
lastChange = "2026-03-20 13:35:31 +0000";
layers = (
{
anchors = (
{
name = bottom;
pos = (131,0);
},
{
name = center;
pos = (203,268);
},
{
name = ogonek;
pos = (243,0);
},
{
name = top;
pos = (250,546);
}
);
layerId = "3917E251-E52F-4C58-ACE3-A75BE580C29C";
shapes = (
{
closed = 1;
nodes = (
(243,0,l),
(359,546,l),
(78,546,l),
(44,386,l),
(132,386,l),
(50,0,l)
);
}
);
width = 368;
},
{
anchors = (
{
name = bottom;
pos = (92,0);
},
{
name = center;
pos = (159,267);
},
{
name = ogonek;
pos = (154,0);
},
{
name = top;
pos = (217,535);
}
);
layerId = "CB50C8AE-8F70-48CF-8EC5-5F1FEE22C006";
shapes = (
{
closed = 1;
nodes = (
(154,0,l),
(272,535,l),
(77,535,l),
(59,448,l),
(150,448,l),
(52,0,l)
);
}
);
width = 289;
},
{
anchors = (
{
name = bottom;
pos = (53,0);
},
{
name = center;
pos = (112,262);
},
{
name = ogonek;
pos = (72,0);
},
{
name = top;
pos = (168,524);
}
);
layerId = "111500BD-850E-4B42-8F02-00848EDACCC3";
shapes = (
{
closed = 1;
nodes = (
(72,0,l),
(184,524,l),
(76,524,l),
(69,493,l),
(143,493,l),
(37,0,l)
);
}
);
width = 219;
}
);
metricRight = "=|n";
unicode = 305;
userData = {
KernOnName = idotless;
};
},
{
color = 9;
glyphname = icaron.ss01;
lastChange = "2026-03-20 13:35:31 +0000";
layers = (
{
anchors = (
{
name = bottom;
pos = (131,0);
},
{
name = center;
pos = (203,268);
},
{
name = ogonek;
pos = (243,0);
},
{
name = top;
pos = (296,760);
}
);
layerId = "3917E251-E52F-4C58-ACE3-A75BE580C29C";
shapes = (
{
closed = 1;
nodes = (
(243,0,l),
(359,546,l),
(78,546,l),
(44,386,l),
(132,386,l),
(50,0,l)
);
},
{
closed = 1;
nodes = (
(364,618,l),
(483,760,l),
(342,760,l),
(310,722,l),
(286,692,ls),
(281,685,o),
(271,684,o),
(268,694,cs),
(259,722,l),
(243,760,l),
(109,760,l),
(168,618,l)
);
}
);
width = 368;
},
{
anchors = (
{
name = bottom;
pos = (92,0);
},
{
name = center;
pos = (159,267);
},
{
name = ogonek;
pos = (154,0);
},
{
name = top;
pos = (261,738);
}
);
layerId = "CB50C8AE-8F70-48CF-8EC5-5F1FEE22C006";
shapes = (
{
closed = 1;
nodes = (
(154,0,l),
(272,535,l),
(77,535,l),
(59,448,l),
(150,448,l),
(52,0,l)
);
},
{
closed = 1;
nodes = (
(284,618,l),
(407,760,l),
(322,760,l),
(271,700,l),
(250,671,ls),
(244,662,o),
(238,663,o),
(236,671,cs),
(230,700,l),
(204,760,l),
(123,760,l),
(185,618,l)
);
}
);
width = 289;
},
{
anchors = (
{
name = bottom;
pos = (53,0);
},
{
name = center;
pos = (112,262);
},
{
name = ogonek;
pos = (72,0);
},
{
name = top;
pos = (203,687);
}
);
layerId = "111500BD-850E-4B42-8F02-00848EDACCC3";
shapes = (
{
closed = 1;
nodes = (
(72,0,l),
(184,524,l),
(76,524,l),
(69,493,l),
(143,493,l),
(37,0,l)
);
},
{
closed = 1;
nodes = (
(204,618,l),
(327,760,l),
(293,760,l),
(217,672,l),
(197,644,ls),
(192,637,o),
(185,638,o),
(183,644,cs),
(175,672,l),
(137,760,l),
(107,760,l),
(169,618,l)
);
}
);
width = 219;
}
);
},
{
glyphname = idotbelow;
kernLeft = KO_i;
kernRight = KO_i;
lastChange = "2026-03-20 13:35:31 +0000";
layers = (
{
anchors = (
{
name = bottom;
pos = (87,-204);
},
{
name = center;
pos = (203,268);
},
{
name = ogonek;
pos = (243,0);
},
{
name = top;
pos = (294,753);
}
);
layerId = "3917E251-E52F-4C58-ACE3-A75BE580C29C";
shapes = (
{
closed = 1;
nodes = (
(374,618,l),
(402,750,l),
(185,750,l),
(157,618,l)
);
},
{
closed = 1;
nodes = (
(196,-204,l),
(224,-72,l),
(7,-72,l),
(-21,-204,l)
);
},
{
ref = idotless;
}
);
width = 368;
},
{
anchors = (
{
name = bottom;
pos = (47,-215);
},
{
name = center;
pos = (159,267);
},
{
name = ogonek;
pos = (154,0);
},
{
name = top;
pos = (262,746);
}
);
layerId = "CB50C8AE-8F70-48CF-8EC5-5F1FEE22C006";
shapes = (
{
closed = 1;
nodes = (
(289,632,l),
(314,750,l),
(212,750,l),
(187,632,l)
);
},
{
closed = 1;
nodes = (
(98,-215,l),
(123,-97,l),
(21,-97,l),
(-4,-215,l)
);
},
{
ref = idotless;
}
);
width = 289;
},
{
anchors = (
{
name = bottom;
pos = (6,-226);
},
{
name = center;
pos = (112,262);
},
{
name = ogonek;
pos = (72,0);
},
{
name = top;
pos = (208,709);
}
);
layerId = "111500BD-850E-4B42-8F02-00848EDACCC3";
shapes = (
{
closed = 1;
nodes = (
(209,632,l),
(234,750,l),
(199,750,l),
(174,632,l)
);
},
{
closed = 1;
nodes = (
(23,-226,l),
(48,-108,l),
(13,-108,l),
(-12,-226,l)
);
},
{
ref = idotless;
}
);
width = 219;
}
);
unicode = 7883;
},
{
color = 9;
glyphname = idotbelow.ss01;
kernLeft = KO_i.ss01;
lastChange = "2026-03-20 13:35:31 +0000";
layers = (
{
anchors = (
{
name = bottom;
pos = (87,-204);
},
{
name = center;
pos = (203,268);
},
{
name = ogonek;
pos = (243,0);
},
{
name = top;
pos = (294,753);
}
);
layerId = "3917E251-E52F-4C58-ACE3-A75BE580C29C";
shapes = (
{
closed = 1;
nodes = (
(374,618,l),
(402,750,l),
(185,750,l),
(157,618,l)
);
},
{
closed = 1;
nodes = (
(196,-204,l),
(224,-72,l),
(7,-72,l),
(-21,-204,l)
);
},
{
ref = idotless;
}
);
width = 368;
},
{
anchors = (
{
name = bottom;
pos = (47,-215);
},
{
name = center;
pos = (159,267);
},
{
name = ogonek;
pos = (154,0);
},
{
name = top;
pos = (262,746);
}
);
layerId = "CB50C8AE-8F70-48CF-8EC5-5F1FEE22C006";
shapes = (
{
closed = 1;
nodes = (
(289,632,l),
(314,750,l),
(212,750,l),
(187,632,l)
);
},
{
closed = 1;
nodes = (
(98,-215,l),
(123,-97,l),
(21,-97,l),
(-4,-215,l)
);
},
{
ref = idotless;
}
);
width = 289;
},
{
anchors = (
{
name = bottom;
pos = (6,-226);
},
{
name = center;
pos = (112,262);
},
{
name = ogonek;
pos = (72,0);
},
{
name = top;
pos = (208,709);
}
);
layerId = "111500BD-850E-4B42-8F02-00848EDACCC3";
shapes = (
{
closed = 1;
nodes = (
(209,632,l),
(234,750,l),
(199,750,l),
(174,632,l)
);
},
{
closed = 1;
nodes = (
(23,-226,l),
(48,-108,l),
(13,-108,l),
(-12,-226,l)
);
},
{
ref = idotless;
}
);
width = 219;
}
);
},
{
color = 4;
glyphname = istroke;
lastChange = "2026-03-25 15:35:15 +0000";
layers = (
{
anchors = (
{
name = bottom;
pos = (131,0);
},
{
name = center;
pos = (203,268);
},
{
name = ogonek;
pos = (243,0);
},
{
name = top;
pos = (294,753);
}
);
layerId = "3917E251-E52F-4C58-ACE3-A75BE580C29C";
shapes = (
{
closed = 1;
nodes = (
(243,0,l),
(359,546,l),
(78,546,l),
(44,386,l),
(132,386,l),
(50,0,l)
);
},
{
closed = 1;
nodes = (
(374,618,l),
(402,750,l),
(185,750,l),
(157,618,l)
);
},
{
closed = 1;
nodes = (
(373,186,l),
(406,340,l),
(33,340,l),
(0,186,l)
);
}
);
width = 368;
},
{
anchors = (
{
name = bottom;
pos = (92,0);
},
{
name = center;
pos = (159,267);
},
{
name = ogonek;
pos = (154,0);
},
{
name = top;
pos = (262,746);
}
);
layerId = "CB50C8AE-8F70-48CF-8EC5-5F1FEE22C006";
shapes = (
{
closed = 1;
nodes = (
(154,0,l),
(272,535,l),
(77,535,l),
(59,448,l),
(150,448,l),
(52,0,l)
);
},
{
closed = 1;
nodes = (
(289,632,l),
(314,750,l),
(212,750,l),
(187,632,l)
);
},
{
closed = 1;
nodes = (
(303,225,l),
(321,309,l),
(14,309,l),
(-4,225,l)
);
}
);
width = 289;
},
{
anchors = (
{
name = bottom;
pos = (53,0);
},
{
name = center;
pos = (112,262);
},
{
name = ogonek;
pos = (72,0);
},
{
name = top;
pos = (208,709);
}
);
layerId = "111500BD-850E-4B42-8F02-00848EDACCC3";
shapes = (
{
closed = 1;
nodes = (
(72,0,l),
(184,524,l),
(76,524,l),
(69,493,l),
(143,493,l),
(37,0,l)
);
},
{
closed = 1;
nodes = (
(209,632,l),
(234,750,l),
(199,750,l),
(174,632,l)
);
},
{
closed = 1;
nodes = (
(238,247,l),
(244,276,l),
(-16,276,l),
(-22,247,l)
);
}
);
width = 219;
}
);
unicode = 616;
},
{
glyphname = ij;
kernLeft = KO_i;
lastChange = "2026-03-20 13:35:31 +0000";
layers = (
{
anchors = (
{
name = bottom;
pos = (445,-265);
},
{
name = center;
pos = (203,268);
},
{
name = ogonek;
pos = (243,0);
},
{
name = top;
pos = (659,753);
}
);
layerId = "3917E251-E52F-4C58-ACE3-A75BE580C29C";
shapes = (
{
closed = 1;
nodes = (
(243,0,l),
(359,546,l),
(78,546,l),
(44,386,l),
(132,386,l),
(50,0,l)
);
},
{
closed = 1;
nodes = (
(374,618,l),
(402,750,l),
(185,750,l),
(157,618,l)
);
},
{
closed = 1;
nodes = (
(425,-238,o),
(573,-172,o),
(608,-10,cs),
(727,546,l),
(446,546,l),
(412,386,l),
(500,386,l),
(421,15,ls),
(410,-34,o),
(358,-62,o),
(290,-62,c),
(305,-235,l)
);
},
{
closed = 1;
nodes = (
(739,618,l),
(767,750,l),
(550,750,l),
(522,618,l)
);
}
);
width = 736;
},
{
anchors = (
{
name = bottom;
pos = (328,-265);
},
{
name = center;
pos = (159,267);
},
{
name = ogonek;
pos = (154,0);
},
{
name = top;
pos = (553,746);
}
);
layerId = "CB50C8AE-8F70-48CF-8EC5-5F1FEE22C006";
shapes = (
{
closed = 1;
nodes = (
(154,0,l),
(272,535,l),
(77,535,l),
(59,448,l),
(150,448,l),
(52,0,l)
);
},
{
closed = 1;
nodes = (
(289,632,l),
(314,750,l),
(212,750,l),
(187,632,l)
);
},
{
closed = 1;
nodes = (
(327,-209,o),
(422,-141,o),
(454,3,cs),
(570,535,l),
(377,535,l),
(360,449,l),
(449,449,l),
(352,6,ls),
(334,-78,o),
(277,-126,o),
(187,-147,c),
(204,-236,l)
);
},
{
closed = 1;
nodes = (
(580,632,l),
(605,750,l),
(503,750,l),
(478,632,l)
);
}
);
width = 587;
},
{
anchors = (
{
name = bottom;
pos = (211,-265);
},
{
name = center;
pos = (112,262);
},
{
name = ogonek;
pos = (72,0);
},
{
name = top;
pos = (436,709);
}
);
layerId = "111500BD-850E-4B42-8F02-00848EDACCC3";
shapes = (
{
closed = 1;
nodes = (
(72,0,l),
(184,524,l),
(76,524,l),
(69,493,l),
(143,493,l),
(37,0,l)
);
},
{
closed = 1;
nodes = (
(209,632,l),
(234,750,l),
(199,750,l),
(174,632,l)
);
},
{
closed = 1;
nodes = (
(209,-192,o),
(274,-130,o),
(300,-13,cs),
(418,524,l),
(307,524,l),
(300,493,l),
(376,493,l),
(267,-10,ls),
(246,-109,o),
(193,-167,o),
(72,-207,c),
(83,-233,l)
);
},
{
closed = 1;
nodes = (
(437,632,l),
(462,750,l),
(428,750,l),
(403,632,l)
);
}
);
width = 453;
}
);
unicode = 307;
},
{
glyphname = jdotless;
lastChange = "2026-03-20 13:35:31 +0000";
layers = (
{
anchors = (
{
name = bottom;
pos = (77,-265);
},
{
name = top;
pos = (247,546);
}
);
background = {
shapes = (
{
pos = (-9,0);
ref = i.ss01;
}
);
};
layerId = "3917E251-E52F-4C58-ACE3-A75BE580C29C";
shapes = (
{
closed = 1;
nodes = (
(57,-238,o),
(205,-172,o),
(240,-10,cs),
(359,546,l),
(78,546,l),
(44,386,l),
(132,386,l),
(53,15,ls),
(42,-34,o),
(-10,-62,o),
(-78,-62,c),
(-63,-235,l)
);
}
);
width = 368;
},
{
anchors = (
{
name = bottom;
pos = (30,-265);
},
{
name = top;
pos = (211,535);
}
);
layerId = "CB50C8AE-8F70-48CF-8EC5-5F1FEE22C006";
shapes = (
{
closed = 1;
nodes = (
(29,-209,o),
(124,-141,o),
(156,3,cs),
(272,535,l),
(79,535,l),
(62,449,l),
(151,449,l),
(54,6,ls),
(36,-78,o),
(-21,-126,o),
(-111,-147,c),
(-94,-236,l)
);
}
);
width = 289;
},
{
anchors = (
{
name = bottom;
pos = (-23,-265);
},
{
name = top;
pos = (163,524);
}
);
layerId = "111500BD-850E-4B42-8F02-00848EDACCC3";
shapes = (
{
closed = 1;
nodes = (
(-25,-192,o),
(40,-130,o),
(66,-13,cs),
(184,524,l),
(73,524,l),
(66,493,l),
(142,493,l),
(33,-10,ls),
(12,-109,o),
(-41,-167,o),
(-162,-207,c),
(-151,-233,l)
);
}
);
width = 219;
}
);
metricRight = idotless;
unicode = 567;
},
{
glyphname = k;
kernLeft = KO_h;
kernRight = KO_k;
lastChange = "2026-03-20 13:35:31 +0000";
layers = (
{
anchors = (
{
name = bottom;
pos = (283,0);
},
{
name = center;
pos = (260,613);
},
{
name = top;
pos = (455,720);
}
);
layerId = "3917E251-E52F-4C58-ACE3-A75BE580C29C";
shapes = (
{
closed = 1;
nodes = (
(205,0,l),
(252,222,l),
(295,222,l),
(357,0,l),
(560,0,l),
(467,287,l),
(681,547,l),
(463,547,l),
(330,382,l),
(286,382,l),
(364,750,l),
(168,750,l),
(9,0,l)
);
}
);
width = 643;
},
{
anchors = (
{
name = bottom;
pos = (242,0);
},
{
name = center;
pos = (204,611);
},
{
name = top;
pos = (422,681);
}
);
layerId = "CB50C8AE-8F70-48CF-8EC5-5F1FEE22C006";
shapes = (
{
closed = 1;
nodes = (
(118,0,l),
(175,251,l),
(251,251,l),
(378,0,l),
(488,0,l),
(336,300,l),
(564,535,l),
(446,535,l),
(261,340,l),
(193,340,l),
(284,750,l),
(183,750,l),
(18,0,l)
);
}
);
width = 559;
},
{
anchors = (
{
name = bottom;
pos = (222,0);
},
{
name = center;
pos = (229,608);
},
{
name = top;
pos = (378,676);
}
);
layerId = "111500BD-850E-4B42-8F02-00848EDACCC3";
shapes = (
{
closed = 1;
nodes = (
(69,0,l),
(127,271,l),
(220,271,l),
(396,0,l),
(435,0,l),
(249,288,l),
(515,524,l),
(469,524,l),
(222,303,l),
(133,303,l),
(229,750,l),
(195,750,l),
(35,0,l)
);
}
);
width = 499;
}
);
metricLeft = h;
unicode = 107;
userData = {
KernOnName = k;
com.schriftgestaltung.Glyphs.ColorIndex = 3;
com.schriftgestaltung.Glyphs.layer.leftMetricsKey = "==n";
com.schriftgestaltung.Glyphs.leftMetricsKey = n;
};
},
{
glyphname = kgreenlandic;
lastChange = "2026-03-20 13:35:31 +0000";
layers = (
{
anchors = (
{
name = bottom;
pos = (264,0);
},
{
name = top;
pos = (380,546);
}
);
layerId = "3917E251-E52F-4C58-ACE3-A75BE580C29C";
shapes = (
{
closed = 1;
nodes = (
(204,0,l),
(251,222,l),
(295,222,l),
(357,0,l),
(572,0,l),
(474,304,l),
(681,547,l),
(463,547,l),
(330,382,l),
(285,382,l),
(321,546,l),
(125,546,l),
(9,0,l)
);
}
);
width = 650;
},
{
anchors = (
{
name = bottom;
pos = (226,0);
},
{
name = top;
pos = (340,535);
}
);
layerId = "CB50C8AE-8F70-48CF-8EC5-5F1FEE22C006";
shapes = (
{
closed = 1;
nodes = (
(118,0,l),
(175,251,l),
(249,251,l),
(376,0,l),
(488,0,l),
(336,300,l),
(564,535,l),
(450,535,l),
(261,340,l),
(193,340,l),
(237,535,l),
(136,535,l),
(18,0,l)
);
}
);
width = 565;
},
{
anchors = (
{
name = bottom;
pos = (204,0);
},
{
name = top;
pos = (314,524);
}
);
layerId = "111500BD-850E-4B42-8F02-00848EDACCC3";
shapes = (
{
closed = 1;
nodes = (
(69,0,l),
(127,271,l),
(220,271,l),
(396,0,l),
(435,0,l),
(249,288,l),
(515,524,l),
(470,524,l),
(222,303,l),
(133,303,l),
(181,524,l),
(147,524,l),
(35,0,l)
);
}
);
width = 517;
}
);
metricLeft = n;
metricRight = k;
unicode = 312;
},
{
glyphname = l;
kernLeft = KO_l;
kernRight = KO_l;
lastChange = "2026-03-20 13:35:31 +0000";
layers = (
{
anchors = (
{
name = bottom;
pos = (165,0);
},
{
name = center;
pos = (161,273);
},
{
name = top;
pos = (262,750);
},
{
name = topright;
pos = (426,750);
}
);
layerId = "3917E251-E52F-4C58-ACE3-A75BE580C29C";
shapes = (
{
closed = 1;
nodes = (
(268,2,l),
(304,170,l),
(264,170,ls),
(249,170,o),
(242,173,o),
(246,191,cs),
(364,750,l),
(168,750,l),
(38,134,ls),
(23,61,o),
(68,2,o),
(139,2,cs)
);
}
);
width = 345;
},
{
anchors = (
{
name = bottom;
pos = (122,0);
},
{
name = center;
pos = (129,267);
},
{
name = top;
pos = (231,750);
},
{
name = topright;
pos = (359,750);
}
);
layerId = "CB50C8AE-8F70-48CF-8EC5-5F1FEE22C006";
shapes = (
{
closed = 1;
nodes = (
(195,0,l),
(214,89,l),
(168,89,ls),
(149,89,o),
(140,99,o),
(145,120,cs),
(283,750,l),
(181,750,l),
(42,113,ls),
(27,46,o),
(70,0,o),
(137,0,cs)
);
}
);
width = 278;
},
{
anchors = (
{
name = bottom;
pos = (106,0);
},
{
name = center;
pos = (109,262);
},
{
name = top;
pos = (213,750);
},
{
name = topright;
pos = (317,750);
}
);
layerId = "111500BD-850E-4B42-8F02-00848EDACCC3";
shapes = (
{
closed = 1;
nodes = (
(147,0,l),
(154,31,l),
(123,31,ls),
(94,31,o),
(79,49,o),
(87,80,cs),
(229,750,l),
(195,750,l),
(52,80,ls),
(41,33,o),
(69,0,o),
(117,0,cs)
);
}
);
width = 242;
}
);
metricLeft = h;
unicode = 108;
userData = {
KernOnName = l;
com.schriftgestaltung.Glyphs.ColorIndex = 3;
com.schriftgestaltung.Glyphs.layer.leftMetricsKey = "==h";
com.schriftgestaltung.Glyphs.leftMetricsKey = n;
com.typemytype.robofont.layerData = {
background = {
anchors = (
{
name = bottom;
x = 108;
y = 0;
},
{
name = top;
x = 108;
y = 500;
},
{
name = topright;
x = 204;
y = 500;
},
{
name = center;
x = 148;
y = 250;
}
);
components = (
);
contours = (
{
points = (
{
segmentType = line;
smooth = 0;
x = 95;
y = 750;
},
{
segmentType = line;
smooth = 0;
x = 95;
y = 61;
},
{
segmentType = line;
smooth = 0;
x = 148;
y = -11;
},
{
segmentType = line;
smooth = 0;
x = 215;
y = 31;
},
{
segmentType = line;
smooth = 0;
x = 175;
y = 90;
},
{
segmentType = line;
smooth = 0;
x = 175;
y = 750;
}
);
}
);
lib = {
};
name = l;
unicodes = (
);
width = 275;
};
};
};
},
{
glyphname = lj;
lastChange = "2026-03-20 13:35:31 +0000";
layers = (
{
anchors = (
{
name = bottom;
pos = (428,-265);
},
{
name = center;
pos = (161,273);
},
{
name = top;
pos = (642,753);
},
{
name = topright;
pos = (426,750);
}
);
layerId = "3917E251-E52F-4C58-ACE3-A75BE580C29C";
shapes = (
{
closed = 1;
nodes = (
(268,2,l),
(304,170,l),
(264,170,ls),
(249,170,o),
(242,173,o),
(246,191,cs),
(364,750,l),
(168,750,l),
(38,134,ls),
(23,61,o),
(68,2,o),
(139,2,cs)
);
},
{
closed = 1;
nodes = (
(408,-238,o),
(556,-172,o),
(591,-10,cs),
(710,546,l),
(429,546,l),
(395,386,l),
(483,386,l),
(404,15,ls),
(393,-34,o),
(341,-62,o),
(273,-62,c),
(288,-235,l)
);
},
{
closed = 1;
nodes = (
(722,618,l),
(750,750,l),
(533,750,l),
(505,618,l)
);
}
);
width = 719;
},
{
anchors = (
{
name = bottom;
pos = (317,-265);
},
{
name = center;
pos = (129,267);
},
{
name = top;
pos = (542,746);
},
{
name = topright;
pos = (359,750);
}
);
layerId = "CB50C8AE-8F70-48CF-8EC5-5F1FEE22C006";
shapes = (
{
closed = 1;
nodes = (
(195,0,l),
(214,89,l),
(168,89,ls),
(149,89,o),
(140,99,o),
(145,120,cs),
(283,750,l),
(181,750,l),
(42,113,ls),
(27,46,o),
(70,0,o),
(137,0,cs)
);
},
{
closed = 1;
nodes = (
(316,-209,o),
(411,-139,o),
(442,3,cs),
(559,535,l),
(366,535,l),
(349,449,l),
(438,449,l),
(341,6,ls),
(323,-78,o),
(266,-126,o),
(176,-147,c),
(192,-236,l)
);
},
{
closed = 1;
nodes = (
(568,632,l),
(593,750,l),
(492,750,l),
(467,632,l)
);
}
);
width = 576;
},
{
anchors = (
{
name = bottom;
pos = (230,-265);
},
{
name = center;
pos = (109,262);
},
{
name = top;
pos = (455,709);
},
{
name = topright;
pos = (317,750);
}
);
layerId = "111500BD-850E-4B42-8F02-00848EDACCC3";
shapes = (
{
closed = 1;
nodes = (
(147,0,l),
(154,31,l),
(123,31,ls),
(94,31,o),
(79,49,o),
(87,80,cs),
(229,750,l),
(195,750,l),
(52,80,ls),
(41,33,o),
(69,0,o),
(117,0,cs)
);
},
{
closed = 1;
nodes = (
(227,-192,o),
(292,-130,o),
(318,-13,cs),
(436,524,l),
(325,524,l),
(319,493,l),
(394,493,l),
(286,-10,ls),
(265,-109,o),
(211,-167,o),
(90,-207,c),
(101,-233,l)
);
},
{
closed = 1;
nodes = (
(456,632,l),
(481,750,l),
(446,750,l),
(421,632,l)
);
}
);
width = 471;
}
);
unicode = 457;
},
{
color = 9;
glyphname = lj.ss01;
lastChange = "2026-03-20 13:35:31 +0000";
layers = (
{
anchors = (
{
name = bottom;
pos = (428,-265);
},
{
name = center;
pos = (161,273);
},
{
name = top;
pos = (642,753);
},
{
name = topright;
pos = (426,750);
}
);
layerId = "3917E251-E52F-4C58-ACE3-A75BE580C29C";
shapes = (
{
closed = 1;
nodes = (
(268,2,l),
(304,170,l),
(264,170,ls),
(249,170,o),
(242,173,o),
(246,191,cs),
(364,750,l),
(168,750,l),
(38,134,ls),
(23,61,o),
(68,2,o),
(139,2,cs)
);
},
{
closed = 1;
nodes = (
(408,-238,o),
(556,-172,o),
(591,-10,cs),
(710,546,l),
(429,546,l),
(395,386,l),
(483,386,l),
(404,15,ls),
(393,-34,o),
(341,-62,o),
(273,-62,c),
(288,-235,l)
);
},
{
closed = 1;
nodes = (
(722,618,l),
(750,750,l),
(533,750,l),
(505,618,l)
);
}
);
width = 719;
},
{
anchors = (
{
name = bottom;
pos = (317,-265);
},
{
name = center;
pos = (129,267);
},
{
name = top;
pos = (542,746);
},
{
name = topright;
pos = (359,750);
}
);
layerId = "CB50C8AE-8F70-48CF-8EC5-5F1FEE22C006";
shapes = (
{
closed = 1;
nodes = (
(195,0,l),
(214,89,l),
(168,89,ls),
(149,89,o),
(140,99,o),
(145,120,cs),
(283,750,l),
(181,750,l),
(42,113,ls),
(27,46,o),
(70,0,o),
(137,0,cs)
);
},
{
closed = 1;
nodes = (
(316,-209,o),
(411,-139,o),
(442,3,cs),
(559,535,l),
(366,535,l),
(349,449,l),
(438,449,l),
(341,6,ls),
(323,-78,o),
(266,-126,o),
(176,-147,c),
(192,-236,l)
);
},
{
closed = 1;
nodes = (
(568,632,l),
(593,750,l),
(492,750,l),
(467,632,l)
);
}
);
width = 576;
},
{
anchors = (
{
name = bottom;
pos = (230,-265);
},
{
name = center;
pos = (109,262);
},
{
name = top;
pos = (455,709);
},
{
name = topright;
pos = (317,750);
}
);
layerId = "111500BD-850E-4B42-8F02-00848EDACCC3";
shapes = (
{
closed = 1;
nodes = (
(147,0,l),
(154,31,l),
(123,31,ls),
(94,31,o),
(79,49,o),
(87,80,cs),
(229,750,l),
(195,750,l),
(52,80,ls),
(41,33,o),
(69,0,o),
(117,0,cs)
);
},
{
closed = 1;
nodes = (
(227,-192,o),
(292,-130,o),
(318,-13,cs),
(436,524,l),
(325,524,l),
(319,493,l),
(394,493,l),
(286,-10,ls),
(265,-109,o),
(211,-167,o),
(90,-207,c),
(101,-233,l)
);
},
{
closed = 1;
nodes = (
(456,632,l),
(481,750,l),
(446,750,l),
(421,632,l)
);
}
);
width = 471;
}
);
},
{
glyphname = lslash;
lastChange = "2026-03-20 13:35:31 +0000";
layers = (
{
background = {
shapes = (
{
pos = (25,0);
ref = l;
}
);
};
layerId = "3917E251-E52F-4C58-ACE3-A75BE580C29C";
shapes = (
{
closed = 1;
nodes = (
(395,444,l),
(434,626,l),
(45,390,l),
(6,208,l)
);
},
{
closed = 1;
nodes = (
(293,2,l),
(329,170,l),
(289,170,ls),
(274,170,o),
(267,173,o),
(271,191,cs),
(389,750,l),
(193,750,l),
(63,134,ls),
(48,61,o),
(93,2,o),
(164,2,cs)
);
}
);
width = 379;
},
{
layerId = "CB50C8AE-8F70-48CF-8EC5-5F1FEE22C006";
shapes = (
{
closed = 1;
nodes = (
(332,460,l),
(352,554,l),
(41,368,l),
(21,273,l)
);
},
{
closed = 1;
nodes = (
(222,0,l),
(241,89,l),
(195,89,ls),
(176,89,o),
(167,99,o),
(172,120,cs),
(310,750,l),
(208,750,l),
(69,113,ls),
(54,46,o),
(97,0,o),
(164,0,cs)
);
}
);
width = 311;
},
{
layerId = "111500BD-850E-4B42-8F02-00848EDACCC3";
shapes = (
{
closed = 1;
nodes = (
(287,470,l),
(294,504,l),
(39,352,l),
(32,319,l)
);
},
{
closed = 1;
nodes = (
(163,0,l),
(170,31,l),
(139,31,ls),
(109,31,o),
(95,49,o),
(103,80,cs),
(245,750,l),
(211,750,l),
(68,80,ls),
(56,31,o),
(85,0,o),
(133,0,cs)
);
}
);
width = 263;
}
);
metricLeft = t;
metricRight = "=|t";
unicode = 322;
},
{
glyphname = m;
kernLeft = KO_n;
kernRight = KO_n;
lastChange = "2026-03-20 13:35:31 +0000";
layers = (
{
anchors = (
{
name = bottom;
pos = (471,0);
},
{
name = bottomright;
pos = (907,0);
},
{
name = top;
pos = (589,546);
}
);
background = {
shapes = (
{
pos = (-8,0);
ref = n;
}
);
};
layerId = "3917E251-E52F-4C58-ACE3-A75BE580C29C";
shapes = (
{
closed = 1;
nodes = (
(230,0,l),
(330,463,l),
(261,326,l),
(328,380,o),
(359,397,o),
(393,397,cs),
(449,397,o),
(455,350,o),
(448,326,cs),
(376,0,l),
(569,0,l),
(647,363,ls),
(652,385,o),
(649,389,o),
(649,408,c),
(590,327,l),
(661,377,o),
(698,397,o),
(732,397,cs),
(770,397,o),
(797,374,o),
(789,327,cs),
(716,0,l),
(907,0,l),
(979,332,ls),
(984,355,o),
(986,375,o),
(986,394,cs),
(986,515,o),
(891,558,o),
(798,558,cs),
(749,558,o),
(698,551,o),
(640,525,c),
(621,507,ls),
(615,500,o),
(607,500,o),
(599,506,cs),
(571,527,o),
(526,557,o),
(469,557,cs),
(405,557,o),
(368,551,o),
(303,523,c),
(281,502,ls),
(274,495,o),
(268,495,o),
(259,498,cs),
(135,557,l),
(43,396,l),
(213,312,l),
(134,444,l),
(40,0,l)
);
}
);
width = 1024;
},
{
anchors = (
{
name = bottom;
pos = (404,0);
},
{
name = bottomright;
pos = (760,0);
},
{
name = top;
pos = (516,532);
}
);
layerId = "CB50C8AE-8F70-48CF-8EC5-5F1FEE22C006";
shapes = (
{
closed = 1;
nodes = (
(150,0,l),
(246,455,l),
(188,379,l),
(279,435,o),
(316,454,o),
(366,454,cs),
(427,454,o),
(440,402,o),
(430,357,cs),
(353,0,l),
(455,0,l),
(529,346,ls),
(536,380,o),
(537,407,o),
(528,440,c),
(493,377,l),
(585,435,o),
(621,454,o),
(670,454,cs),
(733,454,o),
(745,401,o),
(736,358,cs),
(659,0,l),
(760,0,l),
(835,346,ls),
(839,363,o),
(841,379,o),
(841,395,cs),
(841,484,o),
(781,546,o),
(685,546,cs),
(630,546,o),
(591,533,o),
(542,497,c),
(526,483,ls),
(521,478,o),
(512,478,o),
(508,484,c),
(479,523,o),
(437,546,o),
(379,546,cs),
(330,546,o),
(301,537,o),
(259,508,c),
(242,493,ls),
(237,488,o),
(230,487,o),
(222,490,cs),
(104,544,l),
(55,456,l),
(181,402,l),
(148,469,l),
(49,0,l)
);
}
);
width = 896;
},
{
anchors = (
{
name = bottom;
pos = (407,0);
},
{
name = bottomright;
pos = (744,0);
},
{
name = top;
pos = (494,523);
}
);
layerId = "111500BD-850E-4B42-8F02-00848EDACCC3";
shapes = (
{
closed = 1;
nodes = (
(97,0,l),
(196,463,l),
(179,438,l),
(247,479,o),
(296,504,o),
(353,504,cs),
(443,504,o),
(481,438,o),
(459,336,cs),
(385,0,l),
(420,0,l),
(491,336,ls),
(499,374,o),
(502,410,o),
(495,439,c),
(489,420,l),
(563,479,o),
(613,504,o),
(665,504,cs),
(771,504,o),
(801,428,o),
(784,351,cs),
(709,0,l),
(744,0,l),
(815,336,ls),
(819,355,o),
(825,377,o),
(825,396,cs),
(825,470,o),
(778,536,o),
(672,536,cs),
(621,536,o),
(573,518,o),
(518,479,c),
(507,468,ls),
(497,459,o),
(491,457,o),
(483,469,c),
(460,511,o),
(421,536,o),
(360,536,cs),
(308,536,o),
(269,520,o),
(224,495,c),
(212,484,ls),
(205,478,o),
(198,479,o),
(188,483,cs),
(78,534,l),
(62,504,l),
(178,450,l),
(165,478,l),
(63,0,l)
);
}
);
width = 887;
}
);
metricLeft = n;
metricRight = n;
unicode = 109;
userData = {
com.schriftgestaltung.Glyphs.ColorIndex = 3;
com.schriftgestaltung.Glyphs.layer.leftMetricsKey = "==n";
com.schriftgestaltung.Glyphs.layer.rightMetricsKey = "==n";
com.schriftgestaltung.Glyphs.leftMetricsKey = n;
com.schriftgestaltung.Glyphs.rightMetricsKey = n;
com.typemytype.robofont.layerData = {
background = {
anchors = (
);
components = (
);
contours = (
{
points = (
{
smooth = 0;
x = 283;
y = 512;
},
{
smooth = 0;
x = 266;
y = 510;
},
{
segmentType = curve;
smooth = 0;
x = 249;
y = 506;
},
{
segmentType = line;
smooth = 1;
x = 198;
y = 476;
},
{
smooth = 0;
x = 182;
y = 466;
},
{
smooth = 0;
x = 175;
y = 471;
},
{
segmentType = curve;
smooth = 1;
x = 175;
y = 484;
},
{
segmentType = line;
smooth = 0;
x = 175;
y = 500;
},
{
segmentType = line;
smooth = 0;
x = 95;
y = 500;
},
{
segmentType = line;
smooth = 0;
x = 95;
y = 0;
},
{
segmentType = line;
smooth = 0;
x = 175;
y = 0;
},
{
segmentType = line;
smooth = 1;
x = 175;
y = 348;
},
{
smooth = 0;
x = 175;
y = 404;
},
{
smooth = 0;
x = 205;
y = 440;
},
{
segmentType = curve;
smooth = 1;
x = 287;
y = 440;
},
{
smooth = 0;
x = 348;
y = 440;
},
{
smooth = 0;
x = 385;
y = 404;
},
{
segmentType = curve;
smooth = 1;
x = 385;
y = 348;
},
{
segmentType = line;
smooth = 0;
x = 385;
y = 0;
},
{
segmentType = line;
smooth = 0;
x = 465;
y = 0;
},
{
segmentType = line;
smooth = 1;
x = 465;
y = 348;
},
{
smooth = 0;
x = 465;
y = 404;
},
{
smooth = 0;
x = 491;
y = 440;
},
{
segmentType = curve;
smooth = 1;
x = 566;
y = 440;
},
{
smooth = 0;
x = 645;
y = 440;
},
{
smooth = 0;
x = 675;
y = 404;
},
{
segmentType = curve;
smooth = 1;
x = 675;
y = 348;
},
{
segmentType = line;
smooth = 0;
x = 675;
y = 0;
},
{
segmentType = line;
smooth = 0;
x = 755;
y = 0;
},
{
segmentType = line;
smooth = 1;
x = 755;
y = 357;
},
{
smooth = 0;
x = 755;
y = 449;
},
{
smooth = 0;
x = 699;
y = 512;
},
{
segmentType = curve;
smooth = 1;
x = 587;
y = 512;
},
{
smooth = 0;
x = 529;
y = 512;
},
{
smooth = 0;
x = 474;
y = 492;
},
{
segmentType = curve;
smooth = 0;
x = 437;
y = 451;
},
{
smooth = 0;
x = 410;
y = 489;
},
{
smooth = 0;
x = 360;
y = 512;
},
{
segmentType = curve;
smooth = 0;
x = 303;
y = 512;
}
);
}
);
lib = {
};
name = m;
unicodes = (
);
width = 825;
};
};
};
},
{
glyphname = n;
kernLeft = KO_n;
kernRight = KO_n;
lastChange = "2026-03-20 13:35:31 +0000";
layers = (
{
anchors = (
{
name = bottom;
pos = (314,0);
},
{
name = bottomright;
pos = (578,0);
},
{
name = part.hook;
pos = (40,0);
},
{
name = top;
pos = (421,540);
}
);
background = {
shapes = (
{
closed = 1;
nodes = (
(185,0,l),
(247,438,l),
(198,292,l),
(239,339,o),
(267,357,o),
(292,357,cs),
(317,357,o),
(330,342,o),
(327,319,cs),
(280,0,l),
(473,0,l),
(520,328,ls),
(537,447,o),
(459,529,o),
(345,529,cs),
(292,529,o),
(256,522,o),
(207,495,c),
(189,475,ls),
(183,468,o),
(175,468,o),
(169,471,cs),
(58,527,l),
(-23,367,l),
(146,283,l),
(51,416,l),
(-6,0,l)
);
}
);
};
layerId = "3917E251-E52F-4C58-ACE3-A75BE580C29C";
shapes = (
{
closed = 1;
nodes = (
(233,0,l),
(314,362,l),
(344,387,o),
(371,397,o),
(400,397,cs),
(438,397,o),
(463,369,o),
(455,329,cs),
(385,0,l),
(578,0,l),
(644,313,ls),
(675,458,o),
(598,558,o),
(457,558,cs),
(400,558,o),
(367,552,o),
(309,523,c),
(287,502,ls),
(280,495,o),
(272,495,o),
(265,498,cs),
(135,557,l),
(43,396,l),
(117,360,l),
(40,0,l)
);
}
);
width = 694;
},
{
anchors = (
{
name = bottom;
pos = (269,0);
},
{
name = bottomright;
pos = (467,0);
},
{
name = part.hook;
pos = (49,0);
},
{
name = top;
pos = (383,535);
}
);
layerId = "CB50C8AE-8F70-48CF-8EC5-5F1FEE22C006";
shapes = (
{
closed = 1;
nodes = (
(152,0,l),
(237,402,l),
(286,447,o),
(318,462,o),
(361,462,cs),
(419,462,o),
(453,421,o),
(440,358,cs),
(364,0,l),
(467,0,l),
(541,346,ls),
(565,458,o),
(505,544,o),
(397,546,cs),
(342,547,o),
(306,537,o),
(260,508,c),
(243,493,ls),
(238,488,o),
(230,487,o),
(223,490,cs),
(104,544,l),
(55,456,l),
(139,420,l),
(49,0,l)
);
}
);
width = 602;
},
{
anchors = (
{
name = bottom;
pos = (252,0);
},
{
name = bottomright;
pos = (421,0);
},
{
name = part.hook;
pos = (63,0);
},
{
name = top;
pos = (364,524);
}
);
layerId = "111500BD-850E-4B42-8F02-00848EDACCC3";
shapes = (
{
closed = 1;
nodes = (
(98,0,l),
(191,442,l),
(252,480,o),
(306,505,o),
(354,505,cs),
(446,505,o),
(481,442,o),
(460,342,cs),
(387,0,l),
(421,0,l),
(494,339,ls),
(519,456,o),
(474,535,o),
(364,536,cs),
(314,536,o),
(269,519,o),
(225,495,c),
(212,484,ls),
(205,478,o),
(198,479,o),
(188,483,cs),
(78,534,l),
(62,504,l),
(161,458,l),
(63,0,l)
);
}
);
width = 566;
}
);
unicode = 110;
userData = {
KernOnName = n;
com.schriftgestaltung.Glyphs.ColorIndex = 3;
};
},
{
glyphname = nj;
lastChange = "2026-03-20 13:35:31 +0000";
layers = (
{
anchors = (
{
name = bottom;
pos = (767,-265);
},
{
name = bottomright;
pos = (578,0);
},
{
name = part.hook;
pos = (40,0);
},
{
name = top;
pos = (981,753);
}
);
layerId = "3917E251-E52F-4C58-ACE3-A75BE580C29C";
shapes = (
{
closed = 1;
nodes = (
(233,0,l),
(314,362,l),
(344,387,o),
(371,397,o),
(400,397,cs),
(438,397,o),
(463,369,o),
(455,329,cs),
(385,0,l),
(578,0,l),
(644,313,ls),
(675,458,o),
(598,558,o),
(457,558,cs),
(400,558,o),
(367,552,o),
(309,523,c),
(287,502,ls),
(280,495,o),
(272,495,o),
(265,498,cs),
(135,557,l),
(43,396,l),
(117,360,l),
(40,0,l)
);
},
{
closed = 1;
nodes = (
(747,-238,o),
(895,-172,o),
(930,-10,cs),
(1049,546,l),
(768,546,l),
(734,386,l),
(822,386,l),
(743,15,ls),
(732,-34,o),
(680,-62,o),
(612,-62,c),
(627,-235,l)
);
},
{
closed = 1;
nodes = (
(1061,618,l),
(1089,750,l),
(872,750,l),
(844,618,l)
);
}
);
width = 1058;
},
{
anchors = (
{
name = bottom;
pos = (632,-265);
},
{
name = bottomright;
pos = (467,0);
},
{
name = part.hook;
pos = (49,0);
},
{
name = top;
pos = (857,746);
}
);
layerId = "CB50C8AE-8F70-48CF-8EC5-5F1FEE22C006";
shapes = (
{
closed = 1;
nodes = (
(152,0,l),
(237,402,l),
(286,447,o),
(318,462,o),
(361,462,cs),
(419,462,o),
(453,421,o),
(440,358,cs),
(364,0,l),
(467,0,l),
(541,346,ls),
(565,458,o),
(505,544,o),
(397,546,cs),
(342,547,o),
(306,537,o),
(260,508,c),
(243,493,ls),
(238,488,o),
(230,487,o),
(223,490,cs),
(104,544,l),
(55,456,l),
(139,420,l),
(49,0,l)
);
},
{
closed = 1;
nodes = (
(631,-209,o),
(726,-141,o),
(758,3,cs),
(874,535,l),
(681,535,l),
(664,449,l),
(753,449,l),
(656,6,ls),
(638,-78,o),
(581,-126,o),
(491,-147,c),
(508,-236,l)
);
},
{
closed = 1;
nodes = (
(884,632,l),
(909,750,l),
(807,750,l),
(782,632,l)
);
}
);
width = 891;
},
{
anchors = (
{
name = bottom;
pos = (548,-265);
},
{
name = bottomright;
pos = (421,0);
},
{
name = part.hook;
pos = (63,0);
},
{
name = top;
pos = (773,709);
}
);
layerId = "111500BD-850E-4B42-8F02-00848EDACCC3";
shapes = (
{
closed = 1;
nodes = (
(98,0,l),
(191,442,l),
(252,480,o),
(306,505,o),
(354,505,cs),
(446,505,o),
(481,442,o),
(460,342,cs),
(387,0,l),
(421,0,l),
(494,339,ls),
(519,456,o),
(474,535,o),
(364,536,cs),
(314,536,o),
(269,519,o),
(225,495,c),
(212,484,ls),
(205,478,o),
(198,479,o),
(188,483,cs),
(78,534,l),
(62,504,l),
(161,458,l),
(63,0,l)
);
},
{
closed = 1;
nodes = (
(546,-192,o),
(611,-130,o),
(637,-13,cs),
(755,524,l),
(644,524,l),
(637,493,l),
(712,493,l),
(604,-10,ls),
(583,-109,o),
(530,-167,o),
(409,-207,c),
(420,-233,l)
);
},
{
closed = 1;
nodes = (
(774,632,l),
(799,750,l),
(765,750,l),
(740,632,l)
);
}
);
width = 790;
}
);
unicode = 460;
},
{
color = 9;
glyphname = nj.ss01;
lastChange = "2026-03-20 13:35:31 +0000";
layers = (
{
anchors = (
{
name = bottom;
pos = (767,-265);
},
{
name = bottomright;
pos = (578,0);
},
{
name = part.hook;
pos = (40,0);
},
{
name = top;
pos = (981,753);
}
);
layerId = "3917E251-E52F-4C58-ACE3-A75BE580C29C";
shapes = (
{
closed = 1;
nodes = (
(233,0,l),
(314,362,l),
(344,387,o),
(371,397,o),
(400,397,cs),
(438,397,o),
(463,369,o),
(455,329,cs),
(385,0,l),
(578,0,l),
(644,313,ls),
(675,458,o),
(598,558,o),
(457,558,cs),
(400,558,o),
(367,552,o),
(309,523,c),
(287,502,ls),
(280,495,o),
(272,495,o),
(265,498,cs),
(135,557,l),
(43,396,l),
(117,360,l),
(40,0,l)
);
},
{
closed = 1;
nodes = (
(747,-238,o),
(895,-172,o),
(930,-10,cs),
(1049,546,l),
(768,546,l),
(734,386,l),
(822,386,l),
(743,15,ls),
(732,-34,o),
(680,-62,o),
(612,-62,c),
(627,-235,l)
);
},
{
closed = 1;
nodes = (
(1061,618,l),
(1089,750,l),
(872,750,l),
(844,618,l)
);
}
);
width = 1058;
},
{
anchors = (
{
name = bottom;
pos = (632,-265);
},
{
name = bottomright;
pos = (467,0);
},
{
name = part.hook;
pos = (49,0);
},
{
name = top;
pos = (857,746);
}
);
layerId = "CB50C8AE-8F70-48CF-8EC5-5F1FEE22C006";
shapes = (
{
closed = 1;
nodes = (
(152,0,l),
(237,402,l),
(286,447,o),
(318,462,o),
(361,462,cs),
(419,462,o),
(453,421,o),
(440,358,cs),
(364,0,l),
(467,0,l),
(541,346,ls),
(565,458,o),
(505,544,o),
(397,546,cs),
(342,547,o),
(306,537,o),
(260,508,c),
(243,493,ls),
(238,488,o),
(230,487,o),
(223,490,cs),
(104,544,l),
(55,456,l),
(139,420,l),
(49,0,l)
);
},
{
closed = 1;
nodes = (
(631,-209,o),
(726,-141,o),
(758,3,cs),
(874,535,l),
(681,535,l),
(664,449,l),
(753,449,l),
(656,6,ls),
(638,-78,o),
(581,-126,o),
(491,-147,c),
(508,-236,l)
);
},
{
closed = 1;
nodes = (
(884,632,l),
(909,750,l),
(807,750,l),
(782,632,l)
);
}
);
width = 891;
},
{
anchors = (
{
name = bottom;
pos = (548,-265);
},
{
name = bottomright;
pos = (421,0);
},
{
name = part.hook;
pos = (63,0);
},
{
name = top;
pos = (773,709);
}
);
layerId = "111500BD-850E-4B42-8F02-00848EDACCC3";
shapes = (
{
closed = 1;
nodes = (
(98,0,l),
(191,442,l),
(252,480,o),
(306,505,o),
(354,505,cs),
(446,505,o),
(481,442,o),
(460,342,cs),
(387,0,l),
(421,0,l),
(494,339,ls),
(519,456,o),
(474,535,o),
(364,536,cs),
(314,536,o),
(269,519,o),
(225,495,c),
(212,484,ls),
(205,478,o),
(198,479,o),
(188,483,cs),
(78,534,l),
(62,504,l),
(161,458,l),
(63,0,l)
);
},
{
closed = 1;
nodes = (
(546,-192,o),
(611,-130,o),
(637,-13,cs),
(755,524,l),
(644,524,l),
(637,493,l),
(712,493,l),
(604,-10,ls),
(583,-109,o),
(530,-167,o),
(409,-207,c),
(420,-233,l)
);
},
{
closed = 1;
nodes = (
(774,632,l),
(799,750,l),
(765,750,l),
(740,632,l)
);
}
);
width = 790;
}
);
},
{
glyphname = o;
kernLeft = KO_o;
kernRight = KO_o;
lastChange = "2026-03-20 13:35:31 +0000";
layers = (
{
anchors = (
{
name = bottom;
pos = (270,0);
},
{
name = center;
pos = (328,274);
},
{
name = ogonek;
pos = (382,0);
},
{
name = top;
pos = (386,546);
},
{
name = topright;
pos = (505,546);
}
);
background = {
shapes = (
{
closed = 1;
nodes = (
(401,-12,o),
(496,60,o),
(522,155,cs),
(538,213,o),
(546,283,o),
(546,338,cs),
(546,446,o),
(468,529,o),
(311,529,cs),
(183,529,o),
(88,457,o),
(62,362,cs),
(46,304,o),
(38,234,o),
(38,179,cs),
(38,71,o),
(116,-12,o),
(273,-12,cs)
);
},
{
closed = 1;
nodes = (
(242,144,o),
(227,169,o),
(227,199,cs),
(227,240,o),
(232,283,o),
(243,323,cs),
(251,351,o),
(270,373,o),
(306,373,cs),
(342,373,o),
(358,348,o),
(358,318,cs),
(358,277,o),
(352,234,o),
(341,194,cs),
(333,166,o),
(314,144,o),
(278,144,cs)
);
},
{
closed = 1;
nodes = (
(540,-12,o),
(620,183,o),
(620,335,cs),
(620,459,o),
(526,558,o),
(364,558,cs),
(133,558,o),
(35,389,o),
(35,203,cs),
(39,82,o),
(133,-12,o),
(291,-12,cs)
);
}
);
};
layerId = "3917E251-E52F-4C58-ACE3-A75BE580C29C";
shapes = (
{
closed = 1;
nodes = (
(495,-12,o),
(618,135,o),
(618,311,cs),
(620,466,o),
(505,558,o),
(357,558,cs),
(159,558,o),
(36,411,o),
(36,235,cs),
(34,80,o),
(149,-12,o),
(297,-12,cs)
);
},
{
closed = 1;
nodes = (
(254,150,o),
(223,180,o),
(224,235,cs),
(224,303,o),
(260,396,o),
(347,396,cs),
(400,396,o),
(431,366,o),
(430,311,cs),
(430,243,o),
(394,150,o),
(307,150,cs)
);
}
);
width = 654;
},
{
anchors = (
{
name = bottom;
pos = (248,0);
},
{
name = center;
pos = (304,267);
},
{
name = ogonek;
pos = (342,0);
},
{
name = top;
pos = (360,535);
},
{
name = topright;
pos = (469,532);
}
);
layerId = "CB50C8AE-8F70-48CF-8EC5-5F1FEE22C006";
shapes = (
{
closed = 1;
nodes = (
(449,-12,o),
(561,158,o),
(561,320,cs),
(561,447,o),
(486,547,o),
(342,547,cs),
(158,547,o),
(46,377,o),
(46,215,cs),
(46,88,o),
(121,-12,o),
(266,-12,cs)
);
},
{
closed = 1;
nodes = (
(179,73,o),
(150,140,o),
(150,213,cs),
(150,306,o),
(206,462,o),
(342,462,cs),
(429,462,o),
(458,395,o),
(458,322,cs),
(458,229,o),
(402,73,o),
(266,73,cs)
);
}
);
width = 607;
},
{
anchors = (
{
name = bottom;
pos = (226,0);
},
{
name = center;
pos = (282,262);
},
{
name = ogonek;
pos = (329,0);
},
{
name = top;
pos = (337,524);
},
{
name = topright;
pos = (425,523);
}
);
layerId = "111500BD-850E-4B42-8F02-00848EDACCC3";
shapes = (
{
closed = 1;
nodes = (
(430,-12,o),
(513,174,o),
(513,318,cs),
(513,436,o),
(459,536,o),
(327,536,cs),
(140,536,o),
(57,349,o),
(57,206,cs),
(57,88,o),
(111,-12,o),
(243,-12,cs)
);
},
{
closed = 1;
nodes = (
(133,19,o),
(92,102,o),
(92,205,cs),
(92,334,o),
(162,505,o),
(327,505,cs),
(437,505,o),
(478,422,o),
(478,319,cs),
(478,190,o),
(408,19,o),
(243,19,cs)
);
}
);
width = 570;
}
);
unicode = 111;
userData = {
KernOnName = o;
com.schriftgestaltung.Glyphs.ColorIndex = 3;
com.typemytype.robofont.layerData = {
background = {
anchors = (
);
components = (
);
contours = (
{
points = (
{
smooth = 0;
x = 539;
y = 66;
},
{
smooth = 0;
x = 451;
y = -8;
},
{
segmentType = curve;
smooth = 1;
x = 332;
y = -8;
},
{
smooth = 0;
x = 213;
y = -8;
},
{
smooth = 0;
x = 125;
y = 66;
},
{
segmentType = curve;
smooth = 1;
x = 125;
y = 252;
},
{
smooth = 0;
x = 125;
y = 438;
},
{
smooth = 0;
x = 213;
y = 512;
},
{
segmentType = curve;
smooth = 1;
x = 332;
y = 512;
},
{
smooth = 0;
x = 451;
y = 512;
},
{
smooth = 0;
x = 539;
y = 438;
},
{
segmentType = curve;
smooth = 1;
x = 539;
y = 252;
}
);
},
{
points = (
{
smooth = 0;
x = 465;
y = 408;
},
{
smooth = 0;
x = 406;
y = 446;
},
{
segmentType = curve;
smooth = 1;
x = 332;
y = 446;
},
{
smooth = 0;
x = 259;
y = 446;
},
{
smooth = 0;
x = 199;
y = 406;
},
{
segmentType = curve;
smooth = 1;
x = 199;
y = 252;
},
{
smooth = 0;
x = 199;
y = 98;
},
{
smooth = 0;
x = 259;
y = 58;
},
{
segmentType = curve;
smooth = 1;
x = 332;
y = 58;
},
{
smooth = 0;
x = 406;
y = 58;
},
{
smooth = 0;
x = 465;
y = 96;
},
{
segmentType = curve;
smooth = 1;
x = 465;
y = 252;
}
);
}
);
lib = {
};
name = o;
unicodes = (
);
width = 510;
};
};
};
},
{
glyphname = ohorn;
kernLeft = KO_o;
lastChange = "2026-03-20 13:35:31 +0000";
layers = (
{
anchors = (
{
name = bottom;
pos = (270,0);
},
{
name = center;
pos = (328,274);
},
{
name = ogonek;
pos = (382,0);
},
{
name = top;
pos = (386,546);
},
{
name = topright;
pos = (657,640);
}
);
layerId = "3917E251-E52F-4C58-ACE3-A75BE580C29C";
shapes = (
{
closed = 1;
nodes = (
(495,-12,o),
(618,135,o),
(618,311,cs),
(620,466,o),
(505,558,o),
(357,558,cs),
(159,558,o),
(36,411,o),
(36,235,cs),
(34,80,o),
(149,-12,o),
(297,-12,cs)
);
},
{
closed = 1;
nodes = (
(254,150,o),
(223,180,o),
(224,235,cs),
(224,303,o),
(260,396,o),
(347,396,cs),
(400,396,o),
(431,366,o),
(430,311,cs),
(430,243,o),
(394,150,o),
(307,150,cs)
);
},
{
closed = 1;
nodes = (
(583,458,o),
(668,498,o),
(677,640,c),
(576,640,l),
(571,559,o),
(546,546,o),
(505,546,cs),
(425,546,l),
(406,458,l),
(506,458,l)
);
}
);
width = 654;
},
{
anchors = (
{
name = bottom;
pos = (248,0);
},
{
name = center;
pos = (304,267);
},
{
name = ogonek;
pos = (342,0);
},
{
name = top;
pos = (360,535);
},
{
name = topright;
pos = (612,622);
}
);
layerId = "CB50C8AE-8F70-48CF-8EC5-5F1FEE22C006";
shapes = (
{
closed = 1;
nodes = (
(449,-12,o),
(561,158,o),
(561,320,cs),
(561,447,o),
(486,547,o),
(342,547,cs),
(158,547,o),
(46,377,o),
(46,215,cs),
(46,88,o),
(121,-12,o),
(266,-12,cs)
);
},
{
closed = 1;
nodes = (
(179,73,o),
(150,140,o),
(150,213,cs),
(150,306,o),
(206,462,o),
(342,462,cs),
(429,462,o),
(458,395,o),
(458,322,cs),
(458,229,o),
(402,73,o),
(266,73,cs)
);
},
{
closed = 1;
nodes = (
(518,475,o),
(588,509,o),
(612,622,c),
(541,622,l),
(525,546,o),
(498,532,o),
(469,532,c),
(423,532,l),
(411,475,l),
(457,475,l)
);
}
);
width = 607;
},
{
anchors = (
{
name = bottom;
pos = (226,0);
},
{
name = center;
pos = (282,262);
},
{
name = ogonek;
pos = (329,0);
},
{
name = top;
pos = (337,524);
},
{
name = topright;
pos = (536,608);
}
);
layerId = "111500BD-850E-4B42-8F02-00848EDACCC3";
shapes = (
{
closed = 1;
nodes = (
(430,-12,o),
(513,174,o),
(513,318,cs),
(513,436,o),
(459,536,o),
(327,536,cs),
(140,536,o),
(57,349,o),
(57,206,cs),
(57,88,o),
(111,-12,o),
(243,-12,cs)
);
},
{
closed = 1;
nodes = (
(133,19,o),
(92,102,o),
(92,205,cs),
(92,334,o),
(162,505,o),
(327,505,cs),
(437,505,o),
(478,422,o),
(478,319,cs),
(478,190,o),
(408,19,o),
(243,19,cs)
);
},
{
closed = 1;
nodes = (
(466,498,o),
(519,529,o),
(536,608,c),
(507,608,l),
(494,545,o),
(460,523,o),
(425,523,c),
(401,523,l),
(396,498,l),
(420,498,l)
);
}
);
width = 570;
}
);
unicode = 417;
},
{
glyphname = ohornacute;
kernLeft = KO_o;
lastChange = "2026-03-20 13:35:31 +0000";
layers = (
{
anchors = (
{
name = bottom;
pos = (270,0);
},
{
name = center;
pos = (328,274);
},
{
name = ogonek;
pos = (382,0);
},
{
name = top;
pos = (229,665);
},
{
name = topright;
pos = (657,640);
}
);
layerId = "3917E251-E52F-4C58-ACE3-A75BE580C29C";
shapes = (
{
closed = 1;
nodes = (
(495,-12,o),
(618,135,o),
(618,311,cs),
(620,466,o),
(505,558,o),
(357,558,cs),
(159,558,o),
(36,411,o),
(36,235,cs),
(34,80,o),
(149,-12,o),
(297,-12,cs)
);
},
{
closed = 1;
nodes = (
(254,150,o),
(223,180,o),
(224,235,cs),
(224,303,o),
(260,396,o),
(347,396,cs),
(400,396,o),
(431,366,o),
(430,311,cs),
(430,243,o),
(394,150,o),
(307,150,cs)
);
},
{
closed = 1;
nodes = (
(583,458,o),
(668,498,o),
(677,640,c),
(576,640,l),
(571,559,o),
(546,546,o),
(505,546,cs),
(425,546,l),
(406,458,l),
(506,458,l)
);
},
{
closed = 1;
nodes = (
(477,618,l),
(608,760,l),
(409,760,l),
(309,618,l)
);
}
);
width = 654;
},
{
anchors = (
{
name = bottom;
pos = (248,0);
},
{
name = center;
pos = (304,267);
},
{
name = ogonek;
pos = (342,0);
},
{
name = top;
pos = (290,643);
},
{
name = topright;
pos = (612,622);
}
);
layerId = "CB50C8AE-8F70-48CF-8EC5-5F1FEE22C006";
shapes = (
{
closed = 1;
nodes = (
(449,-12,o),
(561,158,o),
(561,320,cs),
(561,447,o),
(486,547,o),
(342,547,cs),
(158,547,o),
(46,377,o),
(46,215,cs),
(46,88,o),
(121,-12,o),
(266,-12,cs)
);
},
{
closed = 1;
nodes = (
(179,73,o),
(150,140,o),
(150,213,cs),
(150,306,o),
(206,462,o),
(342,462,cs),
(429,462,o),
(458,395,o),
(458,322,cs),
(458,229,o),
(402,73,o),
(266,73,cs)
);
},
{
closed = 1;
nodes = (
(518,475,o),
(588,509,o),
(612,622,c),
(541,622,l),
(525,546,o),
(498,532,o),
(469,532,c),
(423,532,l),
(411,475,l),
(457,475,l)
);
},
{
closed = 1;
nodes = (
(418,618,l),
(545,760,l),
(433,760,l),
(332,618,l)
);
}
);
width = 607;
},
{
anchors = (
{
name = bottom;
pos = (226,0);
},
{
name = center;
pos = (282,262);
},
{
name = ogonek;
pos = (329,0);
},
{
name = top;
pos = (359,692);
},
{
name = topright;
pos = (536,608);
}
);
layerId = "111500BD-850E-4B42-8F02-00848EDACCC3";
shapes = (
{
closed = 1;
nodes = (
(430,-12,o),
(513,174,o),
(513,318,cs),
(513,436,o),
(459,536,o),
(327,536,cs),
(140,536,o),
(57,349,o),
(57,206,cs),
(57,88,o),
(111,-12,o),
(243,-12,cs)
);
},
{
closed = 1;
nodes = (
(133,19,o),
(92,102,o),
(92,205,cs),
(92,334,o),
(162,505,o),
(327,505,cs),
(437,505,o),
(478,422,o),
(478,319,cs),
(478,190,o),
(408,19,o),
(243,19,cs)
);
},
{
closed = 1;
nodes = (
(466,498,o),
(519,529,o),
(536,608,c),
(507,608,l),
(494,545,o),
(460,523,o),
(425,523,c),
(401,523,l),
(396,498,l),
(420,498,l)
);
},
{
closed = 1;
nodes = (
(372,618,l),
(504,760,l),
(462,760,l),
(342,618,l)
);
}
);
width = 570;
}
);
unicode = 7899;
},
